<svg version="1.1" id="Layer_1" xmlns="http://www.w3.org/2000/svg"  x="0px" y="0px" width="140px" height="32px" viewBox="0 0 140 32" style="enable-background:new 0 0 14 14;" xml:space="preserve">
	<path fill="#3a0e2f" d="M115.608511,27.1857708 C112.618686,27.1857708 110.525809,24.7826087 110.525809,21.4782609 C110.525809,18.3241107 112.768178,15.770751 115.608511,15.770751 C118.598335,15.770751 120.840703,18.173913 120.840703,21.4782609 C120.840703,24.7826087 118.598335,27.1857708 115.608511,27.1857708 L115.608511,27.1857708 Z M115.608511,11.4150198 C112.469195,11.4150198 109.927845,12.4664032 107.984459,14.4189723 C106.190564,16.2213439 105.144126,18.7747036 105.144126,21.6284585 C105.144126,24.4822134 106.190564,26.8853755 107.984459,28.8379447 C109.927845,30.7905138 112.469195,31.8418972 115.608511,31.8418972 C121.73765,31.8418972 126.072895,27.6363636 126.072895,21.7786561 C126.072895,15.6205534 121.73765,11.4150198 115.608511,11.4150198 L115.608511,11.4150198 Z M76.1428307,11.8656126 L81.6740056,11.8656126 L81.6740056,31.0909091 L76.1428307,31.0909091 L76.1428307,11.8656126 L76.1428307,11.8656126 Z M74.946901,4.2055336 L78.8336725,8.11067194 L82.720444,4.2055336 L78.8336725,0.300395257 L74.946901,4.2055336 Z M5.58297872,25.6837945 L5.58297872,4.2055336 L0.0518038853,4.2055336 L0.0518038853,31.2411067 L18.7382054,31.2411067 L18.7382054,25.6837945 L5.58297872,25.6837945 L5.58297872,25.6837945 Z M66.8743756,11.4150198 C62.0906568,11.4150198 60.5957447,14.2687747 60.5957447,14.2687747 L60.4462535,14.56917 L60.2967623,14.4189723 C58.9513414,12.4664032 57.1574468,11.4150198 54.0181314,11.4150198 C49.2344126,11.4150198 47.7395005,14.2687747 47.7395005,14.2687747 L47.5900093,14.4189723 L45.9456059,11.715415 L42.6567993,11.715415 L42.6567993,14.4189723 L42.6567993,18.4743083 L42.6567993,31.0909091 L47.8889917,31.0909091 L47.8889917,21.4782609 C47.8889917,17.7233202 49.0849214,16.0711462 51.9252544,16.0711462 C54.3171138,16.0711462 55.5130435,17.5731225 55.5130435,20.5770751 L55.5130435,31.0909091 L60.7452359,31.0909091 L60.7452359,21.4782609 C60.7452359,17.8735178 61.9411656,16.0711462 64.6320074,16.0711462 C66.1269195,16.0711462 68.2197965,16.5217391 68.2197965,20.7272727 L68.2197965,31.0909091 L73.4519889,31.0909091 L73.4519889,19.0750988 C73.4519889,13.8181818 71.3591119,11.4150198 66.8743756,11.4150198 L66.8743756,11.4150198 Z M95.8756707,11.4150198 L95.8756707,11.4150198 C90.7929695,11.4150198 89.5970398,14.56917 89.5970398,14.56917 L87.9526364,11.8656126 L84.5143386,11.8656126 L84.5143386,31.0909091 L89.746531,31.0909091 L89.746531,21.4782609 C89.746531,18.9249012 90.493987,17.4229249 91.6899167,16.5217391 C92.2878816,16.0711462 93.1848289,15.9209486 94.0817761,15.9209486 C97.0716004,15.9209486 97.8190564,17.7233202 97.8190564,20.5770751 L97.8190564,30.9407115 L103.051249,30.9407115 L103.051249,18.9249012 C103.350231,13.8181818 100.659389,11.4150198 95.8756707,11.4150198 L95.8756707,11.4150198 Z M28.0066605,31.6916996 L28.0066605,31.6916996 C33.0893617,31.6916996 34.2852914,28.5375494 34.2852914,28.5375494 L35.9296947,31.2411067 L39.3679926,31.2411067 L39.3679926,11.8656126 L34.1358002,11.8656126 L34.1358002,21.4782609 C34.1358002,24.0316206 33.3883441,25.5335968 32.1924144,26.4347826 C31.5944496,26.7351779 30.6975023,27.0355731 29.800555,27.0355731 C26.8107308,27.0355731 26.0632747,25.2332016 26.0632747,22.3794466 L26.0632747,12.0158103 L20.8310823,12.0158103 L20.8310823,24.0316206 C20.6815911,29.2885375 23.3724329,31.6916996 28.0066605,31.6916996 L28.0066605,31.6916996 Z M133.397965,31.0909091 L133.397965,23.8814229 C133.397965,21.3280632 133.846438,19.826087 135.341351,18.4743083 C137.284736,16.8221344 139.826087,16.8221344 139.826087,16.8221344 L139.826087,11.4150198 C134.145421,11.4150198 133.098982,14.56917 133.098982,14.56917 L131.454579,11.8656126 L128.016281,11.8656126 L128.016281,31.0909091 L133.397965,31.0909091 L133.397965,31.0909091 Z"/>
</svg>
