<?xml version="1.0" standalone="no"?>
<!DOCTYPE svg PUBLIC "-//W3C//DTD SVG 1.1//EN" "http://www.w3.org/Graphics/SVG/1.1/DTD/svg11.dtd" >
<svg xmlns="http://www.w3.org/2000/svg" xmlns:xlink="http://www.w3.org/1999/xlink" version="1.1">
<metadata>
Created by FontForge 20170924 at Tue Sep 12 14:33:52 2017
 By www-data
Copyright \(c\) 2017 by Colophon Foundry. All rights reserved.
</metadata>
<defs>
<font id="ApercuPro-Bold" horiz-adv-x="620" >
  <font-face 
    font-family="Apercu Pro"
    font-weight="700"
    font-stretch="normal"
    units-per-em="1000"
    panose-1="2 11 8 3 5 6 1 4 1 3"
    ascent="788"
    descent="-212"
    x-height="504"
    cap-height="700"
    bbox="-669 -296 1226 1129"
    underline-thickness="62"
    underline-position="-160"
    stemh="106"
    stemv="130"
    unicode-range="U+000D-FB02"
  />
<missing-glyph horiz-adv-x="631" 
d="M80 0v700h471v-700h-471zM200 106h231v488h-231v-488z" />
    <glyph glyph-name="f_f" unicode="ff" horiz-adv-x="637" 
d="M548 602c-35 0 -57 -18 -57 -63v-35h106v-106h-106v-398h-124v398h-170v-398h-124v398h-64v106h64v26c0 123 70 178 174 178c39 0 72 -8 94 -20l-27 -100c-21 9 -39 14 -60 14c-35 0 -57 -18 -57 -63v-35h170v26c0 123 70 178 174 178c39 0 72 -8 94 -20l-27 -100
c-21 9 -39 14 -60 14z" />
    <glyph glyph-name="f_f_i" unicode="ffi" horiz-adv-x="837" 
d="M73 0v398h-64v106h64v26c0 123 70 178 174 178c39 0 72 -8 94 -20l-27 -100c-21 9 -39 14 -60 14c-35 0 -57 -18 -57 -63v-35h170v6c0 134 94 198 234 198c63 0 122 -14 153 -29l-37 -102c-31 15 -65 25 -109 25c-72 0 -117 -33 -117 -93v-5h294v-504h-124v398h-170v-398
h-124v398h-170v-398h-124z" />
    <glyph glyph-name="f_f_l" unicode="ffl" horiz-adv-x="855" 
d="M73 0v398h-64v106h64v26c0 123 70 178 174 178c39 0 72 -8 94 -20l-27 -100c-21 9 -39 14 -60 14c-35 0 -57 -18 -57 -63v-35h170v26c0 123 70 178 174 178h244v-708h-124v602h-113c-35 0 -57 -18 -57 -63v-35h106v-106h-106v-398h-124v398h-170v-398h-124z" />
    <glyph glyph-name="fi" unicode="fi" horiz-adv-x="543" 
d="M73 0v398h-64v106h64v6c0 134 94 198 234 198c63 0 122 -14 153 -29l-37 -102c-31 15 -65 25 -109 25c-72 0 -117 -33 -117 -93v-5h294v-504h-124v398h-170v-398h-124z" />
    <glyph glyph-name="fl" unicode="fl" horiz-adv-x="561" 
d="M73 0v398h-64v106h64v26c0 123 70 178 174 178h244v-708h-124v602h-113c-35 0 -57 -18 -57 -63v-35h106v-106h-106v-398h-124z" />
    <glyph glyph-name=".notdef" horiz-adv-x="631" 
d="M80 0v700h471v-700h-471zM200 106h231v488h-231v-488z" />
    <glyph glyph-name="A" unicode="A" horiz-adv-x="624" 
d="M10 0l237 700h130l237 -700h-140l-51 165h-222l-51 -165h-140zM238 285h148l-74 243z" />
    <glyph glyph-name="Aacute" unicode="&#xc1;" horiz-adv-x="624" 
d="M262 748l67 156h168l-145 -156h-90zM10 0l237 700h130l237 -700h-140l-51 165h-222l-51 -165h-140zM238 285h148l-74 243z" />
    <glyph glyph-name="Abreve" unicode="&#x102;" horiz-adv-x="624" 
d="M320 787c-73 0 -118 51 -118 109h91c0 -16 11 -28 27 -28s27 12 27 28h91c0 -58 -45 -109 -118 -109zM10 0l237 700h130l237 -700h-140l-51 165h-222l-51 -165h-140zM238 285h148l-74 243z" />
    <glyph glyph-name="Acircumflex" unicode="&#xc2;" horiz-adv-x="624" 
d="M134 756l161 174h34l161 -174h-114l-64 69l-64 -69h-114zM10 0l237 700h130l237 -700h-140l-51 165h-222l-51 -165h-140zM238 285h148l-74 243z" />
    <glyph glyph-name="Adieresis" unicode="&#xc4;" horiz-adv-x="624" 
d="M208 772c-42 0 -71 30 -71 71s29 71 71 71s71 -30 71 -71s-29 -71 -71 -71zM415 772c-42 0 -71 30 -71 71s29 71 71 71s71 -30 71 -71s-29 -71 -71 -71zM10 0l237 700h130l237 -700h-140l-51 165h-222l-51 -165h-140zM238 285h148l-74 243z" />
    <glyph glyph-name="Agrave" unicode="&#xc0;" horiz-adv-x="624" 
d="M272 748l-145 156h168l67 -156h-90zM10 0l237 700h130l237 -700h-140l-51 165h-222l-51 -165h-140zM238 285h148l-74 243z" />
    <glyph glyph-name="Amacron" unicode="&#x100;" horiz-adv-x="624" 
d="M177 790v98h269v-98h-269zM10 0l237 700h130l237 -700h-140l-51 165h-222l-51 -165h-140zM238 285h148l-74 243z" />
    <glyph glyph-name="Aogonek" unicode="&#x104;" horiz-adv-x="624" 
d="M613 -94l20 -76c-19 -10 -37 -15 -65 -15c-57 0 -97 33 -97 90c0 39 25 75 57 95h-54l-51 165h-222l-51 -165h-140l237 700h130l237 -700c-36 -29 -58 -57 -58 -78c0 -16 9 -26 26 -26c12 0 21 4 31 10zM238 285h148l-74 243z" />
    <glyph glyph-name="Aring" unicode="&#xc5;" horiz-adv-x="624" 
d="M311 749c-60 0 -106 43 -106 102s46 102 106 102s106 -43 106 -102s-46 -102 -106 -102zM311 819c18 0 32 13 32 32s-14 32 -32 32s-32 -13 -32 -32s14 -32 32 -32zM10 0l237 700h130l237 -700h-140l-51 165h-222l-51 -165h-140zM238 285h148l-74 243z" />
    <glyph glyph-name="Aringacute" unicode="&#x1fa;" horiz-adv-x="624" 
d="M262 973l67 156h168l-145 -156h-90zM311 749c-60 0 -106 43 -106 102s46 102 106 102s106 -43 106 -102s-46 -102 -106 -102zM311 819c18 0 32 13 32 32s-14 32 -32 32s-32 -13 -32 -32s14 -32 32 -32zM10 0l237 700h130l237 -700h-140l-51 165h-222l-51 -165h-140z
M238 285h148l-74 243z" />
    <glyph glyph-name="Atilde" unicode="&#xc3;" horiz-adv-x="624" 
d="M184 765l-65 55c23 51 72 87 123 87c66 0 85 -41 133 -41c22 0 45 17 64 43l65 -55c-23 -51 -72 -87 -123 -87c-66 0 -85 41 -133 41c-22 0 -45 -17 -64 -43zM10 0l237 700h130l237 -700h-140l-51 165h-222l-51 -165h-140zM238 285h148l-74 243z" />
    <glyph glyph-name="AE" unicode="&#xc6;" horiz-adv-x="869" 
d="M10 0l306 700h493v-120h-303v-147h243v-120h-243v-193h313v-120h-443v165h-160l-66 -165h-140zM265 285h111v243h-13z" />
    <glyph glyph-name="AEacute" unicode="&#x1fc;" horiz-adv-x="869" 
d="M542 748l67 156h168l-145 -156h-90zM10 0l306 700h493v-120h-303v-147h243v-120h-243v-193h313v-120h-443v165h-160l-66 -165h-140zM265 285h111v243h-13z" />
    <glyph glyph-name="B" unicode="B" horiz-adv-x="618" 
d="M80 0v700h256c119 0 200 -62 200 -189c0 -57 -25 -106 -69 -129c66 -27 105 -82 105 -171c0 -136 -88 -211 -231 -211h-261zM210 428h119c52 0 82 19 82 76s-30 76 -85 76h-116v-152zM210 120h119c81 0 113 34 113 94s-32 94 -113 94h-119v-188z" />
    <glyph glyph-name="C" unicode="C" horiz-adv-x="709" 
d="M377 -8c-175 0 -331 124 -331 358s156 358 331 358c152 0 257 -78 290 -212l-117 -30c-27 71 -76 122 -173 122c-108 0 -199 -76 -199 -238s91 -238 199 -238c97 0 146 51 173 122l117 -30c-33 -134 -138 -212 -290 -212z" />
    <glyph glyph-name="Cacute" unicode="&#x106;" horiz-adv-x="709" 
d="M327 748l67 156h168l-145 -156h-90zM377 -8c-175 0 -331 124 -331 358s156 358 331 358c152 0 257 -78 290 -212l-117 -30c-27 71 -76 122 -173 122c-108 0 -199 -76 -199 -238s91 -238 199 -238c97 0 146 51 173 122l117 -30c-33 -134 -138 -212 -290 -212z" />
    <glyph glyph-name="Ccaron" unicode="&#x10c;" horiz-adv-x="709" 
d="M360 756l-161 174h114l64 -69l64 69h114l-161 -174h-34zM377 -8c-175 0 -331 124 -331 358s156 358 331 358c152 0 257 -78 290 -212l-117 -30c-27 71 -76 122 -173 122c-108 0 -199 -76 -199 -238s91 -238 199 -238c97 0 146 51 173 122l117 -30
c-33 -134 -138 -212 -290 -212z" />
    <glyph glyph-name="Ccedilla" unicode="&#xc7;" horiz-adv-x="709" 
d="M377 -8c-175 0 -331 124 -331 358s156 358 331 358c152 0 257 -78 290 -212l-117 -30c-27 71 -76 122 -173 122c-108 0 -199 -76 -199 -238s91 -238 199 -238c97 0 146 51 173 122l117 -30c-33 -134 -138 -212 -290 -212zM349 -266l-148 66l141 140h90z" />
    <glyph glyph-name="Ccircumflex" unicode="&#x108;" horiz-adv-x="709" 
d="M199 756l161 174h34l161 -174h-114l-64 69l-64 -69h-114zM377 -8c-175 0 -331 124 -331 358s156 358 331 358c152 0 257 -78 290 -212l-117 -30c-27 71 -76 122 -173 122c-108 0 -199 -76 -199 -238s91 -238 199 -238c97 0 146 51 173 122l117 -30
c-33 -134 -138 -212 -290 -212z" />
    <glyph glyph-name="Cdotaccent" unicode="&#x10a;" horiz-adv-x="709" 
d="M377 765c-46 0 -80 35 -80 80s34 80 80 80s80 -35 80 -80s-34 -80 -80 -80zM377 -8c-175 0 -331 124 -331 358s156 358 331 358c152 0 257 -78 290 -212l-117 -30c-27 71 -76 122 -173 122c-108 0 -199 -76 -199 -238s91 -238 199 -238c97 0 146 51 173 122l117 -30
c-33 -134 -138 -212 -290 -212z" />
    <glyph glyph-name="D" unicode="D" horiz-adv-x="671" 
d="M80 0v700h219c165 0 326 -105 326 -350s-161 -350 -326 -350h-219zM210 120h48c112 0 235 44 235 230s-123 230 -235 230h-48v-460z" />
    <glyph glyph-name="Eth" unicode="&#xd0;" horiz-adv-x="671" 
d="M299 700c165 0 326 -105 326 -350s-161 -350 -326 -350h-219v296h-73v108h73v296h219zM258 120c112 0 235 44 235 230s-123 230 -235 230h-48v-176h113v-108h-113v-176h48z" />
    <glyph glyph-name="Dcaron" unicode="&#x10e;" horiz-adv-x="671" 
d="M255 756l-161 174h114l64 -69l64 69h114l-161 -174h-34zM80 0v700h219c165 0 326 -105 326 -350s-161 -350 -326 -350h-219zM210 120h48c112 0 235 44 235 230s-123 230 -235 230h-48v-460z" />
    <glyph glyph-name="Dcroat" unicode="&#x110;" horiz-adv-x="671" 
d="M299 700c165 0 326 -105 326 -350s-161 -350 -326 -350h-219v296h-73v108h73v296h219zM258 120c112 0 235 44 235 230s-123 230 -235 230h-48v-176h113v-108h-113v-176h48z" />
    <glyph glyph-name="E" unicode="E" horiz-adv-x="573" 
d="M80 0v700h433v-120h-303v-147h243v-120h-243v-193h313v-120h-443z" />
    <glyph glyph-name="Eacute" unicode="&#xc9;" horiz-adv-x="573" 
d="M248 748l67 156h168l-145 -156h-90zM80 0v700h433v-120h-303v-147h243v-120h-243v-193h313v-120h-443z" />
    <glyph glyph-name="Ebreve" unicode="&#x114;" horiz-adv-x="573" 
d="M306 787c-73 0 -118 51 -118 109h91c0 -16 11 -28 27 -28s27 12 27 28h91c0 -58 -45 -109 -118 -109zM80 0v700h433v-120h-303v-147h243v-120h-243v-193h313v-120h-443z" />
    <glyph glyph-name="Ecaron" unicode="&#x11a;" horiz-adv-x="573" 
d="M281 756l-161 174h114l64 -69l64 69h114l-161 -174h-34zM80 0v700h433v-120h-303v-147h243v-120h-243v-193h313v-120h-443z" />
    <glyph glyph-name="Ecircumflex" unicode="&#xca;" horiz-adv-x="573" 
d="M120 756l161 174h34l161 -174h-114l-64 69l-64 -69h-114zM80 0v700h433v-120h-303v-147h243v-120h-243v-193h313v-120h-443z" />
    <glyph glyph-name="Edieresis" unicode="&#xcb;" horiz-adv-x="573" 
d="M194 772c-42 0 -71 30 -71 71s29 71 71 71s71 -30 71 -71s-29 -71 -71 -71zM401 772c-42 0 -71 30 -71 71s29 71 71 71s71 -30 71 -71s-29 -71 -71 -71zM80 0v700h433v-120h-303v-147h243v-120h-243v-193h313v-120h-443z" />
    <glyph glyph-name="Edotaccent" unicode="&#x116;" horiz-adv-x="573" 
d="M298 765c-46 0 -80 35 -80 80s34 80 80 80s80 -35 80 -80s-34 -80 -80 -80zM80 0v700h433v-120h-303v-147h243v-120h-243v-193h313v-120h-443z" />
    <glyph glyph-name="Egrave" unicode="&#xc8;" horiz-adv-x="573" 
d="M258 748l-145 156h168l67 -156h-90zM80 0v700h433v-120h-303v-147h243v-120h-243v-193h313v-120h-443z" />
    <glyph glyph-name="Emacron" unicode="&#x112;" horiz-adv-x="573" 
d="M163 790v98h269v-98h-269zM80 0v700h433v-120h-303v-147h243v-120h-243v-193h313v-120h-443z" />
    <glyph glyph-name="Eogonek" unicode="&#x118;" horiz-adv-x="573" 
d="M522 -94l20 -76c-19 -10 -37 -15 -65 -15c-57 0 -97 33 -97 90c0 39 25 75 57 95h-357v700h433v-120h-303v-147h243v-120h-243v-193h313v-120c-36 -29 -58 -57 -58 -78c0 -16 9 -26 26 -26c12 0 21 4 31 10z" />
    <glyph glyph-name="F" unicode="F" horiz-adv-x="553" 
d="M80 0v700h443v-120h-313v-160h252v-120h-252v-300h-130z" />
    <glyph glyph-name="G" unicode="G" horiz-adv-x="728" 
d="M369 -8c-169 0 -323 119 -323 358s160 358 333 358c156 0 255 -93 291 -221l-119 -31c-33 80 -87 132 -172 132c-112 0 -201 -75 -201 -238c0 -168 89 -238 198 -238c103 0 149 70 157 133h-130v108h256v-353h-109l-11 75c-27 -41 -80 -83 -170 -83z" />
    <glyph glyph-name="Gbreve" unicode="&#x11e;" horiz-adv-x="728" 
d="M387 787c-73 0 -118 51 -118 109h91c0 -16 11 -28 27 -28s27 12 27 28h91c0 -58 -45 -109 -118 -109zM369 -8c-169 0 -323 119 -323 358s160 358 333 358c156 0 255 -93 291 -221l-119 -31c-33 80 -87 132 -172 132c-112 0 -201 -75 -201 -238c0 -168 89 -238 198 -238
c103 0 149 70 157 133h-130v108h256v-353h-109l-11 75c-27 -41 -80 -83 -170 -83z" />
    <glyph glyph-name="Gcircumflex" unicode="&#x11c;" horiz-adv-x="728" 
d="M201 756l161 174h34l161 -174h-114l-64 69l-64 -69h-114zM369 -8c-169 0 -323 119 -323 358s160 358 333 358c156 0 255 -93 291 -221l-119 -31c-33 80 -87 132 -172 132c-112 0 -201 -75 -201 -238c0 -168 89 -238 198 -238c103 0 149 70 157 133h-130v108h256v-353
h-109l-11 75c-27 -41 -80 -83 -170 -83z" />
    <glyph glyph-name="Gcommaaccent" unicode="&#x122;" horiz-adv-x="728" 
d="M369 -8c-169 0 -323 119 -323 358s160 358 333 358c156 0 255 -93 291 -221l-119 -31c-33 80 -87 132 -172 132c-112 0 -201 -75 -201 -238c0 -168 89 -238 198 -238c103 0 149 70 157 133h-130v108h256v-353h-109l-11 75c-27 -41 -80 -83 -170 -83zM258 -236l44 184h152
l-130 -184h-66z" />
    <glyph glyph-name="Gdotaccent" unicode="&#x120;" horiz-adv-x="728" 
d="M379 765c-46 0 -80 35 -80 80s34 80 80 80s80 -35 80 -80s-34 -80 -80 -80zM369 -8c-169 0 -323 119 -323 358s160 358 333 358c156 0 255 -93 291 -221l-119 -31c-33 80 -87 132 -172 132c-112 0 -201 -75 -201 -238c0 -168 89 -238 198 -238c103 0 149 70 157 133h-130
v108h256v-353h-109l-11 75c-27 -41 -80 -83 -170 -83z" />
    <glyph glyph-name="H" unicode="H" horiz-adv-x="700" 
d="M80 0v700h130v-266h280v266h130v-700h-130v314h-280v-314h-130z" />
    <glyph glyph-name="Hbar" unicode="&#x126;" horiz-adv-x="700" 
d="M684 621v-108h-64v-513h-130v314h-280v-314h-130v513h-65v108h65v79h130v-79h280v79h130v-79h64zM490 434v79h-280v-79h280z" />
    <glyph glyph-name="Hcircumflex" unicode="&#x124;" horiz-adv-x="700" 
d="M172 756l161 174h34l161 -174h-114l-64 69l-64 -69h-114zM80 0v700h130v-266h280v266h130v-700h-130v314h-280v-314h-130z" />
    <glyph glyph-name="I" unicode="I" horiz-adv-x="290" 
d="M80 0v700h130v-700h-130z" />
    <glyph glyph-name="IJ" unicode="&#x132;" horiz-adv-x="819" 
d="M80 0v700h130v-700h-130zM524 -8c-122 0 -202 68 -216 181l128 27c12 -62 42 -88 88 -88c55 0 93 27 93 120v468h130v-454c0 -189 -85 -254 -223 -254z" />
    <glyph glyph-name="Iacute" unicode="&#xcd;" horiz-adv-x="290" 
d="M95 748l67 156h168l-145 -156h-90zM80 0v700h130v-700h-130z" />
    <glyph glyph-name="Ibreve" unicode="&#x12c;" horiz-adv-x="290" 
d="M153 787c-73 0 -118 51 -118 109h91c0 -16 11 -28 27 -28s27 12 27 28h91c0 -58 -45 -109 -118 -109zM80 0v700h130v-700h-130z" />
    <glyph glyph-name="Icircumflex" unicode="&#xce;" horiz-adv-x="290" 
d="M-33 756l161 174h34l161 -174h-114l-64 69l-64 -69h-114zM80 0v700h130v-700h-130z" />
    <glyph glyph-name="Idieresis" unicode="&#xcf;" horiz-adv-x="290" 
d="M41 772c-42 0 -71 30 -71 71s29 71 71 71s71 -30 71 -71s-29 -71 -71 -71zM248 772c-42 0 -71 30 -71 71s29 71 71 71s71 -30 71 -71s-29 -71 -71 -71zM80 0v700h130v-700h-130z" />
    <glyph glyph-name="Idotaccent" unicode="&#x130;" horiz-adv-x="290" 
d="M145 765c-46 0 -80 35 -80 80s34 80 80 80s80 -35 80 -80s-34 -80 -80 -80zM80 0v700h130v-700h-130z" />
    <glyph glyph-name="Igrave" unicode="&#xcc;" horiz-adv-x="290" 
d="M105 748l-145 156h168l67 -156h-90zM80 0v700h130v-700h-130z" />
    <glyph glyph-name="Imacron" unicode="&#x12a;" horiz-adv-x="290" 
d="M10 790v98h269v-98h-269zM80 0v700h130v-700h-130z" />
    <glyph glyph-name="Iogonek" unicode="&#x12e;" horiz-adv-x="290" 
d="M209 -94l20 -76c-19 -10 -37 -15 -65 -15c-57 0 -97 33 -97 90c0 39 25 75 57 95h-44v700h130v-700c-36 -29 -58 -57 -58 -78c0 -16 9 -26 26 -26c12 0 21 4 31 10z" />
    <glyph glyph-name="Itilde" unicode="&#x128;" horiz-adv-x="290" 
d="M17 765l-65 55c23 51 72 87 123 87c66 0 85 -41 133 -41c22 0 45 17 64 43l65 -55c-23 -51 -72 -87 -123 -87c-66 0 -85 41 -133 41c-22 0 -45 -17 -64 -43zM80 0v700h130v-700h-130z" />
    <glyph glyph-name="J" unicode="J" horiz-adv-x="535" 
d="M240 -8c-122 0 -202 68 -216 181l128 27c12 -62 42 -88 88 -88c55 0 93 27 93 120v468h130v-454c0 -189 -85 -254 -223 -254z" />
    <glyph glyph-name="Jcircumflex" unicode="&#x134;" horiz-adv-x="535" 
d="M221 756l161 174h34l161 -174h-114l-64 69l-64 -69h-114zM240 -8c-122 0 -202 68 -216 181l128 27c12 -62 42 -88 88 -88c55 0 93 27 93 120v468h130v-454c0 -189 -85 -254 -223 -254z" />
    <glyph glyph-name="K" unicode="K" horiz-adv-x="639" 
d="M80 0v700h130v-260l239 260h160l-284 -313l304 -387h-165l-254 334v-334h-130z" />
    <glyph glyph-name="Kcommaaccent" unicode="&#x136;" horiz-adv-x="639" 
d="M80 0v700h130v-260l239 260h160l-284 -313l304 -387h-165l-254 334v-334h-130zM216 -236l44 184h152l-130 -184h-66z" />
    <glyph glyph-name="L" unicode="L" horiz-adv-x="541" 
d="M80 0v700h130v-580h297v-120h-427z" />
    <glyph glyph-name="Lacute" unicode="&#x139;" horiz-adv-x="541" 
d="M95 748l67 156h168l-145 -156h-90zM80 0v700h130v-580h297v-120h-427z" />
    <glyph glyph-name="Lcaron" unicode="&#x13d;" horiz-adv-x="541" 
d="M360 542l25 184h136l-82 -184h-79zM80 0v700h130v-580h297v-120h-427z" />
    <glyph glyph-name="Lcommaaccent" unicode="&#x13b;" horiz-adv-x="541" 
d="M80 0v700h130v-580h297v-120h-427zM176 -236l44 184h152l-130 -184h-66z" />
    <glyph glyph-name="Ldot" unicode="&#x13f;" horiz-adv-x="541" 
d="M80 0v700h130v-580h297v-120h-427zM373 285c-48 0 -84 36 -84 84s36 84 84 84s84 -36 84 -84s-36 -84 -84 -84z" />
    <glyph glyph-name="Lslash" unicode="&#x141;" horiz-adv-x="541" 
d="M210 120h297v-120h-427v206l-67 -37l-53 95l120 66v370h130v-298l88 49l53 -95l-141 -78v-158z" />
    <glyph glyph-name="M" unicode="M" horiz-adv-x="782" 
d="M80 0v700h146l165 -437l165 437h146v-700h-130v432l-134 -368h-94l-134 368v-432h-130z" />
    <glyph glyph-name="N" unicode="N" horiz-adv-x="684" 
d="M80 0v700h137l257 -462v462h130v-700h-137l-257 462v-462h-130z" />
    <glyph glyph-name="Nacute" unicode="&#x143;" horiz-adv-x="684" 
d="M292 748l67 156h168l-145 -156h-90zM80 0v700h137l257 -462v462h130v-700h-137l-257 462v-462h-130z" />
    <glyph glyph-name="Ncaron" unicode="&#x147;" horiz-adv-x="684" 
d="M325 756l-161 174h114l64 -69l64 69h114l-161 -174h-34zM80 0v700h137l257 -462v462h130v-700h-137l-257 462v-462h-130z" />
    <glyph glyph-name="Ncommaaccent" unicode="&#x145;" horiz-adv-x="684" 
d="M80 0v700h137l257 -462v462h130v-700h-137l-257 462v-462h-130zM222 -236l44 184h152l-130 -184h-66z" />
    <glyph glyph-name="Eng" unicode="&#x14a;" horiz-adv-x="684" 
d="M381 -212v120c52 0 89 18 93 92l-264 462v-462h-130v700h137l257 -462v462h130v-700c0 -150 -87 -212 -223 -212z" />
    <glyph glyph-name="Ntilde" unicode="&#xd1;" horiz-adv-x="684" 
d="M214 765l-65 55c23 51 72 87 123 87c66 0 85 -41 133 -41c22 0 45 17 64 43l65 -55c-23 -51 -72 -87 -123 -87c-66 0 -85 41 -133 41c-22 0 -45 -17 -64 -43zM80 0v700h137l257 -462v462h130v-700h-137l-257 462v-462h-130z" />
    <glyph glyph-name="O" unicode="O" horiz-adv-x="752" 
d="M376 -8c-177 0 -330 115 -330 358s153 358 330 358s330 -115 330 -358s-153 -358 -330 -358zM376 112c105 0 198 72 198 238s-93 238 -198 238s-198 -72 -198 -238s93 -238 198 -238z" />
    <glyph glyph-name="Oacute" unicode="&#xd3;" horiz-adv-x="752" 
d="M326 748l67 156h168l-145 -156h-90zM376 -8c-177 0 -330 115 -330 358s153 358 330 358s330 -115 330 -358s-153 -358 -330 -358zM376 112c105 0 198 72 198 238s-93 238 -198 238s-198 -72 -198 -238s93 -238 198 -238z" />
    <glyph glyph-name="Obreve" unicode="&#x14e;" horiz-adv-x="752" 
d="M384 787c-73 0 -118 51 -118 109h91c0 -16 11 -28 27 -28s27 12 27 28h91c0 -58 -45 -109 -118 -109zM376 -8c-177 0 -330 115 -330 358s153 358 330 358s330 -115 330 -358s-153 -358 -330 -358zM376 112c105 0 198 72 198 238s-93 238 -198 238s-198 -72 -198 -238
s93 -238 198 -238z" />
    <glyph glyph-name="Ocircumflex" unicode="&#xd4;" horiz-adv-x="752" 
d="M198 756l161 174h34l161 -174h-114l-64 69l-64 -69h-114zM376 -8c-177 0 -330 115 -330 358s153 358 330 358s330 -115 330 -358s-153 -358 -330 -358zM376 112c105 0 198 72 198 238s-93 238 -198 238s-198 -72 -198 -238s93 -238 198 -238z" />
    <glyph glyph-name="Odieresis" unicode="&#xd6;" horiz-adv-x="752" 
d="M272 772c-42 0 -71 30 -71 71s29 71 71 71s71 -30 71 -71s-29 -71 -71 -71zM479 772c-42 0 -71 30 -71 71s29 71 71 71s71 -30 71 -71s-29 -71 -71 -71zM376 -8c-177 0 -330 115 -330 358s153 358 330 358s330 -115 330 -358s-153 -358 -330 -358zM376 112
c105 0 198 72 198 238s-93 238 -198 238s-198 -72 -198 -238s93 -238 198 -238z" />
    <glyph glyph-name="Ograve" unicode="&#xd2;" horiz-adv-x="752" 
d="M336 748l-145 156h168l67 -156h-90zM376 -8c-177 0 -330 115 -330 358s153 358 330 358s330 -115 330 -358s-153 -358 -330 -358zM376 112c105 0 198 72 198 238s-93 238 -198 238s-198 -72 -198 -238s93 -238 198 -238z" />
    <glyph glyph-name="Ohungarumlaut" unicode="&#x150;" horiz-adv-x="752" 
d="M222 756l64 148h168l-138 -148h-94zM425 756l64 148h168l-138 -148h-94zM376 -8c-177 0 -330 115 -330 358s153 358 330 358s330 -115 330 -358s-153 -358 -330 -358zM376 112c105 0 198 72 198 238s-93 238 -198 238s-198 -72 -198 -238s93 -238 198 -238z" />
    <glyph glyph-name="Omacron" unicode="&#x14c;" horiz-adv-x="752" 
d="M241 790v98h269v-98h-269zM376 -8c-177 0 -330 115 -330 358s153 358 330 358s330 -115 330 -358s-153 -358 -330 -358zM376 112c105 0 198 72 198 238s-93 238 -198 238s-198 -72 -198 -238s93 -238 198 -238z" />
    <glyph glyph-name="Oslash" unicode="&#xd8;" horiz-adv-x="752" 
d="M632 593c46 -58 74 -139 74 -243c0 -243 -153 -358 -330 -358c-64 0 -124 15 -175 45l-61 -78l-86 63l66 85c-46 58 -74 139 -74 243c0 243 153 358 330 358c64 0 124 -15 175 -45l61 78l86 -63zM178 350c0 -54 10 -98 27 -133l269 346c-29 17 -63 25 -98 25
c-105 0 -198 -72 -198 -238zM376 112c105 0 198 72 198 238c0 54 -10 98 -27 133l-269 -346c29 -17 63 -25 98 -25z" />
    <glyph glyph-name="Otilde" unicode="&#xd5;" horiz-adv-x="752" 
d="M248 765l-65 55c23 51 72 87 123 87c66 0 85 -41 133 -41c22 0 45 17 64 43l65 -55c-23 -51 -72 -87 -123 -87c-66 0 -85 41 -133 41c-22 0 -45 -17 -64 -43zM376 -8c-177 0 -330 115 -330 358s153 358 330 358s330 -115 330 -358s-153 -358 -330 -358zM376 112
c105 0 198 72 198 238s-93 238 -198 238s-198 -72 -198 -238s93 -238 198 -238z" />
    <glyph glyph-name="OE" unicode="&#x152;" horiz-adv-x="1068" 
d="M376 -8c-177 0 -330 115 -330 358s153 358 330 358c73 0 143 -20 199 -61v53h433v-120h-303v-147h243v-120h-243v-193h313v-120h-443v52c-56 -40 -126 -60 -199 -60zM376 112c105 0 199 72 199 238s-94 238 -199 238s-198 -72 -198 -238s93 -238 198 -238z" />
    <glyph glyph-name="P" unicode="P" horiz-adv-x="597" 
d="M80 0v700h264c148 0 219 -91 219 -213s-71 -213 -219 -213h-134v-274h-130zM210 394h129c57 0 92 29 92 93s-35 93 -92 93h-129v-186z" />
    <glyph glyph-name="Thorn" unicode="&#xde;" horiz-adv-x="597" 
d="M80 0v700h130v-137h134c148 0 219 -91 219 -213s-71 -213 -219 -213h-134v-137h-130zM210 257h129c57 0 92 29 92 93s-35 93 -92 93h-129v-186z" />
    <glyph glyph-name="Q" unicode="Q" horiz-adv-x="752" 
d="M376 -8c-177 0 -330 115 -330 358s153 358 330 358s330 -115 330 -358c0 -82 -17 -149 -47 -202l67 -66l-91 -90l-61 60c-56 -41 -125 -60 -198 -60zM376 112c39 0 76 10 107 30l-91 92l91 90l76 -77c10 29 15 63 15 103c0 166 -93 238 -198 238s-198 -72 -198 -238
s93 -238 198 -238z" />
    <glyph glyph-name="R" unicode="R" horiz-adv-x="633" 
d="M80 0v700h255c140 0 213 -83 213 -199c0 -92 -46 -162 -131 -188l194 -313h-145l-188 302h-68v-302h-130zM210 422h126c47 0 82 22 82 79s-35 79 -82 79h-126v-158z" />
    <glyph glyph-name="Racute" unicode="&#x154;" horiz-adv-x="633" 
d="M211 748l67 156h168l-145 -156h-90zM80 0v700h255c140 0 213 -83 213 -199c0 -92 -46 -162 -131 -188l194 -313h-145l-188 302h-68v-302h-130zM210 422h126c47 0 82 22 82 79s-35 79 -82 79h-126v-158z" />
    <glyph glyph-name="Rcaron" unicode="&#x158;" horiz-adv-x="633" 
d="M244 756l-161 174h114l64 -69l64 69h114l-161 -174h-34zM80 0v700h255c140 0 213 -83 213 -199c0 -92 -46 -162 -131 -188l194 -313h-145l-188 302h-68v-302h-130zM210 422h126c47 0 82 22 82 79s-35 79 -82 79h-126v-158z" />
    <glyph glyph-name="Rcommaaccent" unicode="&#x156;" horiz-adv-x="633" 
d="M80 0v700h255c140 0 213 -83 213 -199c0 -92 -46 -162 -131 -188l194 -313h-145l-188 302h-68v-302h-130zM210 422h126c47 0 82 22 82 79s-35 79 -82 79h-126v-158zM217 -236l44 184h152l-130 -184h-66z" />
    <glyph glyph-name="S" unicode="S" horiz-adv-x="531" 
d="M273 -8c-127 0 -219 89 -241 196l105 66c20 -78 62 -142 139 -142c52 0 91 24 91 83c0 62 -79 92 -161 133c-68 34 -132 88 -132 192c0 106 79 188 195 188c99 0 164 -46 198 -127l-105 -67c-19 55 -52 74 -93 74c-38 0 -71 -27 -71 -64c0 -58 68 -87 140 -120
c82 -38 159 -85 159 -203c0 -128 -93 -209 -224 -209z" />
    <glyph glyph-name="Sacute" unicode="&#x15a;" horiz-adv-x="531" 
d="M220 748l67 156h168l-145 -156h-90zM273 -8c-127 0 -219 89 -241 196l105 66c20 -78 62 -142 139 -142c52 0 91 24 91 83c0 62 -79 92 -161 133c-68 34 -132 88 -132 192c0 106 79 188 195 188c99 0 164 -46 198 -127l-105 -67c-19 55 -52 74 -93 74
c-38 0 -71 -27 -71 -64c0 -58 68 -87 140 -120c82 -38 159 -85 159 -203c0 -128 -93 -209 -224 -209z" />
    <glyph glyph-name="Scaron" unicode="&#x160;" horiz-adv-x="531" 
d="M253 756l-161 174h114l64 -69l64 69h114l-161 -174h-34zM273 -8c-127 0 -219 89 -241 196l105 66c20 -78 62 -142 139 -142c52 0 91 24 91 83c0 62 -79 92 -161 133c-68 34 -132 88 -132 192c0 106 79 188 195 188c99 0 164 -46 198 -127l-105 -67c-19 55 -52 74 -93 74
c-38 0 -71 -27 -71 -64c0 -58 68 -87 140 -120c82 -38 159 -85 159 -203c0 -128 -93 -209 -224 -209z" />
    <glyph glyph-name="Scedilla" unicode="&#x15e;" horiz-adv-x="531" 
d="M273 -8c-127 0 -219 89 -241 196l105 66c20 -78 62 -142 139 -142c52 0 91 24 91 83c0 62 -79 92 -161 133c-68 34 -132 88 -132 192c0 106 79 188 195 188c99 0 164 -46 198 -127l-105 -67c-19 55 -52 74 -93 74c-38 0 -71 -27 -71 -64c0 -58 68 -87 140 -120
c82 -38 159 -85 159 -203c0 -128 -93 -209 -224 -209zM235 -266l-148 66l141 140h90z" />
    <glyph glyph-name="Scircumflex" unicode="&#x15c;" horiz-adv-x="531" 
d="M92 756l161 174h34l161 -174h-114l-64 69l-64 -69h-114zM273 -8c-127 0 -219 89 -241 196l105 66c20 -78 62 -142 139 -142c52 0 91 24 91 83c0 62 -79 92 -161 133c-68 34 -132 88 -132 192c0 106 79 188 195 188c99 0 164 -46 198 -127l-105 -67c-19 55 -52 74 -93 74
c-38 0 -71 -27 -71 -64c0 -58 68 -87 140 -120c82 -38 159 -85 159 -203c0 -128 -93 -209 -224 -209z" />
    <glyph glyph-name="Scommaaccent" unicode="&#x218;" horiz-adv-x="531" 
d="M273 -8c-127 0 -219 89 -241 196l105 66c20 -78 62 -142 139 -142c52 0 91 24 91 83c0 62 -79 92 -161 133c-68 34 -132 88 -132 192c0 106 79 188 195 188c99 0 164 -46 198 -127l-105 -67c-19 55 -52 74 -93 74c-38 0 -71 -27 -71 -64c0 -58 68 -87 140 -120
c82 -38 159 -85 159 -203c0 -128 -93 -209 -224 -209zM153 -236l44 184h152l-130 -184h-66z" />
    <glyph glyph-name="uni1E9E" unicode="&#x1e9e;" horiz-adv-x="672" 
d="M393 -8c-31 0 -63 4 -114 17v120c47 -13 75 -17 99 -17c70 0 114 34 114 114c0 70 -38 124 -151 124h-19v34l89 196h-120c-48 0 -81 -33 -81 -99v-481h-130v492c0 137 93 208 211 208h277v-55l-101 -229c102 -12 159 -91 159 -185c0 -144 -90 -239 -233 -239z" />
    <glyph glyph-name="T" unicode="T" horiz-adv-x="568" 
d="M219 0v580h-195v120h520v-120h-195v-580h-130z" />
    <glyph glyph-name="Tbar" unicode="&#x166;" horiz-adv-x="568" 
d="M544 580h-195v-176h137v-108h-137v-296h-130v296h-137v108h137v176h-195v120h520v-120z" />
    <glyph glyph-name="Tcaron" unicode="&#x164;" horiz-adv-x="568" 
d="M267 756l-161 174h114l64 -69l64 69h114l-161 -174h-34zM219 0v580h-195v120h520v-120h-195v-580h-130z" />
    <glyph glyph-name="uni0162" unicode="&#x162;" horiz-adv-x="568" 
d="M219 0v580h-195v120h520v-120h-195v-580h-130zM246 -266l-148 66l141 140h90z" />
    <glyph glyph-name="uni021A" unicode="&#x21a;" horiz-adv-x="568" 
d="M219 0v580h-195v120h520v-120h-195v-580h-130zM164 -236l44 184h152l-130 -184h-66z" />
    <glyph glyph-name="U" unicode="U" horiz-adv-x="666" 
d="M333 -8c-153 0 -261 87 -261 274v434h130v-436c0 -102 43 -152 131 -152s131 50 131 152v436h130v-434c0 -187 -108 -274 -261 -274z" />
    <glyph glyph-name="Uacute" unicode="&#xda;" horiz-adv-x="666" 
d="M283 748l67 156h168l-145 -156h-90zM333 -8c-153 0 -261 87 -261 274v434h130v-436c0 -102 43 -152 131 -152s131 50 131 152v436h130v-434c0 -187 -108 -274 -261 -274z" />
    <glyph glyph-name="Ubreve" unicode="&#x16c;" horiz-adv-x="666" 
d="M341 787c-73 0 -118 51 -118 109h91c0 -16 11 -28 27 -28s27 12 27 28h91c0 -58 -45 -109 -118 -109zM333 -8c-153 0 -261 87 -261 274v434h130v-436c0 -102 43 -152 131 -152s131 50 131 152v436h130v-434c0 -187 -108 -274 -261 -274z" />
    <glyph glyph-name="Ucircumflex" unicode="&#xdb;" horiz-adv-x="666" 
d="M155 756l161 174h34l161 -174h-114l-64 69l-64 -69h-114zM333 -8c-153 0 -261 87 -261 274v434h130v-436c0 -102 43 -152 131 -152s131 50 131 152v436h130v-434c0 -187 -108 -274 -261 -274z" />
    <glyph glyph-name="Udieresis" unicode="&#xdc;" horiz-adv-x="666" 
d="M229 772c-42 0 -71 30 -71 71s29 71 71 71s71 -30 71 -71s-29 -71 -71 -71zM436 772c-42 0 -71 30 -71 71s29 71 71 71s71 -30 71 -71s-29 -71 -71 -71zM333 -8c-153 0 -261 87 -261 274v434h130v-436c0 -102 43 -152 131 -152s131 50 131 152v436h130v-434
c0 -187 -108 -274 -261 -274z" />
    <glyph glyph-name="Ugrave" unicode="&#xd9;" horiz-adv-x="666" 
d="M293 748l-145 156h168l67 -156h-90zM333 -8c-153 0 -261 87 -261 274v434h130v-436c0 -102 43 -152 131 -152s131 50 131 152v436h130v-434c0 -187 -108 -274 -261 -274z" />
    <glyph glyph-name="Uhungarumlaut" unicode="&#x170;" horiz-adv-x="666" 
d="M179 756l64 148h168l-138 -148h-94zM382 756l64 148h168l-138 -148h-94zM333 -8c-153 0 -261 87 -261 274v434h130v-436c0 -102 43 -152 131 -152s131 50 131 152v436h130v-434c0 -187 -108 -274 -261 -274z" />
    <glyph glyph-name="Umacron" unicode="&#x16a;" horiz-adv-x="666" 
d="M198 790v98h269v-98h-269zM333 -8c-153 0 -261 87 -261 274v434h130v-436c0 -102 43 -152 131 -152s131 50 131 152v436h130v-434c0 -187 -108 -274 -261 -274z" />
    <glyph glyph-name="Uogonek" unicode="&#x172;" horiz-adv-x="666" 
d="M464 700h130v-434c0 -155 -74 -241 -186 -266c-36 -29 -58 -57 -58 -78c0 -16 9 -26 26 -26c12 0 21 4 31 10l20 -76c-19 -10 -37 -15 -65 -15c-57 0 -97 33 -97 90c0 35 20 67 46 88c-141 8 -239 95 -239 273v434h130v-436c0 -102 43 -152 131 -152s131 50 131 152v436z
" />
    <glyph glyph-name="Uring" unicode="&#x16e;" horiz-adv-x="666" 
d="M332 749c-60 0 -106 43 -106 102s46 102 106 102s106 -43 106 -102s-46 -102 -106 -102zM332 819c18 0 32 13 32 32s-14 32 -32 32s-32 -13 -32 -32s14 -32 32 -32zM333 -8c-153 0 -261 87 -261 274v434h130v-436c0 -102 43 -152 131 -152s131 50 131 152v436h130v-434
c0 -187 -108 -274 -261 -274z" />
    <glyph glyph-name="Utilde" unicode="&#x168;" horiz-adv-x="666" 
d="M205 765l-65 55c23 51 72 87 123 87c66 0 85 -41 133 -41c22 0 45 17 64 43l65 -55c-23 -51 -72 -87 -123 -87c-66 0 -85 41 -133 41c-22 0 -45 -17 -64 -43zM333 -8c-153 0 -261 87 -261 274v434h130v-436c0 -102 43 -152 131 -152s131 50 131 152v436h130v-434
c0 -187 -108 -274 -261 -274z" />
    <glyph glyph-name="V" unicode="V" horiz-adv-x="622" 
d="M245 0l-235 700h144l157 -518l157 518h144l-235 -700h-132z" />
    <glyph glyph-name="W" unicode="W" horiz-adv-x="904" 
d="M193 0l-183 700h138l117 -515l131 441h112l131 -441l117 515h138l-183 -700h-132l-127 412l-127 -412h-132z" />
    <glyph glyph-name="Wacute" unicode="&#x1e82;" horiz-adv-x="904" 
d="M402 748l67 156h168l-145 -156h-90zM193 0l-183 700h138l117 -515l131 441h112l131 -441l117 515h138l-183 -700h-132l-127 412l-127 -412h-132z" />
    <glyph glyph-name="Wcircumflex" unicode="&#x174;" horiz-adv-x="904" 
d="M274 756l161 174h34l161 -174h-114l-64 69l-64 -69h-114zM193 0l-183 700h138l117 -515l131 441h112l131 -441l117 515h138l-183 -700h-132l-127 412l-127 -412h-132z" />
    <glyph glyph-name="Wdieresis" unicode="&#x1e84;" horiz-adv-x="904" 
d="M348 772c-42 0 -71 30 -71 71s29 71 71 71s71 -30 71 -71s-29 -71 -71 -71zM555 772c-42 0 -71 30 -71 71s29 71 71 71s71 -30 71 -71s-29 -71 -71 -71zM193 0l-183 700h138l117 -515l131 441h112l131 -441l117 515h138l-183 -700h-132l-127 412l-127 -412h-132z" />
    <glyph glyph-name="Wgrave" unicode="&#x1e80;" horiz-adv-x="904" 
d="M412 748l-145 156h168l67 -156h-90zM193 0l-183 700h138l117 -515l131 441h112l131 -441l117 515h138l-183 -700h-132l-127 412l-127 -412h-132z" />
    <glyph glyph-name="X" unicode="X" horiz-adv-x="604" 
d="M13 0l218 378l-185 322h142l114 -198l114 198h142l-185 -322l218 -378h-144l-145 253l-145 -253h-144z" />
    <glyph glyph-name="Y" unicode="Y" horiz-adv-x="552" 
d="M211 0v298l-202 402h140l127 -272l127 272h140l-202 -402v-298h-130z" />
    <glyph glyph-name="Yacute" unicode="&#xdd;" horiz-adv-x="552" 
d="M226 748l67 156h168l-145 -156h-90zM211 0v298l-202 402h140l127 -272l127 272h140l-202 -402v-298h-130z" />
    <glyph glyph-name="Ycircumflex" unicode="&#x176;" horiz-adv-x="552" 
d="M98 756l161 174h34l161 -174h-114l-64 69l-64 -69h-114zM211 0v298l-202 402h140l127 -272l127 272h140l-202 -402v-298h-130z" />
    <glyph glyph-name="Ydieresis" unicode="&#x178;" horiz-adv-x="552" 
d="M172 772c-42 0 -71 30 -71 71s29 71 71 71s71 -30 71 -71s-29 -71 -71 -71zM379 772c-42 0 -71 30 -71 71s29 71 71 71s71 -30 71 -71s-29 -71 -71 -71zM211 0v298l-202 402h140l127 -272l127 272h140l-202 -402v-298h-130z" />
    <glyph glyph-name="Ygrave" unicode="&#x1ef2;" horiz-adv-x="552" 
d="M236 748l-145 156h168l67 -156h-90zM211 0v298l-202 402h140l127 -272l127 272h140l-202 -402v-298h-130z" />
    <glyph glyph-name="Z" unicode="Z" horiz-adv-x="567" 
d="M36 0v60l303 520h-286v120h464v-60l-300 -520h314v-120h-495z" />
    <glyph glyph-name="Zacute" unicode="&#x179;" horiz-adv-x="567" 
d="M235 748l67 156h168l-145 -156h-90zM36 0v60l303 520h-286v120h464v-60l-300 -520h314v-120h-495z" />
    <glyph glyph-name="Zcaron" unicode="&#x17d;" horiz-adv-x="567" 
d="M268 756l-161 174h114l64 -69l64 69h114l-161 -174h-34zM36 0v60l303 520h-286v120h464v-60l-300 -520h314v-120h-495z" />
    <glyph glyph-name="Zdotaccent" unicode="&#x17b;" horiz-adv-x="567" 
d="M285 765c-46 0 -80 35 -80 80s34 80 80 80s80 -35 80 -80s-34 -80 -80 -80zM36 0v60l303 520h-286v120h464v-60l-300 -520h314v-120h-495z" />
    <glyph glyph-name="uni01B5" unicode="&#x1b5;" horiz-adv-x="567" 
d="M217 120h314v-120h-495v60l138 236h-91v108h153l103 176h-286v120h464v-60l-136 -236h103v-108h-165z" />
    <glyph glyph-name="Gcommaaccent.ss02" horiz-adv-x="728" 
d="M369 -8c-169 0 -323 119 -323 358s160 358 333 358c156 0 255 -93 291 -221l-119 -31c-33 80 -87 132 -172 132c-112 0 -201 -75 -201 -238c0 -168 89 -238 198 -238c103 0 149 70 157 133h-130v108h256v-353h-109l-11 75c-27 -41 -80 -83 -170 -83zM321 -296l-18 24
c33 23 52 55 60 93c-36 14 -51 41 -51 66c0 35 28 67 70 67s70 -32 70 -73c0 -78 -59 -131 -131 -177z" />
    <glyph glyph-name="Kcommaaccent.ss02" horiz-adv-x="639" 
d="M80 0v700h130v-260l239 260h160l-284 -313l304 -387h-165l-254 334v-334h-130zM279 -296l-18 24c33 23 52 55 60 93c-36 14 -51 41 -51 66c0 35 28 67 70 67s70 -32 70 -73c0 -78 -59 -131 -131 -177z" />
    <glyph glyph-name="Lcaron.ss02" horiz-adv-x="541" 
d="M378 534l-18 24c33 23 52 55 60 93c-36 14 -51 41 -51 66c0 35 28 67 70 67s70 -32 70 -73c0 -78 -59 -131 -131 -177zM80 0v700h130v-580h297v-120h-427z" />
    <glyph glyph-name="Lcommaaccent.ss02" horiz-adv-x="541" 
d="M80 0v700h130v-580h297v-120h-427zM239 -296l-18 24c33 23 52 55 60 93c-36 14 -51 41 -51 66c0 35 28 67 70 67s70 -32 70 -73c0 -78 -59 -131 -131 -177z" />
    <glyph glyph-name="Ncommaaccent.ss02" horiz-adv-x="684" 
d="M80 0v700h137l257 -462v462h130v-700h-137l-257 462v-462h-130zM285 -296l-18 24c33 23 52 55 60 93c-36 14 -51 41 -51 66c0 35 28 67 70 67s70 -32 70 -73c0 -78 -59 -131 -131 -177z" />
    <glyph glyph-name="Rcommaaccent.ss02" horiz-adv-x="633" 
d="M80 0v700h255c140 0 213 -83 213 -199c0 -92 -46 -162 -131 -188l194 -313h-145l-188 302h-68v-302h-130zM210 422h126c47 0 82 22 82 79s-35 79 -82 79h-126v-158zM280 -296l-18 24c33 23 52 55 60 93c-36 14 -51 41 -51 66c0 35 28 67 70 67s70 -32 70 -73
c0 -78 -59 -131 -131 -177z" />
    <glyph glyph-name="Scommaaccent.ss02" horiz-adv-x="531" 
d="M273 -8c-127 0 -219 89 -241 196l105 66c20 -78 62 -142 139 -142c52 0 91 24 91 83c0 62 -79 92 -161 133c-68 34 -132 88 -132 192c0 106 79 188 195 188c99 0 164 -46 198 -127l-105 -67c-19 55 -52 74 -93 74c-38 0 -71 -27 -71 -64c0 -58 68 -87 140 -120
c82 -38 159 -85 159 -203c0 -128 -93 -209 -224 -209zM216 -296l-18 24c33 23 52 55 60 93c-36 14 -51 41 -51 66c0 35 28 67 70 67s70 -32 70 -73c0 -78 -59 -131 -131 -177z" />
    <glyph glyph-name="uni021A.ss02" horiz-adv-x="568" 
d="M219 0v580h-195v120h520v-120h-195v-580h-130zM227 -296l-18 24c33 23 52 55 60 93c-36 14 -51 41 -51 66c0 35 28 67 70 67s70 -32 70 -73c0 -78 -59 -131 -131 -177z" />
    <glyph glyph-name="a" unicode="a" horiz-adv-x="527" 
d="M197 -8c-86 0 -153 53 -153 153s82 165 211 165h88v22c0 53 -42 74 -88 74c-40 0 -71 -16 -87 -58l-105 24c16 83 91 140 192 140c133 0 212 -70 212 -211v-301h-102l-13 64c-35 -43 -83 -72 -155 -72zM230 98c56 0 113 39 113 104v10h-83c-53 0 -86 -20 -86 -65
c0 -29 23 -49 56 -49z" />
    <glyph glyph-name="aacute" unicode="&#xe1;" horiz-adv-x="527" 
d="M207 552l67 156h168l-145 -156h-90zM197 -8c-86 0 -153 53 -153 153s82 165 211 165h88v22c0 53 -42 74 -88 74c-40 0 -71 -16 -87 -58l-105 24c16 83 91 140 192 140c133 0 212 -70 212 -211v-301h-102l-13 64c-35 -43 -83 -72 -155 -72zM230 98c56 0 113 39 113 104v10
h-83c-53 0 -86 -20 -86 -65c0 -29 23 -49 56 -49z" />
    <glyph glyph-name="abreve" unicode="&#x103;" horiz-adv-x="527" 
d="M265 591c-73 0 -118 51 -118 109h91c0 -16 11 -28 27 -28s27 12 27 28h91c0 -58 -45 -109 -118 -109zM197 -8c-86 0 -153 53 -153 153s82 165 211 165h88v22c0 53 -42 74 -88 74c-40 0 -71 -16 -87 -58l-105 24c16 83 91 140 192 140c133 0 212 -70 212 -211v-301h-102
l-13 64c-35 -43 -83 -72 -155 -72zM230 98c56 0 113 39 113 104v10h-83c-53 0 -86 -20 -86 -65c0 -29 23 -49 56 -49z" />
    <glyph glyph-name="acircumflex" unicode="&#xe2;" horiz-adv-x="527" 
d="M79 560l161 174h34l161 -174h-114l-64 69l-64 -69h-114zM197 -8c-86 0 -153 53 -153 153s82 165 211 165h88v22c0 53 -42 74 -88 74c-40 0 -71 -16 -87 -58l-105 24c16 83 91 140 192 140c133 0 212 -70 212 -211v-301h-102l-13 64c-35 -43 -83 -72 -155 -72zM230 98
c56 0 113 39 113 104v10h-83c-53 0 -86 -20 -86 -65c0 -29 23 -49 56 -49z" />
    <glyph glyph-name="adieresis" unicode="&#xe4;" horiz-adv-x="527" 
d="M153 576c-42 0 -71 30 -71 71s29 71 71 71s71 -30 71 -71s-29 -71 -71 -71zM360 576c-42 0 -71 30 -71 71s29 71 71 71s71 -30 71 -71s-29 -71 -71 -71zM197 -8c-86 0 -153 53 -153 153s82 165 211 165h88v22c0 53 -42 74 -88 74c-40 0 -71 -16 -87 -58l-105 24
c16 83 91 140 192 140c133 0 212 -70 212 -211v-301h-102l-13 64c-35 -43 -83 -72 -155 -72zM230 98c56 0 113 39 113 104v10h-83c-53 0 -86 -20 -86 -65c0 -29 23 -49 56 -49z" />
    <glyph glyph-name="agrave" unicode="&#xe0;" horiz-adv-x="527" 
d="M217 552l-145 156h168l67 -156h-90zM197 -8c-86 0 -153 53 -153 153s82 165 211 165h88v22c0 53 -42 74 -88 74c-40 0 -71 -16 -87 -58l-105 24c16 83 91 140 192 140c133 0 212 -70 212 -211v-301h-102l-13 64c-35 -43 -83 -72 -155 -72zM230 98c56 0 113 39 113 104v10
h-83c-53 0 -86 -20 -86 -65c0 -29 23 -49 56 -49z" />
    <glyph glyph-name="amacron" unicode="&#x101;" horiz-adv-x="527" 
d="M122 594v98h269v-98h-269zM197 -8c-86 0 -153 53 -153 153s82 165 211 165h88v22c0 53 -42 74 -88 74c-40 0 -71 -16 -87 -58l-105 24c16 83 91 140 192 140c133 0 212 -70 212 -211v-301h-102l-13 64c-35 -43 -83 -72 -155 -72zM230 98c56 0 113 39 113 104v10h-83
c-53 0 -86 -20 -86 -65c0 -29 23 -49 56 -49z" />
    <glyph glyph-name="aogonek" unicode="&#x105;" horiz-adv-x="547" 
d="M466 -94l20 -76c-19 -10 -37 -15 -65 -15c-57 0 -97 33 -97 90c0 39 25 75 57 95h-16l-13 64c-35 -43 -83 -72 -155 -72c-86 0 -153 53 -153 153s82 165 211 165h88v22c0 53 -42 74 -88 74c-40 0 -71 -16 -87 -58l-105 24c16 83 91 140 192 140c133 0 212 -70 212 -211
v-301c-36 -29 -58 -57 -58 -78c0 -16 9 -26 26 -26c12 0 21 4 31 10zM343 202v10h-83c-53 0 -86 -20 -86 -65c0 -29 23 -49 56 -49c56 0 113 39 113 104z" />
    <glyph glyph-name="aring" unicode="&#xe5;" horiz-adv-x="527" 
d="M256 553c-60 0 -106 43 -106 102s46 102 106 102s106 -43 106 -102s-46 -102 -106 -102zM256 623c18 0 32 13 32 32s-14 32 -32 32s-32 -13 -32 -32s14 -32 32 -32zM197 -8c-86 0 -153 53 -153 153s82 165 211 165h88v22c0 53 -42 74 -88 74c-40 0 -71 -16 -87 -58
l-105 24c16 83 91 140 192 140c133 0 212 -70 212 -211v-301h-102l-13 64c-35 -43 -83 -72 -155 -72zM230 98c56 0 113 39 113 104v10h-83c-53 0 -86 -20 -86 -65c0 -29 23 -49 56 -49z" />
    <glyph glyph-name="aringacute" unicode="&#x1fb;" horiz-adv-x="527" 
d="M207 789l67 156h168l-145 -156h-90zM256 553c-60 0 -106 43 -106 102s46 102 106 102s106 -43 106 -102s-46 -102 -106 -102zM256 623c18 0 32 13 32 32s-14 32 -32 32s-32 -13 -32 -32s14 -32 32 -32zM197 -8c-86 0 -153 53 -153 153s82 165 211 165h88v22
c0 53 -42 74 -88 74c-40 0 -71 -16 -87 -58l-105 24c16 83 91 140 192 140c133 0 212 -70 212 -211v-301h-102l-13 64c-35 -43 -83 -72 -155 -72zM230 98c56 0 113 39 113 104v10h-83c-53 0 -86 -20 -86 -65c0 -29 23 -49 56 -49z" />
    <glyph glyph-name="atilde" unicode="&#xe3;" horiz-adv-x="527" 
d="M129 569l-65 55c23 51 72 87 123 87c66 0 85 -41 133 -41c22 0 45 17 64 43l65 -55c-23 -51 -72 -87 -123 -87c-66 0 -85 41 -133 41c-22 0 -45 -17 -64 -43zM197 -8c-86 0 -153 53 -153 153s82 165 211 165h88v22c0 53 -42 74 -88 74c-40 0 -71 -16 -87 -58l-105 24
c16 83 91 140 192 140c133 0 212 -70 212 -211v-301h-102l-13 64c-35 -43 -83 -72 -155 -72zM230 98c56 0 113 39 113 104v10h-83c-53 0 -86 -20 -86 -65c0 -29 23 -49 56 -49z" />
    <glyph glyph-name="ae" unicode="&#xe6;" horiz-adv-x="862" 
d="M197 -8c-85 0 -153 53 -153 153s88 165 215 165h84v22c0 56 -42 74 -88 74c-35 0 -71 -11 -87 -58l-105 24c16 83 89 140 192 140c68 0 128 -17 166 -61c39 37 92 61 164 61c168 0 235 -139 235 -249v-51h-347c3 -56 42 -114 119 -114c57 0 92 26 122 78l100 -37
c-39 -89 -107 -147 -229 -147c-98 0 -162 45 -200 105c-53 -80 -117 -105 -188 -105zM475 310h218c-11 50 -42 96 -108 96c-63 0 -101 -48 -110 -96zM226 98c57 0 117 39 117 104v10h-83c-53 0 -86 -21 -86 -65c0 -24 17 -49 52 -49z" />
    <glyph glyph-name="aeacute" unicode="&#x1fd;" horiz-adv-x="862" 
d="M377 552l67 156h168l-145 -156h-90zM197 -8c-85 0 -153 53 -153 153s88 165 215 165h84v22c0 56 -42 74 -88 74c-35 0 -71 -11 -87 -58l-105 24c16 83 89 140 192 140c68 0 128 -17 166 -61c39 37 92 61 164 61c168 0 235 -139 235 -249v-51h-347c3 -56 42 -114 119 -114
c57 0 92 26 122 78l100 -37c-39 -89 -107 -147 -229 -147c-98 0 -162 45 -200 105c-53 -80 -117 -105 -188 -105zM475 310h218c-11 50 -42 96 -108 96c-63 0 -101 -48 -110 -96zM226 98c57 0 117 39 117 104v10h-83c-53 0 -86 -21 -86 -65c0 -24 17 -49 52 -49z" />
    <glyph glyph-name="b" unicode="b" horiz-adv-x="588" 
d="M316 -8c-62 0 -108 34 -122 60v-52h-124v708h124v-250c22 28 71 54 122 54c152 0 230 -105 230 -260s-78 -260 -230 -260zM299 98c65 0 117 54 117 154s-52 154 -117 154s-116 -54 -116 -154s51 -154 116 -154z" />
    <glyph glyph-name="c" unicode="c" horiz-adv-x="553" 
d="M288 -8c-164 0 -246 118 -246 260s82 260 246 260c112 0 191 -49 229 -144l-111 -45c-26 53 -62 83 -118 83c-78 0 -116 -65 -116 -154s38 -154 116 -154c56 0 92 30 118 83l111 -45c-38 -95 -117 -144 -229 -144z" />
    <glyph glyph-name="cacute" unicode="&#x107;" horiz-adv-x="553" 
d="M239 552l67 156h168l-145 -156h-90zM288 -8c-164 0 -246 118 -246 260s82 260 246 260c112 0 191 -49 229 -144l-111 -45c-26 53 -62 83 -118 83c-78 0 -116 -65 -116 -154s38 -154 116 -154c56 0 92 30 118 83l111 -45c-38 -95 -117 -144 -229 -144z" />
    <glyph glyph-name="ccaron" unicode="&#x10d;" horiz-adv-x="553" 
d="M272 560l-161 174h114l64 -69l64 69h114l-161 -174h-34zM288 -8c-164 0 -246 118 -246 260s82 260 246 260c112 0 191 -49 229 -144l-111 -45c-26 53 -62 83 -118 83c-78 0 -116 -65 -116 -154s38 -154 116 -154c56 0 92 30 118 83l111 -45c-38 -95 -117 -144 -229 -144z
" />
    <glyph glyph-name="ccedilla" unicode="&#xe7;" horiz-adv-x="553" 
d="M288 -8c-164 0 -246 118 -246 260s82 260 246 260c112 0 191 -49 229 -144l-111 -45c-26 53 -62 83 -118 83c-78 0 -116 -65 -116 -154s38 -154 116 -154c56 0 92 30 118 83l111 -45c-38 -95 -117 -144 -229 -144zM257 -266l-148 66l141 140h90z" />
    <glyph glyph-name="ccircumflex" unicode="&#x109;" horiz-adv-x="553" 
d="M111 560l161 174h34l161 -174h-114l-64 69l-64 -69h-114zM288 -8c-164 0 -246 118 -246 260s82 260 246 260c112 0 191 -49 229 -144l-111 -45c-26 53 -62 83 -118 83c-78 0 -116 -65 -116 -154s38 -154 116 -154c56 0 92 30 118 83l111 -45c-38 -95 -117 -144 -229 -144
z" />
    <glyph glyph-name="cdotaccent" unicode="&#x10b;" horiz-adv-x="553" 
d="M289 569c-46 0 -80 35 -80 80s34 80 80 80s80 -35 80 -80s-34 -80 -80 -80zM288 -8c-164 0 -246 118 -246 260s82 260 246 260c112 0 191 -49 229 -144l-111 -45c-26 53 -62 83 -118 83c-78 0 -116 -65 -116 -154s38 -154 116 -154c56 0 92 30 118 83l111 -45
c-38 -95 -117 -144 -229 -144z" />
    <glyph glyph-name="d" unicode="d" horiz-adv-x="588" 
d="M262 -8c-142 0 -220 105 -220 260s78 260 220 260c61 0 110 -26 132 -54v250h124v-708h-124v52c-14 -26 -60 -60 -132 -60zM289 98c65 0 116 54 116 154s-51 154 -116 154s-117 -54 -117 -154s52 -154 117 -154z" />
    <glyph glyph-name="eth" unicode="&#xf0;" horiz-adv-x="582" 
d="M291 -8c-162 0 -249 114 -249 260s87 260 249 260c29 0 58 -8 81 -20c-20 35 -47 64 -82 89l-32 -47l-75 53l29 42c-29 15 -53 27 -86 39l62 91c30 -13 58 -27 84 -42l33 48l76 -52l-32 -47c128 -91 191 -211 191 -390c0 -167 -88 -284 -249 -284zM291 98
c80 0 119 71 119 154c-1 83 -39 154 -119 154s-119 -71 -119 -154s39 -154 119 -154z" />
    <glyph glyph-name="dcaron" unicode="&#x10f;" horiz-adv-x="740" 
d="M579 542l25 184h136l-82 -184h-79zM262 -8c-142 0 -220 105 -220 260s78 260 220 260c61 0 110 -26 132 -54v250h124v-708h-124v52c-14 -26 -60 -60 -132 -60zM289 98c65 0 116 54 116 154s-51 154 -116 154s-117 -54 -117 -154s52 -154 117 -154z" />
    <glyph glyph-name="dcroat" unicode="&#x111;" horiz-adv-x="588" 
d="M574 652v-92h-56v-560h-124v52c-14 -26 -60 -60 -132 -60c-142 0 -220 105 -220 260s78 260 220 260c61 0 110 -26 132 -54v102h-127v92h127v56h124v-56h56zM289 98c65 0 116 54 116 154s-51 154 -116 154s-117 -54 -117 -154s52 -154 117 -154z" />
    <glyph glyph-name="e" unicode="e" horiz-adv-x="561" 
d="M284 -8c-173 0 -242 141 -242 260s69 260 242 260c168 0 235 -139 235 -249v-51h-347c3 -56 42 -114 119 -114c57 0 92 26 122 78l100 -37c-39 -89 -107 -147 -229 -147zM175 310h217c-11 50 -42 96 -108 96c-63 0 -100 -48 -109 -96z" />
    <glyph glyph-name="eacute" unicode="&#xe9;" horiz-adv-x="561" 
d="M235 552l67 156h168l-145 -156h-90zM284 -8c-173 0 -242 141 -242 260s69 260 242 260c168 0 235 -139 235 -249v-51h-347c3 -56 42 -114 119 -114c57 0 92 26 122 78l100 -37c-39 -89 -107 -147 -229 -147zM175 310h217c-11 50 -42 96 -108 96c-63 0 -100 -48 -109 -96z
" />
    <glyph glyph-name="ebreve" unicode="&#x115;" horiz-adv-x="561" 
d="M293 591c-73 0 -118 51 -118 109h91c0 -16 11 -28 27 -28s27 12 27 28h91c0 -58 -45 -109 -118 -109zM284 -8c-173 0 -242 141 -242 260s69 260 242 260c168 0 235 -139 235 -249v-51h-347c3 -56 42 -114 119 -114c57 0 92 26 122 78l100 -37
c-39 -89 -107 -147 -229 -147zM175 310h217c-11 50 -42 96 -108 96c-63 0 -100 -48 -109 -96z" />
    <glyph glyph-name="ecaron" unicode="&#x11b;" horiz-adv-x="561" 
d="M268 560l-161 174h114l64 -69l64 69h114l-161 -174h-34zM284 -8c-173 0 -242 141 -242 260s69 260 242 260c168 0 235 -139 235 -249v-51h-347c3 -56 42 -114 119 -114c57 0 92 26 122 78l100 -37c-39 -89 -107 -147 -229 -147zM175 310h217c-11 50 -42 96 -108 96
c-63 0 -100 -48 -109 -96z" />
    <glyph glyph-name="ecircumflex" unicode="&#xea;" horiz-adv-x="561" 
d="M107 560l161 174h34l161 -174h-114l-64 69l-64 -69h-114zM284 -8c-173 0 -242 141 -242 260s69 260 242 260c168 0 235 -139 235 -249v-51h-347c3 -56 42 -114 119 -114c57 0 92 26 122 78l100 -37c-39 -89 -107 -147 -229 -147zM175 310h217c-11 50 -42 96 -108 96
c-63 0 -100 -48 -109 -96z" />
    <glyph glyph-name="edieresis" unicode="&#xeb;" horiz-adv-x="561" 
d="M181 576c-42 0 -71 30 -71 71s29 71 71 71s71 -30 71 -71s-29 -71 -71 -71zM388 576c-42 0 -71 30 -71 71s29 71 71 71s71 -30 71 -71s-29 -71 -71 -71zM284 -8c-173 0 -242 141 -242 260s69 260 242 260c168 0 235 -139 235 -249v-51h-347c3 -56 42 -114 119 -114
c57 0 92 26 122 78l100 -37c-39 -89 -107 -147 -229 -147zM175 310h217c-11 50 -42 96 -108 96c-63 0 -100 -48 -109 -96z" />
    <glyph glyph-name="edotaccent" unicode="&#x117;" horiz-adv-x="561" 
d="M285 569c-46 0 -80 35 -80 80s34 80 80 80s80 -35 80 -80s-34 -80 -80 -80zM284 -8c-173 0 -242 141 -242 260s69 260 242 260c168 0 235 -139 235 -249v-51h-347c3 -56 42 -114 119 -114c57 0 92 26 122 78l100 -37c-39 -89 -107 -147 -229 -147zM175 310h217
c-11 50 -42 96 -108 96c-63 0 -100 -48 -109 -96z" />
    <glyph glyph-name="egrave" unicode="&#xe8;" horiz-adv-x="561" 
d="M245 552l-145 156h168l67 -156h-90zM284 -8c-173 0 -242 141 -242 260s69 260 242 260c168 0 235 -139 235 -249v-51h-347c3 -56 42 -114 119 -114c57 0 92 26 122 78l100 -37c-39 -89 -107 -147 -229 -147zM175 310h217c-11 50 -42 96 -108 96c-63 0 -100 -48 -109 -96z
" />
    <glyph glyph-name="emacron" unicode="&#x113;" horiz-adv-x="561" 
d="M150 594v98h269v-98h-269zM284 -8c-173 0 -242 141 -242 260s69 260 242 260c168 0 235 -139 235 -249v-51h-347c3 -56 42 -114 119 -114c57 0 92 26 122 78l100 -37c-39 -89 -107 -147 -229 -147zM175 310h217c-11 50 -42 96 -108 96c-63 0 -100 -48 -109 -96z" />
    <glyph glyph-name="eogonek" unicode="&#x119;" horiz-adv-x="561" 
d="M519 263v-51h-347c3 -56 42 -114 119 -114c57 0 92 26 122 78l100 -37c-31 -70 -79 -120 -157 -139c-36 -29 -58 -57 -58 -78c0 -16 9 -26 26 -26c12 0 21 4 31 10l20 -76c-19 -10 -37 -15 -65 -15c-57 0 -97 33 -97 90c0 35 20 67 47 88c-155 12 -218 146 -218 259
c0 119 69 260 242 260c168 0 235 -139 235 -249zM175 310h217c-11 50 -42 96 -108 96c-63 0 -100 -48 -109 -96z" />
    <glyph glyph-name="f" unicode="f" horiz-adv-x="343" 
d="M73 0v398h-64v106h64v26c0 123 70 178 174 178c39 0 72 -8 94 -20l-27 -100c-21 9 -39 14 -60 14c-35 0 -57 -18 -57 -63v-35h106v-106h-106v-398h-124z" />
    <glyph glyph-name="g" unicode="g" horiz-adv-x="509" 
d="M259 -212c-129 0 -228 56 -228 166c0 41 15 76 41 100c-16 19 -26 46 -26 78c0 48 25 84 62 106c-22 27 -35 62 -35 104c0 105 83 170 185 170c34 0 65 -8 93 -22l95 50l49 -82l-72 -36c13 -23 20 -50 20 -80c0 -106 -83 -168 -185 -168c-26 0 -51 4 -73 11
c-15 -9 -24 -22 -24 -38c0 -24 17 -37 47 -37h103c106 0 177 -51 177 -148c0 -124 -117 -174 -229 -174zM258 274c40 0 69 27 69 68c0 42 -29 70 -69 70s-69 -28 -69 -70c0 -41 29 -68 69 -68zM259 -108c59 0 105 17 105 62c0 42 -34 52 -81 52h-68c-21 0 -40 1 -58 4
c-8 -12 -11 -27 -11 -46c0 -48 48 -72 113 -72z" />
    <glyph glyph-name="gbreve" unicode="&#x11f;" horiz-adv-x="509" 
d="M267 591c-73 0 -118 51 -118 109h91c0 -16 11 -28 27 -28s27 12 27 28h91c0 -58 -45 -109 -118 -109zM259 -212c-129 0 -228 56 -228 166c0 41 15 76 41 100c-16 19 -26 46 -26 78c0 48 25 84 62 106c-22 27 -35 62 -35 104c0 105 83 170 185 170c34 0 65 -8 93 -22
l95 50l49 -82l-72 -36c13 -23 20 -50 20 -80c0 -106 -83 -168 -185 -168c-26 0 -51 4 -73 11c-15 -9 -24 -22 -24 -38c0 -24 17 -37 47 -37h103c106 0 177 -51 177 -148c0 -124 -117 -174 -229 -174zM258 274c40 0 69 27 69 68c0 42 -29 70 -69 70s-69 -28 -69 -70
c0 -41 29 -68 69 -68zM259 -108c59 0 105 17 105 62c0 42 -34 52 -81 52h-68c-21 0 -40 1 -58 4c-8 -12 -11 -27 -11 -46c0 -48 48 -72 113 -72z" />
    <glyph glyph-name="gcircumflex" unicode="&#x11d;" horiz-adv-x="509" 
d="M81 560l161 174h34l161 -174h-114l-64 69l-64 -69h-114zM259 -212c-129 0 -228 56 -228 166c0 41 15 76 41 100c-16 19 -26 46 -26 78c0 48 25 84 62 106c-22 27 -35 62 -35 104c0 105 83 170 185 170c34 0 65 -8 93 -22l95 50l49 -82l-72 -36c13 -23 20 -50 20 -80
c0 -106 -83 -168 -185 -168c-26 0 -51 4 -73 11c-15 -9 -24 -22 -24 -38c0 -24 17 -37 47 -37h103c106 0 177 -51 177 -148c0 -124 -117 -174 -229 -174zM258 274c40 0 69 27 69 68c0 42 -29 70 -69 70s-69 -28 -69 -70c0 -41 29 -68 69 -68zM259 -108c59 0 105 17 105 62
c0 42 -34 52 -81 52h-68c-21 0 -40 1 -58 4c-8 -12 -11 -27 -11 -46c0 -48 48 -72 113 -72z" />
    <glyph glyph-name="gcommaaccent" unicode="&#x123;" horiz-adv-x="509" 
d="M191 586l99 168h80l-43 -168h-136zM259 -212c-129 0 -228 56 -228 166c0 41 15 76 41 100c-16 19 -26 46 -26 78c0 48 25 84 62 106c-22 27 -35 62 -35 104c0 105 83 170 185 170c34 0 65 -8 93 -22l95 50l49 -82l-72 -36c13 -23 20 -50 20 -80
c0 -106 -83 -168 -185 -168c-26 0 -51 4 -73 11c-15 -9 -24 -22 -24 -38c0 -24 17 -37 47 -37h103c106 0 177 -51 177 -148c0 -124 -117 -174 -229 -174zM258 274c40 0 69 27 69 68c0 42 -29 70 -69 70s-69 -28 -69 -70c0 -41 29 -68 69 -68zM259 -108c59 0 105 17 105 62
c0 42 -34 52 -81 52h-68c-21 0 -40 1 -58 4c-8 -12 -11 -27 -11 -46c0 -48 48 -72 113 -72z" />
    <glyph glyph-name="gdotaccent" unicode="&#x121;" horiz-adv-x="509" 
d="M259 569c-46 0 -80 35 -80 80s34 80 80 80s80 -35 80 -80s-34 -80 -80 -80zM259 -212c-129 0 -228 56 -228 166c0 41 15 76 41 100c-16 19 -26 46 -26 78c0 48 25 84 62 106c-22 27 -35 62 -35 104c0 105 83 170 185 170c34 0 65 -8 93 -22l95 50l49 -82l-72 -36
c13 -23 20 -50 20 -80c0 -106 -83 -168 -185 -168c-26 0 -51 4 -73 11c-15 -9 -24 -22 -24 -38c0 -24 17 -37 47 -37h103c106 0 177 -51 177 -148c0 -124 -117 -174 -229 -174zM258 274c40 0 69 27 69 68c0 42 -29 70 -69 70s-69 -28 -69 -70c0 -41 29 -68 69 -68zM259 -108
c59 0 105 17 105 62c0 42 -34 52 -81 52h-68c-21 0 -40 1 -58 4c-8 -12 -11 -27 -11 -46c0 -48 48 -72 113 -72z" />
    <glyph glyph-name="h" unicode="h" horiz-adv-x="581" 
d="M70 0v708h124v-285c32 51 87 89 160 89c95 0 157 -49 157 -152v-360h-124v316c0 61 -24 90 -75 90c-57 0 -118 -57 -118 -193v-213h-124z" />
    <glyph glyph-name="hbar" unicode="&#x127;" horiz-adv-x="581" 
d="M354 512c95 0 157 -49 157 -152v-360h-124v316c0 61 -24 90 -75 90c-57 0 -118 -57 -118 -193v-213h-124v560h-57v92h57v56h124v-56h126v-92h-126v-137c32 51 87 89 160 89z" />
    <glyph glyph-name="hcircumflex" unicode="&#x125;" horiz-adv-x="581" 
d="M70 756l161 174h34l161 -174h-114l-64 69l-64 -69h-114zM70 0v708h124v-285c32 51 87 89 160 89c95 0 157 -49 157 -152v-360h-124v316c0 61 -24 90 -75 90c-57 0 -118 -57 -118 -193v-213h-124z" />
    <glyph glyph-name="i" unicode="i" horiz-adv-x="264" 
d="M132 569c-46 0 -80 35 -80 80s34 80 80 80s80 -35 80 -80s-34 -80 -80 -80zM70 0v504h124v-504h-124z" />
    <glyph glyph-name="dotlessi" unicode="&#x131;" horiz-adv-x="264" 
d="M70 0v504h124v-504h-124z" />
    <glyph glyph-name="iacute" unicode="&#xed;" horiz-adv-x="264" 
d="M82 552l67 156h168l-145 -156h-90zM70 0v504h124v-504h-124z" />
    <glyph glyph-name="ibreve" unicode="&#x12d;" horiz-adv-x="264" 
d="M140 591c-73 0 -118 51 -118 109h91c0 -16 11 -28 27 -28s27 12 27 28h91c0 -58 -45 -109 -118 -109zM70 0v504h124v-504h-124z" />
    <glyph glyph-name="icircumflex" unicode="&#xee;" horiz-adv-x="264" 
d="M-46 560l161 174h34l161 -174h-114l-64 69l-64 -69h-114zM70 0v504h124v-504h-124z" />
    <glyph glyph-name="idieresis" unicode="&#xef;" horiz-adv-x="264" 
d="M28 576c-42 0 -71 30 -71 71s29 71 71 71s71 -30 71 -71s-29 -71 -71 -71zM235 576c-42 0 -71 30 -71 71s29 71 71 71s71 -30 71 -71s-29 -71 -71 -71zM70 0v504h124v-504h-124z" />
    <glyph glyph-name="i.loclTRK" horiz-adv-x="264" 
d="M132 569c-46 0 -80 35 -80 80s34 80 80 80s80 -35 80 -80s-34 -80 -80 -80zM70 0v504h124v-504h-124z" />
    <glyph glyph-name="igrave" unicode="&#xec;" horiz-adv-x="264" 
d="M92 552l-145 156h168l67 -156h-90zM70 0v504h124v-504h-124z" />
    <glyph glyph-name="ij" unicode="&#x133;" horiz-adv-x="528" 
d="M132 569c-46 0 -80 35 -80 80s34 80 80 80s80 -35 80 -80s-34 -80 -80 -80zM396 569c-46 0 -80 35 -80 80s34 80 80 80s80 -35 80 -80s-34 -80 -80 -80zM70 0v504h124v-504h-124zM247 -212l-30 109c73 18 117 52 117 146v461h124v-446c0 -161 -70 -237 -211 -270z" />
    <glyph glyph-name="imacron" unicode="&#x12b;" horiz-adv-x="264" 
d="M-3 594v98h269v-98h-269zM70 0v504h124v-504h-124z" />
    <glyph glyph-name="iogonek" unicode="&#x12f;" horiz-adv-x="264" 
d="M132 569c-46 0 -80 35 -80 80s34 80 80 80s80 -35 80 -80s-34 -80 -80 -80zM193 -94l20 -76c-19 -10 -37 -15 -65 -15c-57 0 -97 33 -97 90c0 39 25 75 57 95h-38v504h124v-504c-36 -29 -58 -57 -58 -78c0 -16 9 -26 26 -26c12 0 21 4 31 10z" />
    <glyph glyph-name="itilde" unicode="&#x129;" horiz-adv-x="264" 
d="M4 569l-65 55c23 51 72 87 123 87c66 0 85 -41 133 -41c22 0 45 17 64 43l65 -55c-23 -51 -72 -87 -123 -87c-66 0 -85 41 -133 41c-22 0 -45 -17 -64 -43zM70 0v504h124v-504h-124z" />
    <glyph glyph-name="j" unicode="j" horiz-adv-x="264" 
d="M132 569c-46 0 -80 35 -80 80s34 80 80 80s80 -35 80 -80s-34 -80 -80 -80zM-17 -212l-30 109c73 18 117 52 117 146v461h124v-446c0 -161 -70 -237 -211 -270z" />
    <glyph glyph-name="uni0237" unicode="&#x237;" horiz-adv-x="264" 
d="M-17 -212l-30 109c73 18 117 52 117 146v461h124v-446c0 -161 -70 -237 -211 -270z" />
    <glyph glyph-name="jcircumflex" unicode="&#x135;" horiz-adv-x="264" 
d="M-46 560l161 174h34l161 -174h-114l-64 69l-64 -69h-114zM-17 -212l-30 109c73 18 117 52 117 146v461h124v-446c0 -161 -70 -237 -211 -270z" />
    <glyph glyph-name="k" unicode="k" horiz-adv-x="530" 
d="M70 0v708h124v-402l164 198h153l-202 -232l215 -272h-152l-178 238v-238h-124z" />
    <glyph glyph-name="kcommaaccent" unicode="&#x137;" horiz-adv-x="530" 
d="M70 0v708h124v-402l164 198h153l-202 -232l215 -272h-152l-178 238v-238h-124zM164 -236l44 184h152l-130 -184h-66z" />
    <glyph glyph-name="kgreenlandic" unicode="&#x138;" horiz-adv-x="530" 
d="M70 0v504h124v-198l164 198h153l-202 -232l215 -272h-152l-178 238v-238h-124z" />
    <glyph glyph-name="l" unicode="l" horiz-adv-x="264" 
d="M70 0v708h124v-708h-124z" />
    <glyph glyph-name="lacute" unicode="&#x13a;" horiz-adv-x="264" 
d="M82 748l67 156h168l-145 -156h-90zM70 0v708h124v-708h-124z" />
    <glyph glyph-name="lcaron" unicode="&#x13e;" horiz-adv-x="405" 
d="M244 542l25 184h136l-82 -184h-79zM70 0v708h124v-708h-124z" />
    <glyph glyph-name="lcommaaccent" unicode="&#x13c;" horiz-adv-x="264" 
d="M70 0v708h124v-708h-124zM12 -236l44 184h152l-130 -184h-66z" />
    <glyph glyph-name="ldot" unicode="&#x140;" horiz-adv-x="488" 
d="M70 0v708h124v-708h-124zM378 285c-48 0 -84 36 -84 84s36 84 84 84s84 -36 84 -84s-36 -84 -84 -84z" />
    <glyph glyph-name="lslash" unicode="&#x142;" horiz-adv-x="264" 
d="M296 377l-102 -56v-321h-124v254l-49 -27l-53 95l102 56v330h124v-263l49 27z" />
    <glyph glyph-name="m" unicode="m" horiz-adv-x="854" 
d="M70 0v504h124v-81c37 56 80 89 145 89c62 0 119 -31 141 -104c36 65 92 104 154 104c94 0 150 -58 150 -155v-357h-124v336c0 51 -25 70 -62 70c-60 0 -109 -68 -109 -210v-196h-124v336c0 51 -25 70 -62 70c-61 0 -109 -71 -109 -221v-185h-124z" />
    <glyph glyph-name="n" unicode="n" horiz-adv-x="575" 
d="M70 0v504h124v-81c37 53 91 89 156 89c90 0 155 -51 155 -152v-360h-124v323c0 60 -30 83 -72 83c-60 0 -115 -72 -115 -205v-201h-124z" />
    <glyph glyph-name="nacute" unicode="&#x144;" horiz-adv-x="575" 
d="M248 552l67 156h168l-145 -156h-90zM70 0v504h124v-81c37 53 91 89 156 89c90 0 155 -51 155 -152v-360h-124v323c0 60 -30 83 -72 83c-60 0 -115 -72 -115 -205v-201h-124z" />
    <glyph glyph-name="ncaron" unicode="&#x148;" horiz-adv-x="575" 
d="M281 560l-161 174h114l64 -69l64 69h114l-161 -174h-34zM70 0v504h124v-81c37 53 91 89 156 89c90 0 155 -51 155 -152v-360h-124v323c0 60 -30 83 -72 83c-60 0 -115 -72 -115 -205v-201h-124z" />
    <glyph glyph-name="ncommaaccent" unicode="&#x146;" horiz-adv-x="575" 
d="M70 0v504h124v-81c37 53 91 89 156 89c90 0 155 -51 155 -152v-360h-124v323c0 60 -30 83 -72 83c-60 0 -115 -72 -115 -205v-201h-124zM167 -236l44 184h152l-130 -184h-66z" />
    <glyph glyph-name="eng" unicode="&#x14b;" horiz-adv-x="575" 
d="M294 -212l-30 109c73 18 117 52 117 146v280c0 60 -30 83 -72 83c-60 0 -115 -72 -115 -205v-201h-124v504h124v-81c37 53 91 89 156 89c90 0 155 -51 155 -152v-302c0 -161 -70 -237 -211 -270z" />
    <glyph glyph-name="ntilde" unicode="&#xf1;" horiz-adv-x="575" 
d="M170 569l-65 55c23 51 72 87 123 87c66 0 85 -41 133 -41c22 0 45 17 64 43l65 -55c-23 -51 -72 -87 -123 -87c-66 0 -85 41 -133 41c-22 0 -45 -17 -64 -43zM70 0v504h124v-81c37 53 91 89 156 89c90 0 155 -51 155 -152v-360h-124v323c0 60 -30 83 -72 83
c-60 0 -115 -72 -115 -205v-201h-124z" />
    <glyph glyph-name="o" unicode="o" horiz-adv-x="596" 
d="M298 -8c-162 0 -256 114 -256 260s94 260 256 260s256 -114 256 -260s-94 -260 -256 -260zM298 98c80 0 126 71 126 154s-46 154 -126 154s-126 -71 -126 -154s46 -154 126 -154z" />
    <glyph glyph-name="oacute" unicode="&#xf3;" horiz-adv-x="596" 
d="M248 552l67 156h168l-145 -156h-90zM298 -8c-162 0 -256 114 -256 260s94 260 256 260s256 -114 256 -260s-94 -260 -256 -260zM298 98c80 0 126 71 126 154s-46 154 -126 154s-126 -71 -126 -154s46 -154 126 -154z" />
    <glyph glyph-name="obreve" unicode="&#x14f;" horiz-adv-x="596" 
d="M306 591c-73 0 -118 51 -118 109h91c0 -16 11 -28 27 -28s27 12 27 28h91c0 -58 -45 -109 -118 -109zM298 -8c-162 0 -256 114 -256 260s94 260 256 260s256 -114 256 -260s-94 -260 -256 -260zM298 98c80 0 126 71 126 154s-46 154 -126 154s-126 -71 -126 -154
s46 -154 126 -154z" />
    <glyph glyph-name="ocircumflex" unicode="&#xf4;" horiz-adv-x="596" 
d="M120 560l161 174h34l161 -174h-114l-64 69l-64 -69h-114zM298 -8c-162 0 -256 114 -256 260s94 260 256 260s256 -114 256 -260s-94 -260 -256 -260zM298 98c80 0 126 71 126 154s-46 154 -126 154s-126 -71 -126 -154s46 -154 126 -154z" />
    <glyph glyph-name="odieresis" unicode="&#xf6;" horiz-adv-x="596" 
d="M194 576c-42 0 -71 30 -71 71s29 71 71 71s71 -30 71 -71s-29 -71 -71 -71zM401 576c-42 0 -71 30 -71 71s29 71 71 71s71 -30 71 -71s-29 -71 -71 -71zM298 -8c-162 0 -256 114 -256 260s94 260 256 260s256 -114 256 -260s-94 -260 -256 -260zM298 98
c80 0 126 71 126 154s-46 154 -126 154s-126 -71 -126 -154s46 -154 126 -154z" />
    <glyph glyph-name="ograve" unicode="&#xf2;" horiz-adv-x="596" 
d="M258 552l-145 156h168l67 -156h-90zM298 -8c-162 0 -256 114 -256 260s94 260 256 260s256 -114 256 -260s-94 -260 -256 -260zM298 98c80 0 126 71 126 154s-46 154 -126 154s-126 -71 -126 -154s46 -154 126 -154z" />
    <glyph glyph-name="ohungarumlaut" unicode="&#x151;" horiz-adv-x="596" 
d="M124 560l64 148h168l-138 -148h-94zM327 560l64 148h168l-138 -148h-94zM298 -8c-162 0 -256 114 -256 260s94 260 256 260s256 -114 256 -260s-94 -260 -256 -260zM298 98c80 0 126 71 126 154s-46 154 -126 154s-126 -71 -126 -154s46 -154 126 -154z" />
    <glyph glyph-name="omacron" unicode="&#x14d;" horiz-adv-x="596" 
d="M163 594v98h269v-98h-269zM298 -8c-162 0 -256 114 -256 260s94 260 256 260s256 -114 256 -260s-94 -260 -256 -260zM298 98c80 0 126 71 126 154s-46 154 -126 154s-126 -71 -126 -154s46 -154 126 -154z" />
    <glyph glyph-name="oslash" unicode="&#xf8;" horiz-adv-x="596" 
d="M561 501l-62 -79c36 -45 55 -104 55 -170c0 -146 -94 -260 -256 -260c-44 0 -84 9 -117 24l-60 -76l-86 63l62 79c-36 45 -55 104 -55 170c0 146 94 260 256 260c44 0 84 -9 117 -24l60 76zM172 252c0 -22 3 -43 9 -62l163 207c-14 6 -29 9 -46 9
c-80 0 -126 -71 -126 -154zM424 252c0 22 -3 43 -9 62l-163 -207c14 -6 29 -9 46 -9c80 0 126 71 126 154z" />
    <glyph glyph-name="otilde" unicode="&#xf5;" horiz-adv-x="596" 
d="M170 569l-65 55c23 51 72 87 123 87c66 0 85 -41 133 -41c22 0 45 17 64 43l65 -55c-23 -51 -72 -87 -123 -87c-66 0 -85 41 -133 41c-22 0 -45 -17 -64 -43zM298 -8c-162 0 -256 114 -256 260s94 260 256 260s256 -114 256 -260s-94 -260 -256 -260zM298 98
c80 0 126 71 126 154s-46 154 -126 154s-126 -71 -126 -154s46 -154 126 -154z" />
    <glyph glyph-name="oe" unicode="&#x153;" horiz-adv-x="943" 
d="M298 -8c-162 0 -256 114 -256 260s94 260 256 260c81 0 146 -29 190 -76c39 45 97 76 178 76c168 0 235 -139 235 -249v-51h-347c3 -56 42 -114 119 -114c57 0 92 26 122 78l100 -37c-39 -89 -107 -147 -229 -147c-81 0 -140 31 -179 76c-44 -47 -108 -76 -189 -76z
M298 98c80 0 126 71 126 154s-48 154 -126 154c-80 0 -126 -71 -126 -154s46 -154 126 -154zM557 310h217c-11 50 -42 96 -108 96c-63 0 -100 -48 -109 -96z" />
    <glyph glyph-name="p" unicode="p" horiz-adv-x="588" 
d="M70 -204v708h124v-52c14 26 60 60 122 60c152 0 230 -105 230 -260s-78 -260 -230 -260c-51 0 -100 26 -122 54v-250h-124zM299 98c65 0 117 54 117 154s-52 154 -117 154s-116 -54 -116 -154s51 -154 116 -154z" />
    <glyph glyph-name="thorn" unicode="&#xfe;" horiz-adv-x="588" 
d="M70 -204v912h124v-255c14 25 60 59 122 59c152 0 230 -105 230 -260s-78 -260 -230 -260c-51 0 -100 26 -122 54v-250h-124zM299 98c65 0 117 54 117 154s-52 154 -117 154s-116 -54 -116 -154s51 -154 116 -154z" />
    <glyph glyph-name="q" unicode="q" horiz-adv-x="588" 
d="M394 -204v250c-22 -28 -71 -54 -122 -54c-152 0 -230 105 -230 260s78 260 230 260c62 0 108 -34 122 -60v52h124v-708h-124zM289 98c65 0 116 54 116 154s-51 154 -116 154s-117 -54 -117 -154s52 -154 117 -154z" />
    <glyph glyph-name="r" unicode="r" horiz-adv-x="417" 
d="M70 0v504h124v-82c36 59 92 90 149 90c22 0 41 -4 61 -10l-23 -115c-15 9 -31 14 -52 14c-72 0 -135 -59 -135 -222v-179h-124z" />
    <glyph glyph-name="racute" unicode="&#x155;" horiz-adv-x="417" 
d="M174 552l67 156h168l-145 -156h-90zM70 0v504h124v-82c36 59 92 90 149 90c22 0 41 -4 61 -10l-23 -115c-15 9 -31 14 -52 14c-72 0 -135 -59 -135 -222v-179h-124z" />
    <glyph glyph-name="rcaron" unicode="&#x159;" horiz-adv-x="417" 
d="M207 560l-161 174h114l64 -69l64 69h114l-161 -174h-34zM70 0v504h124v-82c36 59 92 90 149 90c22 0 41 -4 61 -10l-23 -115c-15 9 -31 14 -52 14c-72 0 -135 -59 -135 -222v-179h-124z" />
    <glyph glyph-name="rcommaaccent" unicode="&#x157;" horiz-adv-x="417" 
d="M70 0v504h124v-82c36 59 92 90 149 90c22 0 41 -4 61 -10l-23 -115c-15 9 -31 14 -52 14c-72 0 -135 -59 -135 -222v-179h-124zM12 -236l44 184h152l-130 -184h-66z" />
    <glyph glyph-name="s" unicode="s" horiz-adv-x="446" 
d="M234 -8c-112 0 -180 69 -200 136l99 53c18 -49 51 -83 100 -83c31 0 63 12 63 49c0 40 -56 55 -109 76c-70 28 -122 70 -122 148s68 141 161 141c68 0 127 -30 158 -82l-74 -68c-22 32 -50 44 -81 44c-25 0 -49 -14 -49 -38c0 -22 18 -40 103 -71
c72 -26 121 -67 121 -142c0 -99 -70 -163 -170 -163z" />
    <glyph glyph-name="sacute" unicode="&#x15b;" horiz-adv-x="446" 
d="M176 552l67 156h168l-145 -156h-90zM234 -8c-112 0 -180 69 -200 136l99 53c18 -49 51 -83 100 -83c31 0 63 12 63 49c0 40 -56 55 -109 76c-70 28 -122 70 -122 148s68 141 161 141c68 0 127 -30 158 -82l-74 -68c-22 32 -50 44 -81 44c-25 0 -49 -14 -49 -38
c0 -22 18 -40 103 -71c72 -26 121 -67 121 -142c0 -99 -70 -163 -170 -163z" />
    <glyph glyph-name="scaron" unicode="&#x161;" horiz-adv-x="446" 
d="M209 560l-161 174h114l64 -69l64 69h114l-161 -174h-34zM234 -8c-112 0 -180 69 -200 136l99 53c18 -49 51 -83 100 -83c31 0 63 12 63 49c0 40 -56 55 -109 76c-70 28 -122 70 -122 148s68 141 161 141c68 0 127 -30 158 -82l-74 -68c-22 32 -50 44 -81 44
c-25 0 -49 -14 -49 -38c0 -22 18 -40 103 -71c72 -26 121 -67 121 -142c0 -99 -70 -163 -170 -163z" />
    <glyph glyph-name="scedilla" unicode="&#x15f;" horiz-adv-x="446" 
d="M234 -8c-112 0 -180 69 -200 136l99 53c18 -49 51 -83 100 -83c31 0 63 12 63 49c0 40 -56 55 -109 76c-70 28 -122 70 -122 148s68 141 161 141c68 0 127 -30 158 -82l-74 -68c-22 32 -50 44 -81 44c-25 0 -49 -14 -49 -38c0 -22 18 -40 103 -71
c72 -26 121 -67 121 -142c0 -99 -70 -163 -170 -163zM201 -266l-148 66l141 140h90z" />
    <glyph glyph-name="scircumflex" unicode="&#x15d;" horiz-adv-x="446" 
d="M48 560l161 174h34l161 -174h-114l-64 69l-64 -69h-114zM234 -8c-112 0 -180 69 -200 136l99 53c18 -49 51 -83 100 -83c31 0 63 12 63 49c0 40 -56 55 -109 76c-70 28 -122 70 -122 148s68 141 161 141c68 0 127 -30 158 -82l-74 -68c-22 32 -50 44 -81 44
c-25 0 -49 -14 -49 -38c0 -22 18 -40 103 -71c72 -26 121 -67 121 -142c0 -99 -70 -163 -170 -163z" />
    <glyph glyph-name="scommaaccent" unicode="&#x219;" horiz-adv-x="446" 
d="M234 -8c-112 0 -180 69 -200 136l99 53c18 -49 51 -83 100 -83c31 0 63 12 63 49c0 40 -56 55 -109 76c-70 28 -122 70 -122 148s68 141 161 141c68 0 127 -30 158 -82l-74 -68c-22 32 -50 44 -81 44c-25 0 -49 -14 -49 -38c0 -22 18 -40 103 -71
c72 -26 121 -67 121 -142c0 -99 -70 -163 -170 -163zM119 -236l44 184h152l-130 -184h-66z" />
    <glyph glyph-name="germandbls" unicode="&#xdf;" horiz-adv-x="577" 
d="M315 -8c-31 0 -57 4 -72 8v108c20 -4 41 -8 64 -8c76 0 104 44 104 111c0 83 -44 115 -120 115h-33v112h20c51 0 84 25 84 81c0 54 -30 83 -76 83c-49 0 -82 -33 -82 -99v-503h-120v326h-52v112h52v62c0 137 82 208 202 208c123 0 189 -74 189 -173
c0 -71 -34 -117 -80 -134c81 -25 136 -78 136 -193c0 -138 -78 -216 -216 -216z" />
    <glyph glyph-name="t" unicode="t" horiz-adv-x="370" 
d="M272 -8c-114 0 -185 61 -185 186v220h-78v106h78v126l124 78v-204h133v-106h-133v-218c0 -62 24 -82 66 -82c17 0 31 3 48 12l29 -100c-28 -13 -55 -18 -82 -18z" />
    <glyph glyph-name="tbar" unicode="&#x167;" horiz-adv-x="370" 
d="M325 110l29 -100c-28 -13 -55 -18 -82 -18c-114 0 -185 61 -185 186v48h-67v92h67v80h-78v106h78v126l124 78v-204h133v-106h-133v-80h116v-92h-116v-46c0 -62 24 -82 66 -82c17 0 31 3 48 12z" />
    <glyph glyph-name="tcaron" unicode="&#x165;" horiz-adv-x="370" 
d="M267 542l25 184h136l-82 -184h-79zM272 -8c-114 0 -185 61 -185 186v220h-78v106h78v126l124 78v-204h133v-106h-133v-218c0 -62 24 -82 66 -82c17 0 31 3 48 12l29 -100c-28 -13 -55 -18 -82 -18z" />
    <glyph glyph-name="uni0163" unicode="&#x163;" horiz-adv-x="370" 
d="M272 -8c-114 0 -185 61 -185 186v220h-78v106h78v126l124 78v-204h133v-106h-133v-218c0 -62 24 -82 66 -82c17 0 31 3 48 12l29 -100c-28 -13 -55 -18 -82 -18zM199 -266l-148 66l141 140h90z" />
    <glyph glyph-name="uni021B" unicode="&#x21b;" horiz-adv-x="370" 
d="M272 -8c-114 0 -185 61 -185 186v220h-78v106h78v126l124 78v-204h133v-106h-133v-218c0 -62 24 -82 66 -82c17 0 31 3 48 12l29 -100c-28 -13 -55 -18 -82 -18zM117 -236l44 184h152l-130 -184h-66z" />
    <glyph glyph-name="u" unicode="u" horiz-adv-x="575" 
d="M225 -8c-90 0 -155 51 -155 152v360h124v-323c0 -60 30 -83 72 -83c60 0 115 72 115 205v201h124v-504h-124v81c-37 -53 -91 -89 -156 -89z" />
    <glyph glyph-name="uacute" unicode="&#xfa;" horiz-adv-x="575" 
d="M237 552l67 156h168l-145 -156h-90zM225 -8c-90 0 -155 51 -155 152v360h124v-323c0 -60 30 -83 72 -83c60 0 115 72 115 205v201h124v-504h-124v81c-37 -53 -91 -89 -156 -89z" />
    <glyph glyph-name="ubreve" unicode="&#x16d;" horiz-adv-x="575" 
d="M295 591c-73 0 -118 51 -118 109h91c0 -16 11 -28 27 -28s27 12 27 28h91c0 -58 -45 -109 -118 -109zM225 -8c-90 0 -155 51 -155 152v360h124v-323c0 -60 30 -83 72 -83c60 0 115 72 115 205v201h124v-504h-124v81c-37 -53 -91 -89 -156 -89z" />
    <glyph glyph-name="ucircumflex" unicode="&#xfb;" horiz-adv-x="575" 
d="M109 560l161 174h34l161 -174h-114l-64 69l-64 -69h-114zM225 -8c-90 0 -155 51 -155 152v360h124v-323c0 -60 30 -83 72 -83c60 0 115 72 115 205v201h124v-504h-124v81c-37 -53 -91 -89 -156 -89z" />
    <glyph glyph-name="udieresis" unicode="&#xfc;" horiz-adv-x="575" 
d="M183 576c-42 0 -71 30 -71 71s29 71 71 71s71 -30 71 -71s-29 -71 -71 -71zM390 576c-42 0 -71 30 -71 71s29 71 71 71s71 -30 71 -71s-29 -71 -71 -71zM225 -8c-90 0 -155 51 -155 152v360h124v-323c0 -60 30 -83 72 -83c60 0 115 72 115 205v201h124v-504h-124v81
c-37 -53 -91 -89 -156 -89z" />
    <glyph glyph-name="ugrave" unicode="&#xf9;" horiz-adv-x="575" 
d="M247 552l-145 156h168l67 -156h-90zM225 -8c-90 0 -155 51 -155 152v360h124v-323c0 -60 30 -83 72 -83c60 0 115 72 115 205v201h124v-504h-124v81c-37 -53 -91 -89 -156 -89z" />
    <glyph glyph-name="uhungarumlaut" unicode="&#x171;" horiz-adv-x="575" 
d="M113 560l64 148h168l-138 -148h-94zM316 560l64 148h168l-138 -148h-94zM225 -8c-90 0 -155 51 -155 152v360h124v-323c0 -60 30 -83 72 -83c60 0 115 72 115 205v201h124v-504h-124v81c-37 -53 -91 -89 -156 -89z" />
    <glyph glyph-name="umacron" unicode="&#x16b;" horiz-adv-x="575" 
d="M152 594v98h269v-98h-269zM225 -8c-90 0 -155 51 -155 152v360h124v-323c0 -60 30 -83 72 -83c60 0 115 72 115 205v201h124v-504h-124v81c-37 -53 -91 -89 -156 -89z" />
    <glyph glyph-name="uogonek" unicode="&#x173;" horiz-adv-x="575" 
d="M504 -94l20 -76c-19 -10 -37 -15 -65 -15c-57 0 -97 33 -97 90c0 39 25 75 57 95h-38v81c-37 -53 -91 -89 -156 -89c-90 0 -155 51 -155 152v360h124v-323c0 -60 30 -83 72 -83c60 0 115 72 115 205v201h124v-504c-36 -29 -58 -57 -58 -78c0 -16 9 -26 26 -26
c12 0 21 4 31 10z" />
    <glyph glyph-name="uring" unicode="&#x16f;" horiz-adv-x="575" 
d="M286 553c-60 0 -106 43 -106 102s46 102 106 102s106 -43 106 -102s-46 -102 -106 -102zM286 623c18 0 32 13 32 32s-14 32 -32 32s-32 -13 -32 -32s14 -32 32 -32zM225 -8c-90 0 -155 51 -155 152v360h124v-323c0 -60 30 -83 72 -83c60 0 115 72 115 205v201h124v-504
h-124v81c-37 -53 -91 -89 -156 -89z" />
    <glyph glyph-name="utilde" unicode="&#x169;" horiz-adv-x="575" 
d="M159 569l-65 55c23 51 72 87 123 87c66 0 85 -41 133 -41c22 0 45 17 64 43l65 -55c-23 -51 -72 -87 -123 -87c-66 0 -85 41 -133 41c-22 0 -45 -17 -64 -43zM225 -8c-90 0 -155 51 -155 152v360h124v-323c0 -60 30 -83 72 -83c60 0 115 72 115 205v201h124v-504h-124v81
c-37 -53 -91 -89 -156 -89z" />
    <glyph glyph-name="v" unicode="v" horiz-adv-x="480" 
d="M184 0l-171 504h125l102 -351l102 351h125l-171 -504h-112z" />
    <glyph glyph-name="w" unicode="w" horiz-adv-x="738" 
d="M172 0l-161 504h125l90 -346l85 346h116l85 -346l90 346h125l-161 -504h-110l-87 326l-87 -326h-110z" />
    <glyph glyph-name="wacute" unicode="&#x1e83;" horiz-adv-x="738" 
d="M319 552l67 156h168l-145 -156h-90zM172 0l-161 504h125l90 -346l85 346h116l85 -346l90 346h125l-161 -504h-110l-87 326l-87 -326h-110z" />
    <glyph glyph-name="wcircumflex" unicode="&#x175;" horiz-adv-x="738" 
d="M191 560l161 174h34l161 -174h-114l-64 69l-64 -69h-114zM172 0l-161 504h125l90 -346l85 346h116l85 -346l90 346h125l-161 -504h-110l-87 326l-87 -326h-110z" />
    <glyph glyph-name="wdieresis" unicode="&#x1e85;" horiz-adv-x="738" 
d="M265 576c-42 0 -71 30 -71 71s29 71 71 71s71 -30 71 -71s-29 -71 -71 -71zM472 576c-42 0 -71 30 -71 71s29 71 71 71s71 -30 71 -71s-29 -71 -71 -71zM172 0l-161 504h125l90 -346l85 346h116l85 -346l90 346h125l-161 -504h-110l-87 326l-87 -326h-110z" />
    <glyph glyph-name="wgrave" unicode="&#x1e81;" horiz-adv-x="738" 
d="M329 552l-145 156h168l67 -156h-90zM172 0l-161 504h125l90 -346l85 346h116l85 -346l90 346h125l-161 -504h-110l-87 326l-87 -326h-110z" />
    <glyph glyph-name="x" unicode="x" horiz-adv-x="480" 
d="M7 0l167 269l-146 235h130l82 -131l82 131h130l-146 -235l167 -269h-130l-103 164l-103 -164h-130z" />
    <glyph glyph-name="y" unicode="y" horiz-adv-x="496" 
d="M106 -204l87 236l-183 472h125l117 -316l110 316h124l-260 -708h-120z" />
    <glyph glyph-name="yacute" unicode="&#xfd;" horiz-adv-x="496" 
d="M198 552l67 156h168l-145 -156h-90zM106 -204l87 236l-183 472h125l117 -316l110 316h124l-260 -708h-120z" />
    <glyph glyph-name="ycircumflex" unicode="&#x177;" horiz-adv-x="496" 
d="M70 560l161 174h34l161 -174h-114l-64 69l-64 -69h-114zM106 -204l87 236l-183 472h125l117 -316l110 316h124l-260 -708h-120z" />
    <glyph glyph-name="ydieresis" unicode="&#xff;" horiz-adv-x="496" 
d="M144 576c-42 0 -71 30 -71 71s29 71 71 71s71 -30 71 -71s-29 -71 -71 -71zM351 576c-42 0 -71 30 -71 71s29 71 71 71s71 -30 71 -71s-29 -71 -71 -71zM106 -204l87 236l-183 472h125l117 -316l110 316h124l-260 -708h-120z" />
    <glyph glyph-name="ygrave" unicode="&#x1ef3;" horiz-adv-x="496" 
d="M208 552l-145 156h168l67 -156h-90zM106 -204l87 236l-183 472h125l117 -316l110 316h124l-260 -708h-120z" />
    <glyph glyph-name="z" unicode="z" horiz-adv-x="453" 
d="M30 0v48l218 350h-202v106h356v-48l-216 -350h230v-106h-386z" />
    <glyph glyph-name="zacute" unicode="&#x17a;" horiz-adv-x="453" 
d="M174 552l67 156h168l-145 -156h-90zM30 0v48l218 350h-202v106h356v-48l-216 -350h230v-106h-386z" />
    <glyph glyph-name="zcaron" unicode="&#x17e;" horiz-adv-x="453" 
d="M207 560l-161 174h114l64 -69l64 69h114l-161 -174h-34zM30 0v48l218 350h-202v106h356v-48l-216 -350h230v-106h-386z" />
    <glyph glyph-name="zdotaccent" unicode="&#x17c;" horiz-adv-x="453" 
d="M224 569c-46 0 -80 35 -80 80s34 80 80 80s80 -35 80 -80s-34 -80 -80 -80zM30 0v48l218 350h-202v106h356v-48l-216 -350h230v-106h-386z" />
    <glyph glyph-name="uni01B6" unicode="&#x1b6;" horiz-adv-x="453" 
d="M30 0v48l106 170h-79v92h135l56 88h-202v106h356v-48l-90 -146h68v-92h-124l-70 -112h230v-106h-386z" />
    <glyph glyph-name="a.ss01" horiz-adv-x="588" 
d="M262 -8c-142 0 -220 105 -220 260s78 260 220 260c61 0 110 -26 132 -54v46h124v-504h-124v52c-14 -26 -60 -60 -132 -60zM289 98c65 0 116 54 116 154s-51 154 -116 154s-117 -54 -117 -154s52 -154 117 -154z" />
    <glyph glyph-name="aacute.ss01" horiz-adv-x="588" 
d="M228 552l67 156h168l-145 -156h-90zM262 -8c-142 0 -220 105 -220 260s78 260 220 260c61 0 110 -26 132 -54v46h124v-504h-124v52c-14 -26 -60 -60 -132 -60zM289 98c65 0 116 54 116 154s-51 154 -116 154s-117 -54 -117 -154s52 -154 117 -154z" />
    <glyph glyph-name="abreve.ss01" horiz-adv-x="588" 
d="M286 591c-73 0 -118 51 -118 109h91c0 -16 11 -28 27 -28s27 12 27 28h91c0 -58 -45 -109 -118 -109zM262 -8c-142 0 -220 105 -220 260s78 260 220 260c61 0 110 -26 132 -54v46h124v-504h-124v52c-14 -26 -60 -60 -132 -60zM289 98c65 0 116 54 116 154
s-51 154 -116 154s-117 -54 -117 -154s52 -154 117 -154z" />
    <glyph glyph-name="acircumflex.ss01" horiz-adv-x="588" 
d="M100 560l161 174h34l161 -174h-114l-64 69l-64 -69h-114zM262 -8c-142 0 -220 105 -220 260s78 260 220 260c61 0 110 -26 132 -54v46h124v-504h-124v52c-14 -26 -60 -60 -132 -60zM289 98c65 0 116 54 116 154s-51 154 -116 154s-117 -54 -117 -154s52 -154 117 -154z
" />
    <glyph glyph-name="adieresis.ss01" horiz-adv-x="588" 
d="M174 576c-42 0 -71 30 -71 71s29 71 71 71s71 -30 71 -71s-29 -71 -71 -71zM381 576c-42 0 -71 30 -71 71s29 71 71 71s71 -30 71 -71s-29 -71 -71 -71zM262 -8c-142 0 -220 105 -220 260s78 260 220 260c61 0 110 -26 132 -54v46h124v-504h-124v52
c-14 -26 -60 -60 -132 -60zM289 98c65 0 116 54 116 154s-51 154 -116 154s-117 -54 -117 -154s52 -154 117 -154z" />
    <glyph glyph-name="agrave.ss01" horiz-adv-x="588" 
d="M238 552l-145 156h168l67 -156h-90zM262 -8c-142 0 -220 105 -220 260s78 260 220 260c61 0 110 -26 132 -54v46h124v-504h-124v52c-14 -26 -60 -60 -132 -60zM289 98c65 0 116 54 116 154s-51 154 -116 154s-117 -54 -117 -154s52 -154 117 -154z" />
    <glyph glyph-name="amacron.ss01" horiz-adv-x="588" 
d="M143 594v98h269v-98h-269zM262 -8c-142 0 -220 105 -220 260s78 260 220 260c61 0 110 -26 132 -54v46h124v-504h-124v52c-14 -26 -60 -60 -132 -60zM289 98c65 0 116 54 116 154s-51 154 -116 154s-117 -54 -117 -154s52 -154 117 -154z" />
    <glyph glyph-name="aogonek.ss01" horiz-adv-x="588" 
d="M517 -94l20 -76c-19 -10 -37 -15 -65 -15c-57 0 -97 33 -97 90c0 39 25 75 57 95h-38v52c-14 -26 -60 -60 -132 -60c-142 0 -220 105 -220 260s78 260 220 260c61 0 110 -26 132 -54v46h124v-504c-36 -29 -58 -57 -58 -78c0 -16 9 -26 26 -26c12 0 21 4 31 10zM289 98
c65 0 116 54 116 154s-51 154 -116 154s-117 -54 -117 -154s52 -154 117 -154z" />
    <glyph glyph-name="aring.ss01" horiz-adv-x="588" 
d="M277 553c-60 0 -106 43 -106 102s46 102 106 102s106 -43 106 -102s-46 -102 -106 -102zM277 623c18 0 32 13 32 32s-14 32 -32 32s-32 -13 -32 -32s14 -32 32 -32zM262 -8c-142 0 -220 105 -220 260s78 260 220 260c61 0 110 -26 132 -54v46h124v-504h-124v52
c-14 -26 -60 -60 -132 -60zM289 98c65 0 116 54 116 154s-51 154 -116 154s-117 -54 -117 -154s52 -154 117 -154z" />
    <glyph glyph-name="aringacute.ss01" horiz-adv-x="588" 
d="M228 789l67 156h168l-145 -156h-90zM277 553c-60 0 -106 43 -106 102s46 102 106 102s106 -43 106 -102s-46 -102 -106 -102zM277 623c18 0 32 13 32 32s-14 32 -32 32s-32 -13 -32 -32s14 -32 32 -32zM262 -8c-142 0 -220 105 -220 260s78 260 220 260
c61 0 110 -26 132 -54v46h124v-504h-124v52c-14 -26 -60 -60 -132 -60zM289 98c65 0 116 54 116 154s-51 154 -116 154s-117 -54 -117 -154s52 -154 117 -154z" />
    <glyph glyph-name="atilde.ss01" horiz-adv-x="588" 
d="M150 569l-65 55c23 51 72 87 123 87c66 0 85 -41 133 -41c22 0 45 17 64 43l65 -55c-23 -51 -72 -87 -123 -87c-66 0 -85 41 -133 41c-22 0 -45 -17 -64 -43zM262 -8c-142 0 -220 105 -220 260s78 260 220 260c61 0 110 -26 132 -54v46h124v-504h-124v52
c-14 -26 -60 -60 -132 -60zM289 98c65 0 116 54 116 154s-51 154 -116 154s-117 -54 -117 -154s52 -154 117 -154z" />
    <glyph glyph-name="ae.ss01" horiz-adv-x="905" 
d="M262 -8c-142 0 -220 105 -220 260s78 260 220 260c61 0 110 -26 132 -54v46h124v-45c24 35 77 53 130 53c148 0 215 -139 215 -249v-51h-345c0 -75 46 -114 117 -114c57 0 92 26 122 78l100 -37c-39 -89 -107 -147 -209 -147c-43 0 -99 9 -130 53v-45h-124v52
c-14 -26 -60 -60 -132 -60zM289 98c65 0 116 54 116 154s-51 154 -116 154s-117 -54 -117 -154s52 -154 117 -154zM519 310h217c-11 50 -42 96 -108 96c-63 0 -100 -48 -109 -96z" />
    <glyph glyph-name="aeacute.ss01" horiz-adv-x="905" 
d="M406 552l67 156h168l-145 -156h-90zM262 -8c-142 0 -220 105 -220 260s78 260 220 260c61 0 110 -26 132 -54v46h124v-45c24 35 77 53 130 53c148 0 215 -139 215 -249v-51h-345c0 -75 46 -114 117 -114c57 0 92 26 122 78l100 -37c-39 -89 -107 -147 -209 -147
c-43 0 -99 9 -130 53v-45h-124v52c-14 -26 -60 -60 -132 -60zM289 98c65 0 116 54 116 154s-51 154 -116 154s-117 -54 -117 -154s52 -154 117 -154zM519 310h217c-11 50 -42 96 -108 96c-63 0 -100 -48 -109 -96z" />
    <glyph glyph-name="dcaron.ss02" horiz-adv-x="728" 
d="M597 534l-18 24c33 23 52 55 60 93c-36 14 -51 41 -51 66c0 35 28 67 70 67s70 -32 70 -73c0 -78 -59 -131 -131 -177zM262 -8c-142 0 -220 105 -220 260s78 260 220 260c61 0 110 -26 132 -54v250h124v-708h-124v52c-14 -26 -60 -60 -132 -60zM289 98
c65 0 116 54 116 154s-51 154 -116 154s-117 -54 -117 -154s52 -154 117 -154z" />
    <glyph glyph-name="gcommaaccent.ss02" horiz-adv-x="509" 
d="M259 562c-42 0 -70 32 -70 73c0 78 59 131 131 177l18 -24c-33 -23 -52 -55 -60 -93c36 -14 51 -41 51 -66c0 -35 -28 -67 -70 -67zM259 -212c-129 0 -228 56 -228 166c0 41 15 76 41 100c-16 19 -26 46 -26 78c0 48 25 84 62 106c-22 27 -35 62 -35 104
c0 105 83 170 185 170c34 0 65 -8 93 -22l95 50l49 -82l-72 -36c13 -23 20 -50 20 -80c0 -106 -83 -168 -185 -168c-26 0 -51 4 -73 11c-15 -9 -24 -22 -24 -38c0 -24 17 -37 47 -37h103c106 0 177 -51 177 -148c0 -124 -117 -174 -229 -174zM258 274c40 0 69 27 69 68
c0 42 -29 70 -69 70s-69 -28 -69 -70c0 -41 29 -68 69 -68zM259 -108c59 0 105 17 105 62c0 42 -34 52 -81 52h-68c-21 0 -40 1 -58 4c-8 -12 -11 -27 -11 -46c0 -48 48 -72 113 -72z" />
    <glyph glyph-name="kcommaaccent.ss02" horiz-adv-x="530" 
d="M70 0v708h124v-402l164 198h153l-202 -232l215 -272h-152l-178 238v-238h-124zM227 -296l-18 24c33 23 52 55 60 93c-36 14 -51 41 -51 66c0 35 28 67 70 67s70 -32 70 -73c0 -78 -59 -131 -131 -177z" />
    <glyph glyph-name="lcaron.ss02" horiz-adv-x="393" 
d="M262 534l-18 24c33 23 52 55 60 93c-36 14 -51 41 -51 66c0 35 28 67 70 67s70 -32 70 -73c0 -78 -59 -131 -131 -177zM70 0v708h124v-708h-124z" />
    <glyph glyph-name="lcommaaccent.ss02" horiz-adv-x="264" 
d="M70 0v708h124v-708h-124zM75 -296l-18 24c33 23 52 55 60 93c-36 14 -51 41 -51 66c0 35 28 67 70 67s70 -32 70 -73c0 -78 -59 -131 -131 -177z" />
    <glyph glyph-name="ncommaaccent.ss02" horiz-adv-x="575" 
d="M70 0v504h124v-81c37 53 91 89 156 89c90 0 155 -51 155 -152v-360h-124v323c0 60 -30 83 -72 83c-60 0 -115 -72 -115 -205v-201h-124zM230 -296l-18 24c33 23 52 55 60 93c-36 14 -51 41 -51 66c0 35 28 67 70 67s70 -32 70 -73c0 -78 -59 -131 -131 -177z" />
    <glyph glyph-name="rcommaaccent.ss02" horiz-adv-x="417" 
d="M70 0v504h124v-82c36 59 92 90 149 90c22 0 41 -4 61 -10l-23 -115c-15 9 -31 14 -52 14c-72 0 -135 -59 -135 -222v-179h-124zM75 -296l-18 24c33 23 52 55 60 93c-36 14 -51 41 -51 66c0 35 28 67 70 67s70 -32 70 -73c0 -78 -59 -131 -131 -177z" />
    <glyph glyph-name="scommaaccent.ss02" horiz-adv-x="446" 
d="M234 -8c-112 0 -180 69 -200 136l99 53c18 -49 51 -83 100 -83c31 0 63 12 63 49c0 40 -56 55 -109 76c-70 28 -122 70 -122 148s68 141 161 141c68 0 127 -30 158 -82l-74 -68c-22 32 -50 44 -81 44c-25 0 -49 -14 -49 -38c0 -22 18 -40 103 -71
c72 -26 121 -67 121 -142c0 -99 -70 -163 -170 -163zM182 -296l-18 24c33 23 52 55 60 93c-36 14 -51 41 -51 66c0 35 28 67 70 67s70 -32 70 -73c0 -78 -59 -131 -131 -177z" />
    <glyph glyph-name="tcaron.ss02" horiz-adv-x="370" 
d="M285 534l-18 24c33 23 52 55 60 93c-36 14 -51 41 -51 66c0 35 28 67 70 67s70 -32 70 -73c0 -78 -59 -131 -131 -177zM272 -8c-114 0 -185 61 -185 186v220h-78v106h78v126l124 78v-204h133v-106h-133v-218c0 -62 24 -82 66 -82c17 0 31 3 48 12l29 -100
c-28 -13 -55 -18 -82 -18z" />
    <glyph glyph-name="uni021B.ss02" horiz-adv-x="370" 
d="M272 -8c-114 0 -185 61 -185 186v220h-78v106h78v126l124 78v-204h133v-106h-133v-218c0 -62 24 -82 66 -82c17 0 31 3 48 12l29 -100c-28 -13 -55 -18 -82 -18zM180 -296l-18 24c33 23 52 55 60 93c-36 14 -51 41 -51 66c0 35 28 67 70 67s70 -32 70 -73
c0 -78 -59 -131 -131 -177z" />
    <glyph glyph-name="f_b" horiz-adv-x="885" 
d="M613 512c152 0 230 -105 230 -260s-78 -260 -230 -260c-62 0 -108 34 -122 60v-52h-124v602h-113c-35 0 -57 -18 -57 -63v-35h106v-106h-106v-398h-124v398h-64v106h64v26c0 123 70 178 174 178h244v-250c22 28 71 54 122 54zM596 98c65 0 117 54 117 154
s-52 154 -117 154s-116 -54 -116 -154s51 -154 116 -154z" />
    <glyph glyph-name="f_f_b" horiz-adv-x="1179" 
d="M907 512c152 0 230 -105 230 -260s-78 -260 -230 -260c-62 0 -108 34 -122 60v-52h-124v602h-113c-35 0 -57 -18 -57 -63v-35h106v-106h-106v-398h-124v398h-170v-398h-124v398h-64v106h64v26c0 123 70 178 174 178c39 0 72 -8 94 -20l-27 -100c-21 9 -39 14 -60 14
c-35 0 -57 -18 -57 -63v-35h170v26c0 123 70 178 174 178h244v-250c22 28 71 54 122 54zM890 98c65 0 117 54 117 154s-52 154 -117 154s-116 -54 -116 -154s51 -154 116 -154z" />
    <glyph glyph-name="f_f_h" horiz-adv-x="1172" 
d="M945 512c95 0 157 -49 157 -152v-360h-124v316c0 61 -24 90 -75 90c-57 0 -118 -57 -118 -193v-213h-124v602h-113c-35 0 -57 -18 -57 -63v-35h106v-106h-106v-398h-124v398h-170v-398h-124v398h-64v106h64v26c0 123 70 178 174 178c39 0 72 -8 94 -20l-27 -100
c-21 9 -39 14 -60 14c-35 0 -57 -18 -57 -63v-35h170v26c0 123 70 178 174 178h244v-285c32 51 87 89 160 89z" />
    <glyph glyph-name="f_f_j" horiz-adv-x="837" 
d="M491 504h294v-446c0 -161 -70 -237 -211 -270l-30 109c73 18 117 52 117 146v355h-170v-398h-124v398h-170v-398h-124v398h-64v106h64v26c0 123 70 178 174 178c39 0 72 -8 94 -20l-27 -100c-21 9 -39 14 -60 14c-35 0 -57 -18 -57 -63v-35h170v6c0 134 94 198 234 198
c63 0 122 -14 153 -29l-37 -102c-31 15 -65 25 -109 25c-72 0 -117 -33 -117 -93v-5z" />
    <glyph glyph-name="f_f_k" horiz-adv-x="1121" 
d="M900 272l215 -272h-152l-178 238v-238h-124v602h-113c-35 0 -57 -18 -57 -63v-35h106v-106h-106v-398h-124v398h-170v-398h-124v398h-64v106h64v26c0 123 70 178 174 178c39 0 72 -8 94 -20l-27 -100c-21 9 -39 14 -60 14c-35 0 -57 -18 -57 -63v-35h170v26
c0 123 70 178 174 178h244v-402l164 198h153z" />
    <glyph glyph-name="f_h" horiz-adv-x="878" 
d="M73 0v398h-64v106h64v26c0 123 70 178 174 178h244v-285c32 51 87 89 160 89c95 0 157 -49 157 -152v-360h-124v316c0 61 -24 90 -75 90c-57 0 -118 -57 -118 -193v-213h-124v602h-113c-35 0 -57 -18 -57 -63v-35h106v-106h-106v-398h-124z" />
    <glyph glyph-name="f_i" horiz-adv-x="543" 
d="M73 0v398h-64v106h64v6c0 134 94 198 234 198c63 0 122 -14 153 -29l-37 -102c-31 15 -65 25 -109 25c-72 0 -117 -33 -117 -93v-5h294v-504h-124v398h-170v-398h-124z" />
    <glyph glyph-name="f_j" horiz-adv-x="543" 
d="M280 -212l-30 109c73 18 117 52 117 146v355h-170v-398h-124v398h-64v106h64v6c0 134 94 198 234 198c63 0 122 -14 153 -29l-37 -102c-31 15 -65 25 -109 25c-72 0 -117 -33 -117 -93v-5h294v-446c0 -161 -70 -237 -211 -270z" />
    <glyph glyph-name="f_k" horiz-adv-x="827" 
d="M606 272l215 -272h-152l-178 238v-238h-124v602h-113c-35 0 -57 -18 -57 -63v-35h106v-106h-106v-398h-124v398h-64v106h64v26c0 123 70 178 174 178h244v-402l164 198h153z" />
    <glyph glyph-name="f_l" horiz-adv-x="561" 
d="M73 0v398h-64v106h64v26c0 123 70 178 174 178h244v-708h-124v602h-113c-35 0 -57 -18 -57 -63v-35h106v-106h-106v-398h-124z" />
    <glyph glyph-name="ordfeminine" unicode="&#xaa;" horiz-adv-x="449" 
d="M178 296c-64 0 -120 42 -120 120c0 79 69 130 169 130h66v17c0 44 -33 58 -69 58c-28 0 -56 -9 -69 -46l-82 19c12 65 70 110 151 110c94 0 166 -39 166 -166v-238h-81l-9 52c-28 -33 -65 -56 -122 -56zM201 379c45 0 92 31 92 82v11h-66c-41 0 -67 -21 -67 -56
c0 -19 12 -37 41 -37z" />
    <glyph glyph-name="ordmasculine" unicode="&#xba;" horiz-adv-x="522" 
d="M261 296c-127 0 -201 89 -201 204s74 204 201 204s201 -89 201 -204s-74 -204 -201 -204zM261 379c63 0 99 56 99 121s-36 121 -99 121s-99 -56 -99 -121s36 -121 99 -121z" />
    <glyph glyph-name="uni0410" unicode="&#x410;" horiz-adv-x="624" 
d="M10 0l237 700h130l237 -700h-140l-51 165h-222l-51 -165h-140zM238 285h148l-74 243z" />
    <glyph glyph-name="uni0411" unicode="&#x411;" horiz-adv-x="618" 
d="M80 0v700h426v-120h-296v-152h131c143 0 231 -75 231 -214s-88 -214 -231 -214h-261zM210 120h119c81 0 113 34 113 94s-32 94 -113 94h-119v-188z" />
    <glyph glyph-name="uni0412" unicode="&#x412;" horiz-adv-x="618" 
d="M80 0v700h256c119 0 200 -62 200 -189c0 -57 -25 -106 -69 -129c66 -27 105 -82 105 -171c0 -136 -88 -211 -231 -211h-261zM210 428h119c52 0 82 19 82 76s-30 76 -85 76h-116v-152zM210 120h119c81 0 113 34 113 94s-32 94 -113 94h-119v-188z" />
    <glyph glyph-name="uni0413" unicode="&#x413;" horiz-adv-x="538" 
d="M80 0v700h434v-120h-304v-580h-130z" />
    <glyph glyph-name="uni0403" unicode="&#x403;" horiz-adv-x="538" 
d="M247 748l67 156h168l-145 -156h-90zM80 0v700h434v-120h-304v-580h-130z" />
    <glyph glyph-name="uni0490" unicode="&#x490;" horiz-adv-x="538" 
d="M384 779h130v-199h-304v-580h-130v700h304v79z" />
    <glyph glyph-name="uni0414" unicode="&#x414;" horiz-adv-x="690" 
d="M46 -124l-14 248h64l98 576h403v-576h61l-14 -248h-112v124h-374v-124h-112zM224 124h243v456h-159z" />
    <glyph glyph-name="uni0415" unicode="&#x415;" horiz-adv-x="573" 
d="M80 0v700h433v-120h-303v-147h243v-120h-243v-193h313v-120h-443z" />
    <glyph glyph-name="uni0400" unicode="&#x400;" horiz-adv-x="573" 
d="M258 748l-145 156h168l67 -156h-90zM80 0v700h433v-120h-303v-147h243v-120h-243v-193h313v-120h-443z" />
    <glyph glyph-name="uni0401" unicode="&#x401;" horiz-adv-x="573" 
d="M194 772c-42 0 -71 30 -71 71s29 71 71 71s71 -30 71 -71s-29 -71 -71 -71zM401 772c-42 0 -71 30 -71 71s29 71 71 71s71 -30 71 -71s-29 -71 -71 -71zM80 0v700h433v-120h-303v-147h243v-120h-243v-193h313v-120h-443z" />
    <glyph glyph-name="uni0416" unicode="&#x416;" horiz-adv-x="988" 
d="M10 0l304 387l-284 313h160l239 -260v260h130v-260l239 260h160l-284 -313l304 -387h-165l-254 334v-334h-130v334l-254 -334h-165z" />
    <glyph glyph-name="uni0417" unicode="&#x417;" horiz-adv-x="559" 
d="M283 -8c-123 0 -218 71 -241 188l122 43c11 -73 56 -115 117 -115c60 0 108 42 108 104c0 77 -68 106 -134 106h-34v108h28c73 0 120 32 120 93c0 47 -41 79 -94 79c-55 0 -89 -37 -99 -86l-110 22c15 103 92 174 209 174c137 0 212 -75 212 -179
c0 -75 -37 -118 -85 -149c65 -28 115 -87 115 -169c0 -125 -92 -219 -234 -219z" />
    <glyph glyph-name="uni0418" unicode="&#x418;" horiz-adv-x="684" 
d="M80 0v700h130v-462l257 462h137v-700h-130v462l-257 -462h-137z" />
    <glyph glyph-name="uni0419" unicode="&#x419;" horiz-adv-x="684" 
d="M350 787c-73 0 -118 51 -118 109h91c0 -16 11 -28 27 -28s27 12 27 28h91c0 -58 -45 -109 -118 -109zM80 0v700h130v-462l257 462h137v-700h-130v462l-257 -462h-137z" />
    <glyph glyph-name="uni040D" unicode="&#x40d;" horiz-adv-x="684" 
d="M302 748l-145 156h168l67 -156h-90zM80 0v700h130v-462l257 462h137v-700h-130v462l-257 -462h-137z" />
    <glyph glyph-name="uni041A" unicode="&#x41a;" horiz-adv-x="639" 
d="M80 0v700h130v-260l239 260h160l-284 -313l304 -387h-165l-254 334v-334h-130z" />
    <glyph glyph-name="uni040C" unicode="&#x40c;" horiz-adv-x="639" 
d="M262 748l67 156h168l-145 -156h-90zM80 0v700h130v-260l239 260h160l-284 -313l304 -387h-165l-254 334v-334h-130z" />
    <glyph glyph-name="uni041B" unicode="&#x41b;" horiz-adv-x="662" 
d="M28 0v124c56 0 90 3 95 76l37 500h422v-700h-130v576h-175l-28 -386c-10 -134 -87 -190 -221 -190z" />
    <glyph glyph-name="uni041C" unicode="&#x41c;" horiz-adv-x="782" 
d="M80 0v700h146l165 -437l165 437h146v-700h-130v432l-134 -368h-94l-134 368v-432h-130z" />
    <glyph glyph-name="uni041D" unicode="&#x41d;" horiz-adv-x="700" 
d="M80 0v700h130v-266h280v266h130v-700h-130v314h-280v-314h-130z" />
    <glyph glyph-name="uni041E" unicode="&#x41e;" horiz-adv-x="752" 
d="M376 -8c-177 0 -330 115 -330 358s153 358 330 358s330 -115 330 -358s-153 -358 -330 -358zM376 112c105 0 198 72 198 238s-93 238 -198 238s-198 -72 -198 -238s93 -238 198 -238z" />
    <glyph glyph-name="uni041F" unicode="&#x41f;" horiz-adv-x="672" 
d="M80 0v700h512v-700h-130v576h-252v-576h-130z" />
    <glyph glyph-name="uni0420" unicode="&#x420;" horiz-adv-x="597" 
d="M80 0v700h264c148 0 219 -91 219 -213s-71 -213 -219 -213h-134v-274h-130zM210 394h129c57 0 92 29 92 93s-35 93 -92 93h-129v-186z" />
    <glyph glyph-name="uni0421" unicode="&#x421;" horiz-adv-x="709" 
d="M377 -8c-175 0 -331 124 -331 358s156 358 331 358c152 0 257 -78 290 -212l-117 -30c-27 71 -76 122 -173 122c-108 0 -199 -76 -199 -238s91 -238 199 -238c97 0 146 51 173 122l117 -30c-33 -134 -138 -212 -290 -212z" />
    <glyph glyph-name="uni0422" unicode="&#x422;" horiz-adv-x="568" 
d="M219 0v580h-195v120h520v-120h-195v-580h-130z" />
    <glyph glyph-name="uni0423" unicode="&#x423;" horiz-adv-x="542" 
d="M119 0l88 215l-198 485h136l129 -325l128 325h131l-287 -700h-127z" />
    <glyph glyph-name="uni040E" unicode="&#x40e;" horiz-adv-x="542" 
d="M279 787c-73 0 -118 51 -118 109h91c0 -16 11 -28 27 -28s27 12 27 28h91c0 -58 -45 -109 -118 -109zM119 0l88 215l-198 485h136l129 -325l128 325h131l-287 -700h-127z" />
    <glyph glyph-name="uni0424" unicode="&#x424;" horiz-adv-x="786" 
d="M331 0v72h-9c-164 0 -276 128 -276 278s112 278 276 278h9v72h124v-72h9c164 0 276 -128 276 -278s-112 -278 -276 -278h-9v-72h-124zM322 178h9v344h-9c-92 0 -146 -80 -146 -172s54 -172 146 -172zM455 178h9c92 0 146 80 146 172s-54 172 -146 172h-9v-344z" />
    <glyph glyph-name="uni0425" unicode="&#x425;" horiz-adv-x="604" 
d="M13 0l218 378l-185 322h142l114 -198l114 198h142l-185 -322l218 -378h-144l-145 253l-145 -253h-144z" />
    <glyph glyph-name="uni0427" unicode="&#x427;" horiz-adv-x="660" 
d="M450 0v309c-44 -31 -109 -43 -164 -43c-126 0 -214 79 -214 264v170h130v-170c0 -93 41 -140 107 -140c75 0 104 24 141 61v249h130v-700h-130z" />
    <glyph glyph-name="uni0426" unicode="&#x426;" horiz-adv-x="697" 
d="M535 -124v124h-455v700h130v-576h252v576h130v-576h73l-18 -248h-112z" />
    <glyph glyph-name="uni0428" unicode="&#x428;" horiz-adv-x="972" 
d="M80 0v700h130v-576h211v576h130v-576h211v576h130v-700h-812z" />
    <glyph glyph-name="uni0429" unicode="&#x429;" horiz-adv-x="997" 
d="M835 -124v124h-755v700h130v-576h211v576h130v-576h211v576h130v-576h73l-18 -248h-112z" />
    <glyph glyph-name="uni040F" unicode="&#x40f;" horiz-adv-x="672" 
d="M271 -124v124h-191v700h130v-576h252v576h130v-700h-191v-124h-130z" />
    <glyph glyph-name="uni042C" unicode="&#x42c;" horiz-adv-x="618" 
d="M80 0v700h130v-272h131c143 0 231 -75 231 -214s-88 -214 -231 -214h-261zM210 120h119c81 0 113 34 113 94s-32 94 -113 94h-119v-188z" />
    <glyph glyph-name="uni042A" unicode="&#x42a;" horiz-adv-x="685" 
d="M147 0v580h-127v120h257v-272h131c143 0 231 -75 231 -214s-88 -214 -231 -214h-261zM277 120h119c81 0 113 34 113 94s-32 94 -113 94h-119v-188z" />
    <glyph glyph-name="uni042B" unicode="&#x42b;" horiz-adv-x="908" 
d="M80 0v700h130v-272h131c143 0 231 -75 231 -214s-88 -214 -231 -214h-261zM698 0v700h130v-700h-130zM210 120h119c81 0 113 34 113 94s-32 94 -113 94h-119v-188z" />
    <glyph glyph-name="uni0409" unicode="&#x409;" horiz-adv-x="942" 
d="M28 0v124c56 0 89 3 94 76l37 500h375v-272h131c143 0 231 -75 231 -214s-88 -214 -231 -214h-261v576h-128l-28 -386c-9 -127 -86 -190 -220 -190zM534 120h119c81 0 113 34 113 94s-32 94 -113 94h-119v-188z" />
    <glyph glyph-name="uni040A" unicode="&#x40a;" horiz-adv-x="946" 
d="M80 0v700h130v-272h198v272h130v-272h131c143 0 231 -75 231 -214s-88 -214 -231 -214h-261v308h-198v-308h-130zM538 120h119c81 0 113 34 113 94s-32 94 -113 94h-119v-188z" />
    <glyph glyph-name="uni0405" unicode="&#x405;" horiz-adv-x="531" 
d="M273 -8c-127 0 -219 89 -241 196l105 66c20 -78 62 -142 139 -142c52 0 91 24 91 83c0 62 -79 92 -161 133c-68 34 -132 88 -132 192c0 106 79 188 195 188c99 0 164 -46 198 -127l-105 -67c-19 55 -52 74 -93 74c-38 0 -71 -27 -71 -64c0 -58 68 -87 140 -120
c82 -38 159 -85 159 -203c0 -128 -93 -209 -224 -209z" />
    <glyph glyph-name="uni0404" unicode="&#x404;" horiz-adv-x="694" 
d="M361 -8c-181 0 -315 124 -315 358s134 358 315 358c140 0 249 -86 291 -212l-117 -32c-29 68 -82 124 -174 124c-93 0 -161 -58 -179 -178h316v-120h-316c18 -120 86 -178 179 -178c91 0 145 56 174 124l117 -32c-42 -126 -151 -212 -291 -212z" />
    <glyph glyph-name="uni042D" unicode="&#x42d;" horiz-adv-x="694" 
d="M333 -8c-140 0 -249 86 -291 212l117 32c29 -68 83 -124 174 -124c93 0 161 58 179 178h-316v120h316c-18 120 -86 178 -179 178c-92 0 -145 -56 -174 -124l-117 32c42 126 151 212 291 212c181 0 315 -124 315 -358s-134 -358 -315 -358z" />
    <glyph glyph-name="uni0406" unicode="&#x406;" horiz-adv-x="290" 
d="M80 0v700h130v-700h-130z" />
    <glyph glyph-name="uni0407" unicode="&#x407;" horiz-adv-x="290" 
d="M41 772c-42 0 -71 30 -71 71s29 71 71 71s71 -30 71 -71s-29 -71 -71 -71zM248 772c-42 0 -71 30 -71 71s29 71 71 71s71 -30 71 -71s-29 -71 -71 -71zM80 0v700h130v-700h-130z" />
    <glyph glyph-name="uni0408" unicode="&#x408;" horiz-adv-x="535" 
d="M240 -8c-122 0 -202 68 -216 181l128 27c12 -62 42 -88 88 -88c55 0 93 27 93 120v468h130v-454c0 -189 -85 -254 -223 -254z" />
    <glyph glyph-name="uni040B" unicode="&#x40b;" horiz-adv-x="735" 
d="M218 0v580h-194v120h518v-120h-194v-157c32 51 87 89 160 89c95 0 157 -49 157 -152v-360h-124v316c0 61 -24 90 -75 90c-57 0 -118 -57 -118 -193v-213h-130z" />
    <glyph glyph-name="uni042E" unicode="&#x42e;" horiz-adv-x="1020" 
d="M644 -8c-162 0 -304 96 -328 298h-106v-290h-130v700h130v-290h106c24 202 166 298 328 298c177 0 330 -115 330 -358s-153 -358 -330 -358zM644 112c105 0 198 72 198 238s-93 238 -198 238s-198 -72 -198 -238s93 -238 198 -238z" />
    <glyph glyph-name="uni042F" unicode="&#x42f;" horiz-adv-x="633" 
d="M22 0l194 313c-85 26 -131 96 -131 188c0 116 73 199 213 199h255v-700h-130v302h-68l-188 -302h-145zM297 422h126v158h-126c-47 0 -82 -22 -82 -79s35 -79 82 -79z" />
    <glyph glyph-name="uni0402" unicode="&#x402;" horiz-adv-x="735" 
d="M454 -8l-30 109c73 18 117 52 117 146v69c0 61 -24 90 -75 90c-56 0 -118 -57 -118 -193v-213h-130v580h-194v120h518v-120h-194v-157c32 51 87 89 160 89c95 0 157 -49 157 -152v-98c0 -161 -70 -237 -211 -270z" />
    <glyph glyph-name="uni0462" unicode="&#x462;" horiz-adv-x="676" 
d="M399 428c143 0 231 -75 231 -214s-88 -214 -231 -214h-261v495h-131v120h131v85h130v-85h139v-120h-139v-67h131zM387 120c81 0 113 34 113 94s-32 94 -113 94h-119v-188h119z" />
    <glyph glyph-name="uni0472" unicode="&#x472;" horiz-adv-x="752" 
d="M376 708c177 0 330 -115 330 -358s-153 -358 -330 -358s-330 115 -330 358s153 358 330 358zM376 588c-93 0 -176 -56 -194 -184h388c-18 128 -101 184 -194 184zM376 112c93 0 176 56 194 184h-388c18 -128 101 -184 194 -184z" />
    <glyph glyph-name="uni0474" unicode="&#x474;" horiz-adv-x="642" 
d="M413 518c37 121 95 190 229 190v-124c-56 0 -70 -7 -94 -76l-171 -508h-132l-235 700h144l157 -518z" />
    <glyph glyph-name="uni0430" unicode="&#x430;" horiz-adv-x="527" 
d="M197 -8c-86 0 -153 53 -153 153s82 165 211 165h88v22c0 53 -42 74 -88 74c-40 0 -71 -16 -87 -58l-105 24c16 83 91 140 192 140c133 0 212 -70 212 -211v-301h-102l-13 64c-35 -43 -83 -72 -155 -72zM230 98c56 0 113 39 113 104v10h-83c-53 0 -86 -20 -86 -65
c0 -29 23 -49 56 -49z" />
    <glyph glyph-name="uni0431" unicode="&#x431;" horiz-adv-x="596" 
d="M296 -8c-155 0 -254 123 -254 318c0 296 108 390 262 390h36c34 0 61 13 75 47h77c0 -113 -59 -155 -145 -155h-39c-68 0 -130 -31 -136 -133c27 25 80 53 143 53c151 0 239 -111 239 -260c0 -150 -102 -260 -258 -260zM298 98c80 0 126 71 126 154s-46 154 -126 154
s-126 -71 -126 -154s46 -154 126 -154z" />
    <glyph glyph-name="uni0432" unicode="&#x432;" horiz-adv-x="510" 
d="M70 0v504h194c100 0 170 -41 170 -138c0 -36 -21 -73 -48 -91c44 -21 80 -67 80 -127c0 -101 -67 -148 -171 -148h-225zM194 320h63c38 0 57 12 57 42s-19 42 -57 42h-63v-84zM194 106h68c50 0 78 14 78 52s-28 54 -78 54h-68v-106z" />
    <glyph glyph-name="uni0433" unicode="&#x433;" horiz-adv-x="431" 
d="M70 0v504h341v-106h-217v-398h-124z" />
    <glyph glyph-name="uni0453" unicode="&#x453;" horiz-adv-x="431" 
d="M178 552l67 156h168l-145 -156h-90zM70 0v504h341v-106h-217v-398h-124z" />
    <glyph glyph-name="uni0491" unicode="&#x491;" horiz-adv-x="431" 
d="M287 586h124v-188h-217v-398h-124v504h217v82z" />
    <glyph glyph-name="uni0434" unicode="&#x434;" horiz-adv-x="562" 
d="M43 -114l-16 220h42l64 398h361v-398h37l-15 -220h-108v114h-258v-114h-107zM190 106h180v292h-135z" />
    <glyph glyph-name="uni0435" unicode="&#x435;" horiz-adv-x="561" 
d="M284 -8c-173 0 -242 141 -242 260s69 260 242 260c168 0 235 -139 235 -249v-51h-347c3 -56 42 -114 119 -114c57 0 92 26 122 78l100 -37c-39 -89 -107 -147 -229 -147zM175 310h217c-11 50 -42 96 -108 96c-63 0 -100 -48 -109 -96z" />
    <glyph glyph-name="uni0450" unicode="&#x450;" horiz-adv-x="561" 
d="M245 552l-145 156h168l67 -156h-90zM284 -8c-173 0 -242 141 -242 260s69 260 242 260c168 0 235 -139 235 -249v-51h-347c3 -56 42 -114 119 -114c57 0 92 26 122 78l100 -37c-39 -89 -107 -147 -229 -147zM175 310h217c-11 50 -42 96 -108 96c-63 0 -100 -48 -109 -96z
" />
    <glyph glyph-name="uni0451" unicode="&#x451;" horiz-adv-x="561" 
d="M181 576c-42 0 -71 30 -71 71s29 71 71 71s71 -30 71 -71s-29 -71 -71 -71zM388 576c-42 0 -71 30 -71 71s29 71 71 71s71 -30 71 -71s-29 -71 -71 -71zM284 -8c-173 0 -242 141 -242 260s69 260 242 260c168 0 235 -139 235 -249v-51h-347c3 -56 42 -114 119 -114
c57 0 92 26 122 78l100 -37c-39 -89 -107 -147 -229 -147zM175 310h217c-11 50 -42 96 -108 96c-63 0 -100 -48 -109 -96z" />
    <glyph glyph-name="uni0436" unicode="&#x436;" horiz-adv-x="796" 
d="M6 0l215 272l-202 232h153l164 -198v198h124v-198l164 198h153l-202 -232l215 -272h-152l-178 238v-238h-124v238l-178 -238h-152z" />
    <glyph glyph-name="uni0437" unicode="&#x437;" horiz-adv-x="440" 
d="M218 -8c-101 0 -175 65 -184 154l111 15c5 -42 38 -65 73 -65c37 0 64 25 64 62c0 38 -39 62 -86 62h-24v84h24c47 0 75 22 75 58c0 31 -20 54 -57 54c-35 0 -56 -22 -64 -55l-103 27c16 67 70 124 169 124c110 0 161 -62 161 -131c0 -53 -17 -85 -55 -110
c47 -18 78 -59 78 -120c0 -96 -71 -159 -182 -159z" />
    <glyph glyph-name="uni0438" unicode="&#x438;" horiz-adv-x="572" 
d="M70 0v504h124v-311l173 311h135v-504h-124v311l-173 -311h-135z" />
    <glyph glyph-name="uni0439" unicode="&#x439;" horiz-adv-x="572" 
d="M279 591c-73 0 -118 51 -118 109h91c0 -16 11 -28 27 -28s27 12 27 28h91c0 -58 -45 -109 -118 -109zM70 0v504h124v-311l173 311h135v-504h-124v311l-173 -311h-135z" />
    <glyph glyph-name="uni045D" unicode="&#x45d;" horiz-adv-x="572" 
d="M231 552l-145 156h168l67 -156h-90zM70 0v504h124v-311l173 311h135v-504h-124v311l-173 -311h-135z" />
    <glyph glyph-name="uni043A" unicode="&#x43a;" horiz-adv-x="530" 
d="M70 0v504h124v-198l164 198h153l-202 -232l215 -272h-152l-178 238v-238h-124z" />
    <glyph glyph-name="uni045C" unicode="&#x45c;" horiz-adv-x="530" 
d="M209 552l67 156h168l-145 -156h-90zM70 0v504h124v-198l164 198h153l-202 -232l215 -272h-152l-178 238v-238h-124z" />
    <glyph glyph-name="uni043B" unicode="&#x43b;" horiz-adv-x="585" 
d="M25 0v106c58 0 85 18 90 71l33 327h367v-504h-124v398h-128l-30 -266c-14 -122 -96 -132 -208 -132z" />
    <glyph glyph-name="uni043C" unicode="&#x43c;" horiz-adv-x="628" 
d="M70 0v504h130l114 -290l114 290h130v-504h-124v252l-77 -206h-86l-77 206v-252h-124z" />
    <glyph glyph-name="uni043D" unicode="&#x43d;" horiz-adv-x="556" 
d="M70 0v504h124v-183h168v183h124v-504h-124v215h-168v-215h-124z" />
    <glyph glyph-name="uni043E" unicode="&#x43e;" horiz-adv-x="596" 
d="M298 -8c-162 0 -256 114 -256 260s94 260 256 260s256 -114 256 -260s-94 -260 -256 -260zM298 98c80 0 126 71 126 154s-46 154 -126 154s-126 -71 -126 -154s46 -154 126 -154z" />
    <glyph glyph-name="uni043F" unicode="&#x43f;" horiz-adv-x="553" 
d="M70 0v504h413v-504h-124v398h-165v-398h-124z" />
    <glyph glyph-name="uni0440" unicode="&#x440;" horiz-adv-x="588" 
d="M70 -204v708h124v-52c14 26 60 60 122 60c152 0 230 -105 230 -260s-78 -260 -230 -260c-51 0 -100 26 -122 54v-250h-124zM299 98c65 0 117 54 117 154s-52 154 -117 154s-116 -54 -116 -154s51 -154 116 -154z" />
    <glyph glyph-name="uni0441" unicode="&#x441;" horiz-adv-x="553" 
d="M288 -8c-164 0 -246 118 -246 260s82 260 246 260c112 0 191 -49 229 -144l-111 -45c-26 53 -62 83 -118 83c-78 0 -116 -65 -116 -154s38 -154 116 -154c56 0 92 30 118 83l111 -45c-38 -95 -117 -144 -229 -144z" />
    <glyph glyph-name="uni0442" unicode="&#x442;" horiz-adv-x="442" 
d="M159 0v398h-135v106h394v-106h-135v-398h-124z" />
    <glyph glyph-name="uni0443" unicode="&#x443;" horiz-adv-x="496" 
d="M106 -204l87 236l-183 472h125l117 -316l110 316h124l-260 -708h-120z" />
    <glyph glyph-name="uni045E" unicode="&#x45e;" horiz-adv-x="496" 
d="M256 591c-73 0 -118 51 -118 109h91c0 -16 11 -28 27 -28s27 12 27 28h91c0 -58 -45 -109 -118 -109zM106 -204l87 236l-183 472h125l117 -316l110 316h124l-260 -708h-120z" />
    <glyph glyph-name="uni0444" unicode="&#x444;" horiz-adv-x="720" 
d="M298 -204v196c-155 0 -256 116 -256 260s101 260 256 260v196h124v-196c155 0 256 -116 256 -260s-101 -260 -256 -260v-196h-124zM293 98h5v308h-5c-74 0 -121 -70 -121 -154s47 -154 121 -154zM422 98h5c74 0 121 70 121 154s-47 154 -121 154h-5v-308z" />
    <glyph glyph-name="uni0445" unicode="&#x445;" horiz-adv-x="480" 
d="M7 0l167 269l-146 235h130l82 -131l82 131h130l-146 -235l167 -269h-130l-103 164l-103 -164h-130z" />
    <glyph glyph-name="uni0447" unicode="&#x447;" horiz-adv-x="558" 
d="M364 0v209c-47 -41 -86 -55 -148 -55c-91 0 -154 53 -154 151v199h124v-154c0 -59 27 -84 72 -84c40 0 77 32 106 91v147h124v-504h-124z" />
    <glyph glyph-name="uni0446" unicode="&#x446;" horiz-adv-x="551" 
d="M397 -114v114h-327v504h124v-398h165v398h124v-398h37l-15 -220h-108z" />
    <glyph glyph-name="uni0448" unicode="&#x448;" horiz-adv-x="810" 
d="M70 0v504h124v-398h149v398h124v-398h149v398h124v-504h-670z" />
    <glyph glyph-name="uni0449" unicode="&#x449;" horiz-adv-x="808" 
d="M654 -114v114h-584v504h124v-398h149v398h124v-398h149v398h124v-398h37l-15 -220h-108z" />
    <glyph glyph-name="uni045F" unicode="&#x45f;" horiz-adv-x="554" 
d="M215 -114v114h-145v504h124v-398h166v398h124v-504h-145v-114h-124z" />
    <glyph glyph-name="uni044C" unicode="&#x44c;" horiz-adv-x="501" 
d="M70 0v504h124v-192h92c108 0 174 -62 174 -156s-66 -156 -174 -156h-216zM194 106h70c46 0 70 14 70 50s-24 50 -70 50h-70v-100z" />
    <glyph glyph-name="uni044A" unicode="&#x44a;" horiz-adv-x="536" 
d="M105 0v398h-87v106h211v-192h92c108 0 174 -62 174 -156s-66 -156 -174 -156h-216zM229 106h70c46 0 70 14 70 50s-24 50 -70 50h-70v-100z" />
    <glyph glyph-name="uni044B" unicode="&#x44b;" horiz-adv-x="765" 
d="M70 0v504h124v-192h92c108 0 174 -62 174 -156s-66 -156 -174 -156h-216zM571 0v504h124v-504h-124zM194 106h70c46 0 70 14 70 50s-24 50 -70 50h-70v-100z" />
    <glyph glyph-name="uni0459" unicode="&#x459;" horiz-adv-x="786" 
d="M25 0v106c58 0 85 18 90 71l33 327h331v-192h92c108 0 174 -62 174 -156s-66 -156 -174 -156h-216v398h-92l-30 -266c-14 -122 -96 -132 -208 -132zM479 106h70c46 0 70 14 70 50s-24 50 -70 50h-70v-100z" />
    <glyph glyph-name="uni045A" unicode="&#x45a;" horiz-adv-x="803" 
d="M70 0v504h124v-192h178v192h124v-192h92c108 0 174 -62 174 -156s-66 -156 -174 -156h-216v206h-178v-206h-124zM496 106h70c46 0 70 14 70 50s-24 50 -70 50h-70v-100z" />
    <glyph glyph-name="uni0455" unicode="&#x455;" horiz-adv-x="446" 
d="M234 -8c-112 0 -180 69 -200 136l99 53c18 -49 51 -83 100 -83c31 0 63 12 63 49c0 40 -56 55 -109 76c-70 28 -122 70 -122 148s68 141 161 141c68 0 127 -30 158 -82l-74 -68c-22 32 -50 44 -81 44c-25 0 -49 -14 -49 -38c0 -22 18 -40 103 -71
c72 -26 121 -67 121 -142c0 -99 -70 -163 -170 -163z" />
    <glyph glyph-name="uni0454" unicode="&#x454;" horiz-adv-x="555" 
d="M298 -8c-168 0 -256 118 -256 260s88 260 256 260c103 0 173 -48 221 -131l-102 -52c-27 48 -67 77 -123 77c-61 0 -105 -44 -116 -105h216v-98h-216c11 -61 55 -105 116 -105c56 0 96 29 123 77l102 -52c-48 -83 -118 -131 -221 -131z" />
    <glyph glyph-name="uni044D" unicode="&#x44d;" horiz-adv-x="555" 
d="M257 -8c-103 0 -173 48 -221 131l102 52c27 -48 67 -77 123 -77c61 0 105 44 116 105h-216v98h216c-11 61 -55 105 -116 105c-56 0 -96 -29 -123 -77l-102 52c48 83 118 131 221 131c168 0 256 -118 256 -260s-88 -260 -256 -260z" />
    <glyph glyph-name="uni0456" unicode="&#x456;" horiz-adv-x="264" 
d="M132 569c-46 0 -80 35 -80 80s34 80 80 80s80 -35 80 -80s-34 -80 -80 -80zM70 0v504h124v-504h-124z" />
    <glyph glyph-name="uni0457" unicode="&#x457;" horiz-adv-x="264" 
d="M28 576c-42 0 -71 30 -71 71s29 71 71 71s71 -30 71 -71s-29 -71 -71 -71zM235 576c-42 0 -71 30 -71 71s29 71 71 71s71 -30 71 -71s-29 -71 -71 -71zM70 0v504h124v-504h-124z" />
    <glyph glyph-name="uni0458" unicode="&#x458;" horiz-adv-x="264" 
d="M132 569c-46 0 -80 35 -80 80s34 80 80 80s80 -35 80 -80s-34 -80 -80 -80zM-17 -212l-30 109c73 18 117 52 117 146v461h124v-446c0 -161 -70 -237 -211 -270z" />
    <glyph glyph-name="uni045B" unicode="&#x45b;" horiz-adv-x="581" 
d="M354 512c95 0 157 -49 157 -152v-360h-124v316c0 61 -24 90 -75 90c-57 0 -118 -57 -118 -193v-213h-124v560h-57v92h57v56h124v-56h126v-92h-126v-137c32 51 87 89 160 89z" />
    <glyph glyph-name="uni044E" unicode="&#x44e;" horiz-adv-x="812" 
d="M514 -8c-142 0 -232 87 -252 207h-68v-199h-124v504h124v-199h68c20 119 110 207 252 207c162 0 256 -114 256 -260s-94 -260 -256 -260zM514 98c80 0 126 71 126 154s-46 154 -126 154s-126 -71 -126 -154s46 -154 126 -154z" />
    <glyph glyph-name="uni044F" unicode="&#x44f;" horiz-adv-x="483" 
d="M21 0l132 224c-60 18 -99 68 -99 137c0 85 72 143 167 143h192v-504h-124v218h-14l-122 -218h-132zM214 324h75v74h-75c-25 0 -40 -14 -40 -37s15 -37 40 -37z" />
    <glyph glyph-name="uni0452" unicode="&#x452;" horiz-adv-x="596" 
d="M315 -212l-30 109c73 18 117 52 117 146v273c0 61 -24 90 -75 90c-57 0 -118 -57 -118 -193v-213h-124v559h-72v92h72v57h124v-57h111v-92h-111v-136c32 51 87 89 160 89c95 0 157 -49 157 -152v-302c0 -161 -70 -237 -211 -270z" />
    <glyph glyph-name="uni0463" unicode="&#x463;" horiz-adv-x="569" 
d="M354 312c108 0 174 -62 174 -156s-66 -156 -174 -156h-216v453h-125v108h125v139h124v-139h124v-108h-124v-141h92zM332 106c46 0 70 14 70 50s-24 50 -70 50h-70v-100h70z" />
    <glyph glyph-name="uni0473" unicode="&#x473;" horiz-adv-x="596" 
d="M298 512c162 0 256 -114 256 -260s-94 -260 -256 -260s-256 114 -256 260s94 260 256 260zM298 406c-62 0 -103 -42 -119 -100h238c-16 58 -57 100 -119 100zM298 98c62 0 103 42 119 100h-238c16 -58 57 -100 119 -100z" />
    <glyph glyph-name="uni0475" unicode="&#x475;" horiz-adv-x="521" 
d="M184 0l-171 504h125l102 -351l57 199c43 149 109 160 217 160v-106c-58 0 -88 -18 -104 -71l-114 -335h-112z" />
    <glyph glyph-name="Alpha" unicode="&#x391;" horiz-adv-x="624" 
d="M10 0l237 700h130l237 -700h-140l-51 165h-222l-51 -165h-140zM238 285h148l-74 243z" />
    <glyph glyph-name="Beta" unicode="&#x392;" horiz-adv-x="618" 
d="M80 0v700h256c119 0 200 -62 200 -189c0 -57 -25 -106 -69 -129c66 -27 105 -82 105 -171c0 -136 -88 -211 -231 -211h-261zM210 428h119c52 0 82 19 82 76s-30 76 -85 76h-116v-152zM210 120h119c81 0 113 34 113 94s-32 94 -113 94h-119v-188z" />
    <glyph glyph-name="Gamma" unicode="&#x393;" horiz-adv-x="538" 
d="M80 0v700h434v-120h-304v-580h-130z" />
    <glyph glyph-name="uni0394" unicode="&#x394;" horiz-adv-x="624" 
d="M377 700l237 -700h-604l237 700h130zM187 120h250l-125 408z" />
    <glyph glyph-name="Epsilon" unicode="&#x395;" horiz-adv-x="573" 
d="M80 0v700h433v-120h-303v-147h243v-120h-243v-193h313v-120h-443z" />
    <glyph glyph-name="Zeta" unicode="&#x396;" horiz-adv-x="567" 
d="M36 0v60l303 520h-286v120h464v-60l-300 -520h314v-120h-495z" />
    <glyph glyph-name="Eta" unicode="&#x397;" horiz-adv-x="700" 
d="M80 0v700h130v-266h280v266h130v-700h-130v314h-280v-314h-130z" />
    <glyph glyph-name="Theta" unicode="&#x398;" horiz-adv-x="752" 
d="M376 -8c-177 0 -330 115 -330 358s153 358 330 358s330 -115 330 -358s-153 -358 -330 -358zM376 112c105 0 198 72 198 238s-93 238 -198 238s-198 -72 -198 -238s93 -238 198 -238zM242 301v98h269v-98h-269z" />
    <glyph glyph-name="Iota" unicode="&#x399;" horiz-adv-x="290" 
d="M80 0v700h130v-700h-130z" />
    <glyph glyph-name="Kappa" unicode="&#x39a;" horiz-adv-x="639" 
d="M80 0v700h130v-260l239 260h160l-284 -313l304 -387h-165l-254 334v-334h-130z" />
    <glyph glyph-name="Lambda" unicode="&#x39b;" horiz-adv-x="624" 
d="M10 0l237 700h130l237 -700h-140l-162 528l-162 -528h-140z" />
    <glyph glyph-name="Mu" unicode="&#x39c;" horiz-adv-x="782" 
d="M80 0v700h146l165 -437l165 437h146v-700h-130v432l-134 -368h-94l-134 368v-432h-130z" />
    <glyph glyph-name="Nu" unicode="&#x39d;" horiz-adv-x="684" 
d="M80 0v700h137l257 -462v462h130v-700h-137l-257 462v-462h-130z" />
    <glyph glyph-name="Xi" unicode="&#x39e;" horiz-adv-x="566" 
d="M60 580v120h446v-120h-446zM114 313v120h338v-120h-338zM50 0v120h466v-120h-466z" />
    <glyph glyph-name="Omicron" unicode="&#x39f;" horiz-adv-x="752" 
d="M376 -8c-177 0 -330 115 -330 358s153 358 330 358s330 -115 330 -358s-153 -358 -330 -358zM376 112c105 0 198 72 198 238s-93 238 -198 238s-198 -72 -198 -238s93 -238 198 -238z" />
    <glyph glyph-name="Pi" unicode="&#x3a0;" horiz-adv-x="672" 
d="M80 0v700h512v-700h-130v576h-252v-576h-130z" />
    <glyph glyph-name="Rho" unicode="&#x3a1;" horiz-adv-x="597" 
d="M80 0v700h264c148 0 219 -91 219 -213s-71 -213 -219 -213h-134v-274h-130zM210 394h129c57 0 92 29 92 93s-35 93 -92 93h-129v-186z" />
    <glyph glyph-name="Sigma" unicode="&#x3a3;" horiz-adv-x="560" 
d="M52 0v60l186 290l-186 290v60h450v-120h-267l135 -216v-28l-135 -216h275v-120h-458z" />
    <glyph glyph-name="Tau" unicode="&#x3a4;" horiz-adv-x="568" 
d="M219 0v580h-195v120h520v-120h-195v-580h-130z" />
    <glyph glyph-name="Upsilon" unicode="&#x3a5;" horiz-adv-x="552" 
d="M211 0v298l-202 402h140l127 -272l127 272h140l-202 -402v-298h-130z" />
    <glyph glyph-name="Phi" unicode="&#x3a6;" horiz-adv-x="768" 
d="M319 0v74c-131 0 -273 102 -273 276s142 276 273 276v74h130v-74c131 0 273 -102 273 -276s-142 -276 -273 -276v-74h-130zM319 194v312c-64 0 -141 -38 -141 -156s77 -156 141 -156zM449 194c64 0 141 38 141 156s-77 156 -141 156v-312z" />
    <glyph glyph-name="Chi" unicode="&#x3a7;" horiz-adv-x="604" 
d="M13 0l218 378l-185 322h142l114 -198l114 198h142l-185 -322l218 -378h-144l-145 253l-145 -253h-144z" />
    <glyph glyph-name="Psi" unicode="&#x3a8;" horiz-adv-x="766" 
d="M318 0v182c-172 3 -246 101 -246 258v260h130v-260c0 -87 44 -134 116 -138v398h130v-398c72 4 116 51 116 138v260h130v-260c0 -157 -74 -255 -246 -258v-182h-130z" />
    <glyph glyph-name="uni03A9" unicode="&#x3a9;" horiz-adv-x="696" 
d="M28 0v110h143c-64 61 -143 148 -143 293c0 175 122 305 320 305s320 -130 320 -305c0 -145 -79 -232 -143 -293h143v-110h-277v110c87 66 145 168 145 281c0 126 -80 197 -188 197s-188 -71 -188 -197c0 -113 58 -215 145 -281v-110h-277z" />
    <glyph glyph-name="Alphatonos" unicode="&#x386;" horiz-adv-x="660" 
d="M0 552l42 148h164l-112 -148h-94zM46 0l237 700h130l237 -700h-140l-51 165h-222l-51 -165h-140zM274 285h148l-74 243z" />
    <glyph glyph-name="Epsilontonos" unicode="&#x388;" horiz-adv-x="747" 
d="M0 552l42 148h164l-112 -148h-94zM254 0v700h433v-120h-303v-147h243v-120h-243v-193h313v-120h-443z" />
    <glyph glyph-name="Etatonos" unicode="&#x389;" horiz-adv-x="874" 
d="M0 552l42 148h164l-112 -148h-94zM254 0v700h130v-266h280v266h130v-700h-130v314h-280v-314h-130z" />
    <glyph glyph-name="Iotatonos" unicode="&#x38a;" horiz-adv-x="464" 
d="M0 552l42 148h164l-112 -148h-94zM254 0v700h130v-700h-130z" />
    <glyph glyph-name="Omicrontonos" unicode="&#x38c;" horiz-adv-x="854" 
d="M478 -8c-177 0 -330 115 -330 358s153 358 330 358s330 -115 330 -358s-153 -358 -330 -358zM0 552l42 148h164l-112 -148h-94zM478 112c105 0 198 72 198 238s-93 238 -198 238s-198 -72 -198 -238s93 -238 198 -238z" />
    <glyph glyph-name="Upsilontonos" unicode="&#x38e;" horiz-adv-x="768" 
d="M0 552l42 148h164l-112 -148h-94zM427 0v298l-202 402h140l127 -272l127 272h140l-202 -402v-298h-130z" />
    <glyph glyph-name="Omegatonos" unicode="&#x38f;" horiz-adv-x="812" 
d="M144 0v110h143c-64 61 -143 148 -143 293c0 175 122 305 320 305s320 -130 320 -305c0 -145 -79 -232 -143 -293h143v-110h-277v110c87 66 145 168 145 281c0 126 -80 197 -188 197s-188 -71 -188 -197c0 -113 58 -215 145 -281v-110h-277zM0 552l42 148h164l-112 -148
h-94z" />
    <glyph glyph-name="Iotadieresis" unicode="&#x3aa;" horiz-adv-x="290" 
d="M41 772c-42 0 -71 30 -71 71s29 71 71 71s71 -30 71 -71s-29 -71 -71 -71zM248 772c-42 0 -71 30 -71 71s29 71 71 71s71 -30 71 -71s-29 -71 -71 -71zM80 0v700h130v-700h-130z" />
    <glyph glyph-name="Upsilondieresis" unicode="&#x3ab;" horiz-adv-x="552" 
d="M172 772c-42 0 -71 30 -71 71s29 71 71 71s71 -30 71 -71s-29 -71 -71 -71zM379 772c-42 0 -71 30 -71 71s29 71 71 71s71 -30 71 -71s-29 -71 -71 -71zM211 0v298l-202 402h140l127 -272l127 272h140l-202 -402v-298h-130z" />
    <glyph glyph-name="alpha" unicode="&#x3b1;" horiz-adv-x="588" 
d="M262 -8c-142 0 -220 105 -220 260s78 260 220 260c61 0 110 -26 132 -54v46h124v-504h-124v52c-14 -26 -60 -60 -132 -60zM289 98c65 0 116 54 116 154s-51 154 -116 154s-117 -54 -117 -154s52 -154 117 -154z" />
    <glyph glyph-name="beta" unicode="&#x3b2;" horiz-adv-x="559" 
d="M70 -204v694c0 146 91 218 201 218c124 0 190 -71 190 -177c0 -65 -37 -115 -80 -130c72 -20 136 -85 136 -188c0 -148 -82 -221 -203 -221c-57 0 -103 25 -124 55v-251h-120zM292 100c71 0 105 45 105 112c0 73 -48 114 -120 114h-33v112h20c49 0 84 25 84 82
c0 53 -30 82 -77 82c-48 0 -81 -29 -81 -94v-294c0 -71 39 -114 102 -114z" />
    <glyph glyph-name="gamma" unicode="&#x3b3;" horiz-adv-x="480" 
d="M176 -204v222l-163 486h125l102 -351l102 351h125l-167 -486v-222h-124z" />
    <glyph glyph-name="delta" unicode="&#x3b4;" horiz-adv-x="596" 
d="M298 -8c-162 0 -256 114 -256 260s103 245 204 254l-136 100v94h383v-106h-200l153 -123c70 -57 108 -127 108 -219c0 -146 -94 -260 -256 -260zM298 98c80 0 126 71 126 154s-46 154 -126 154s-126 -71 -126 -154s46 -154 126 -154z" />
    <glyph glyph-name="epsilon" unicode="&#x3b5;" horiz-adv-x="445" 
d="M227 -8c-111 0 -187 63 -187 159c0 61 35 100 81 119c-36 23 -58 56 -58 109c0 69 54 133 164 133c99 0 152 -51 167 -118l-103 -25c-9 31 -27 47 -62 47c-38 0 -60 -23 -60 -53c0 -34 28 -57 76 -57h26v-84h-29c-50 0 -84 -24 -84 -64c0 -37 27 -62 69 -62
c38 0 68 23 73 65l111 -15c-8 -89 -80 -154 -184 -154z" />
    <glyph glyph-name="zeta" unicode="&#x3b6;" horiz-adv-x="496" 
d="M293 -212c-62 0 -115 15 -153 46l62 95c25 -27 58 -37 91 -37c37 0 68 18 68 58c0 39 -29 61 -86 61h-42c-123 0 -199 76 -199 199c0 92 47 155 115 223l159 161h-246v106h404v-98l-225 -233c-55 -56 -83 -96 -83 -153c0 -66 45 -101 104 -101h37c117 0 188 -61 188 -167
c0 -96 -75 -160 -194 -160z" />
    <glyph glyph-name="eta" unicode="&#x3b7;" horiz-adv-x="575" 
d="M381 -204v527c0 60 -30 83 -72 83c-60 0 -115 -72 -115 -205v-201h-124v504h124v-81c37 53 91 89 156 89c90 0 155 -51 155 -152v-564h-124z" />
    <glyph glyph-name="theta" unicode="&#x3b8;" horiz-adv-x="636" 
d="M318 708c182 0 276 -142 276 -358s-94 -358 -276 -358s-276 142 -276 358s94 358 276 358zM318 602c-78 0 -133 -63 -144 -199h288c-11 136 -66 199 -144 199zM318 98c78 0 133 63 144 199h-288c11 -136 66 -199 144 -199z" />
    <glyph glyph-name="iota" unicode="&#x3b9;" horiz-adv-x="264" 
d="M70 0v504h124v-504h-124z" />
    <glyph glyph-name="kappa" unicode="&#x3ba;" horiz-adv-x="530" 
d="M70 0v504h124v-198l164 198h153l-202 -232l215 -272h-152l-178 238v-238h-124z" />
    <glyph glyph-name="lambda" unicode="&#x3bb;" horiz-adv-x="496" 
d="M10 0l183 472l-27 73c-13 34 -23 56 -59 56c-9 0 -19 -1 -28 -4l-29 100c23 7 47 11 69 11c72 -1 121 -38 149 -115l218 -593h-124l-110 316l-117 -316h-125z" />
    <glyph glyph-name="uni03BC" unicode="&#x3bc;" horiz-adv-x="575" 
d="M70 -204v708h124v-323c0 -60 30 -83 72 -83c60 0 115 72 115 205v201h124v-504h-124v81c-29 -57 -67 -89 -122 -89c-30 0 -53 10 -65 23v-219h-124z" />
    <glyph glyph-name="nu" unicode="&#x3bd;" horiz-adv-x="480" 
d="M184 0l-171 504h125l102 -351l102 351h125l-171 -504h-112z" />
    <glyph glyph-name="xi" unicode="&#x3be;" horiz-adv-x="496" 
d="M283 -212c-62 0 -125 23 -175 79l64 78c45 -47 78 -53 111 -53c37 0 68 18 68 58c0 39 -29 61 -86 61h-10c-121 0 -213 69 -213 202c0 90 53 142 108 169c-52 28 -85 76 -85 150c0 91 85 176 212 176c105 0 193 -49 210 -158l-112 -32c-10 55 -48 84 -98 84
c-48 0 -90 -29 -90 -83c0 -48 38 -85 101 -85h76v-102h-79c-65 0 -119 -40 -119 -111c0 -65 41 -106 115 -106h19c107 0 177 -49 177 -165c0 -96 -85 -162 -194 -162z" />
    <glyph glyph-name="omicron" unicode="&#x3bf;" horiz-adv-x="596" 
d="M298 -8c-162 0 -256 114 -256 260s94 260 256 260s256 -114 256 -260s-94 -260 -256 -260zM298 98c80 0 126 71 126 154s-46 154 -126 154s-126 -71 -126 -154s46 -154 126 -154z" />
    <glyph glyph-name="pi" unicode="&#x3c0;" horiz-adv-x="597" 
d="M103 0v396h-83v108h557v-108h-83v-396h-124v396h-143v-396h-124z" />
    <glyph glyph-name="rho" unicode="&#x3c1;" horiz-adv-x="588" 
d="M70 -204v460c0 156 94 256 246 256s230 -105 230 -260s-78 -260 -230 -260c-51 0 -100 26 -122 54v-250h-124zM305 98c65 0 111 54 111 154s-46 154 -111 154s-111 -54 -111 -154s46 -154 111 -154z" />
    <glyph glyph-name="uni03C2" unicode="&#x3c2;" horiz-adv-x="553" 
d="M302 -212c-62 0 -115 15 -153 46l62 95c25 -27 58 -37 91 -37c34 0 68 15 68 53c0 36 -26 57 -69 57h-13c-157 0 -246 108 -246 250s82 260 246 260c112 0 191 -49 229 -144l-111 -45c-26 53 -62 83 -118 83c-66 0 -116 -53 -116 -142c0 -110 69 -156 147 -156h22
c86 0 155 -52 155 -160c0 -106 -88 -160 -194 -160z" />
    <glyph glyph-name="sigma" unicode="&#x3c3;" horiz-adv-x="596" 
d="M578 504v-106h-67c32 -42 43 -92 43 -151c0 -142 -94 -255 -256 -255s-256 114 -256 260s94 260 256 260c25 0 49 -3 71 -8h209zM298 98c80 0 126 71 126 154s-46 154 -126 154s-126 -71 -126 -154s46 -154 126 -154z" />
    <glyph glyph-name="tau" unicode="&#x3c4;" horiz-adv-x="412" 
d="M144 0v398h-135v106h394v-106h-135v-398h-124z" />
    <glyph glyph-name="upsilon" unicode="&#x3c5;" horiz-adv-x="568" 
d="M284 -8c-146 0 -218 84 -218 228v284h124v-300c0 -76 46 -106 94 -106s94 30 94 106v300h124v-284c0 -144 -72 -228 -218 -228z" />
    <glyph glyph-name="phi" unicode="&#x3c6;" horiz-adv-x="720" 
d="M298 -204v196c-152 4 -256 111 -256 260c0 141 93 248 256 259v113h124v-113c163 -11 256 -118 256 -259c0 -149 -104 -256 -256 -260v-196h-124zM298 98v308c-76 -2 -126 -67 -126 -154s50 -152 126 -154zM422 98c76 2 126 67 126 154s-50 152 -126 154v-308z" />
    <glyph glyph-name="chi" unicode="&#x3c7;" horiz-adv-x="480" 
d="M7 0l167 269l-146 235h130l82 -131l82 131h130l-146 -235l167 -269h-130l-103 164l-103 -164h-130z" />
    <glyph glyph-name="psi" unicode="&#x3c8;" horiz-adv-x="728" 
d="M302 -204v196c-146 0 -232 84 -232 228v284h124v-290c0 -75 46 -116 108 -116v526h124v-526c62 0 108 41 108 116v290h124v-284c0 -144 -86 -228 -232 -228v-196h-124z" />
    <glyph glyph-name="omega" unicode="&#x3c9;" horiz-adv-x="754" 
d="M227 -8c-90 0 -191 51 -191 216c0 112 46 213 111 304l102 -71c-54 -79 -83 -149 -83 -240c0 -71 36 -103 78 -103c43 0 71 34 71 93v183h124v-183c0 -59 28 -93 71 -93c42 0 78 32 78 103c0 91 -29 161 -83 240l102 71c65 -91 111 -192 111 -304
c0 -165 -101 -216 -191 -216c-84 0 -134 50 -150 106c-17 -56 -66 -106 -150 -106z" />
    <glyph glyph-name="iotatonos" unicode="&#x3af;" horiz-adv-x="264" 
d="M80 560l42 148h164l-112 -148h-94zM70 0v504h124v-504h-124z" />
    <glyph glyph-name="iotadieresis" unicode="&#x3ca;" horiz-adv-x="264" 
d="M28 576c-42 0 -71 30 -71 71s29 71 71 71s71 -30 71 -71s-29 -71 -71 -71zM235 576c-42 0 -71 30 -71 71s29 71 71 71s71 -30 71 -71s-29 -71 -71 -71zM70 0v504h124v-504h-124z" />
    <glyph glyph-name="iotadieresistonos" unicode="&#x390;" horiz-adv-x="264" 
d="M53 560l42 148h134l-102 -148h-74zM-18 576c-31 0 -54 24 -54 54c0 31 23 56 54 56c33 0 56 -25 56 -56c0 -30 -23 -54 -56 -54zM279 576c-30 0 -54 24 -54 54c0 31 24 56 54 56c32 0 56 -25 56 -56c0 -30 -24 -54 -56 -54zM70 0v504h124v-504h-124z" />
    <glyph glyph-name="upsilontonos" unicode="&#x3cd;" horiz-adv-x="568" 
d="M232 560l42 148h164l-112 -148h-94zM284 -8c-146 0 -218 84 -218 228v284h124v-300c0 -76 46 -106 94 -106s94 30 94 106v300h124v-284c0 -144 -72 -228 -218 -228z" />
    <glyph glyph-name="upsilondieresis" unicode="&#x3cb;" horiz-adv-x="568" 
d="M180 576c-42 0 -71 30 -71 71s29 71 71 71s71 -30 71 -71s-29 -71 -71 -71zM387 576c-42 0 -71 30 -71 71s29 71 71 71s71 -30 71 -71s-29 -71 -71 -71zM284 -8c-146 0 -218 84 -218 228v284h124v-300c0 -76 46 -106 94 -106s94 30 94 106v300h124v-284
c0 -144 -72 -228 -218 -228z" />
    <glyph glyph-name="upsilondieresistonos" unicode="&#x3b0;" horiz-adv-x="568" 
d="M205 560l42 148h134l-102 -148h-74zM134 576c-31 0 -54 24 -54 54c0 31 23 56 54 56c33 0 56 -25 56 -56c0 -30 -23 -54 -56 -54zM431 576c-30 0 -54 24 -54 54c0 31 24 56 54 56c32 0 56 -25 56 -56c0 -30 -24 -54 -56 -54zM284 -8c-146 0 -218 84 -218 228v284h124
v-300c0 -76 46 -106 94 -106s94 30 94 106v300h124v-284c0 -144 -72 -228 -218 -228z" />
    <glyph glyph-name="omicrontonos" unicode="&#x3cc;" horiz-adv-x="596" 
d="M246 560l42 148h164l-112 -148h-94zM298 -8c-162 0 -256 114 -256 260s94 260 256 260s256 -114 256 -260s-94 -260 -256 -260zM298 98c80 0 126 71 126 154s-46 154 -126 154s-126 -71 -126 -154s46 -154 126 -154z" />
    <glyph glyph-name="omegatonos" unicode="&#x3ce;" horiz-adv-x="754" 
d="M325 560l42 148h164l-112 -148h-94zM227 -8c-90 0 -191 51 -191 216c0 112 46 213 111 304l102 -71c-54 -79 -83 -149 -83 -240c0 -71 36 -103 78 -103c43 0 71 34 71 93v183h124v-183c0 -59 28 -93 71 -93c42 0 78 32 78 103c0 91 -29 161 -83 240l102 71
c65 -91 111 -192 111 -304c0 -165 -101 -216 -191 -216c-84 0 -134 50 -150 106c-17 -56 -66 -106 -150 -106z" />
    <glyph glyph-name="alphatonos" unicode="&#x3ac;" horiz-adv-x="588" 
d="M227 560l42 148h164l-112 -148h-94zM262 -8c-142 0 -220 105 -220 260s78 260 220 260c61 0 110 -26 132 -54v46h124v-504h-124v52c-14 -26 -60 -60 -132 -60zM289 98c65 0 116 54 116 154s-51 154 -116 154s-117 -54 -117 -154s52 -154 117 -154z" />
    <glyph glyph-name="epsilontonos" unicode="&#x3ad;" horiz-adv-x="445" 
d="M173 560l42 148h164l-112 -148h-94zM227 -8c-111 0 -187 63 -187 159c0 61 35 100 81 119c-36 23 -58 56 -58 109c0 69 54 133 164 133c99 0 152 -51 167 -118l-103 -25c-9 31 -27 47 -62 47c-38 0 -60 -23 -60 -53c0 -34 28 -57 76 -57h26v-84h-29
c-50 0 -84 -24 -84 -64c0 -37 27 -62 69 -62c38 0 68 23 73 65l111 -15c-8 -89 -80 -154 -184 -154z" />
    <glyph glyph-name="etatonos" unicode="&#x3ae;" horiz-adv-x="575" 
d="M240 560l42 148h164l-112 -148h-94zM381 -204v527c0 60 -30 83 -72 83c-60 0 -115 -72 -115 -205v-201h-124v504h124v-81c37 53 91 89 156 89c90 0 155 -51 155 -152v-564h-124z" />
    <glyph glyph-name="lambda_lambda" horiz-adv-x="848" 
d="M620 593l218 -593h-124l-110 316l-117 -316h-125l-110 316l-117 -316h-125l183 472l-27 73c-13 34 -23 56 -59 56c-9 0 -19 -1 -28 -4l-29 100c23 7 47 11 69 11c72 -1 121 -38 149 -115l158 -429l119 308l-27 73c-13 34 -23 56 -59 56c-9 0 -19 -1 -28 -4l-29 100
c23 7 47 11 69 11c72 0 121 -38 149 -115z" />
    <glyph glyph-name="zero" unicode="0" horiz-adv-x="616" 
d="M308 -8c-167 0 -258 134 -258 358s91 358 258 358s258 -134 258 -358s-91 -358 -258 -358zM308 108c92 0 134 86 134 242s-42 242 -134 242s-134 -86 -134 -242s42 -242 134 -242z" />
    <glyph glyph-name="one" unicode="1" horiz-adv-x="386" 
d="M180 0v524l-134 -80v136l205 120h55v-700h-126z" />
    <glyph glyph-name="two" unicode="2" horiz-adv-x="512" 
d="M26 0v50l250 323c42 53 54 87 54 127c0 57 -29 92 -86 92c-50 0 -83 -33 -91 -92l-116 22c7 106 93 186 210 186c133 0 209 -85 209 -203c0 -56 -18 -111 -60 -166l-171 -223h246v-116h-445z" />
    <glyph glyph-name="three" unicode="3" horiz-adv-x="555" 
d="M276 -8c-130 0 -222 85 -234 202l121 16c15 -62 50 -102 113 -102c65 0 111 45 111 117c0 81 -47 123 -110 123c-22 0 -40 -4 -61 -15l-50 70l132 181h-223v116h401v-44l-165 -223c9 1 16 2 28 2c108 0 174 -85 174 -208c0 -145 -102 -235 -237 -235z" />
    <glyph glyph-name="four" unicode="4" horiz-adv-x="572" 
d="M342 0v130h-301v64l295 506h132v-454h78v-116h-78v-130h-126zM194 246h148v267z" />
    <glyph glyph-name="five" unicode="5" horiz-adv-x="527" 
d="M265 -8c-119 0 -212 75 -224 191l119 22c15 -77 59 -97 105 -97c68 0 104 45 104 124c0 78 -39 121 -110 121c-47 0 -91 -26 -124 -63l-79 16l39 394h360v-116h-257l-16 -146c27 16 61 26 99 26c146 0 214 -95 214 -232c0 -141 -90 -240 -230 -240z" />
    <glyph glyph-name="six" unicode="6" horiz-adv-x="552" 
d="M276 -8c-132 0 -234 97 -234 228c0 42 14 88 34 123l204 365h140l-152 -260h16c128 0 226 -92 226 -228c0 -130 -100 -228 -234 -228zM276 108c60 0 108 44 108 112c0 72 -48 112 -108 112s-108 -40 -108 -112c0 -68 49 -112 108 -112z" />
    <glyph glyph-name="seven" unicode="7" horiz-adv-x="484" 
d="M67 0l239 584h-275v116h424v-52l-264 -648h-124z" />
    <glyph glyph-name="eight" unicode="8" horiz-adv-x="544" 
d="M272 -8c-122 0 -228 81 -228 217c0 79 35 136 92 168c-42 33 -65 83 -65 140c0 104 82 191 201 191s201 -87 201 -191c0 -57 -24 -107 -66 -140c57 -32 93 -89 93 -168c0 -136 -106 -217 -228 -217zM272 426c51 0 84 36 84 89c0 52 -33 87 -84 87s-84 -35 -84 -87
c0 -53 33 -89 84 -89zM272 108c57 0 102 36 102 101s-45 101 -102 101s-102 -36 -102 -101s45 -101 102 -101z" />
    <glyph glyph-name="nine" unicode="9" horiz-adv-x="552" 
d="M132 -8l152 260h-16c-128 0 -226 92 -226 228c0 130 100 228 234 228c132 0 234 -97 234 -228c0 -42 -14 -88 -34 -123l-204 -365h-140zM276 368c60 0 108 40 108 112c0 68 -49 112 -108 112c-60 0 -108 -44 -108 -112c0 -72 48 -112 108 -112z" />
    <glyph glyph-name="zero.osf" horiz-adv-x="596" 
d="M298 -8c-162 0 -256 114 -256 260s94 260 256 260s256 -114 256 -260s-94 -260 -256 -260zM298 98c80 0 126 71 126 154s-46 154 -126 154s-126 -71 -126 -154s46 -154 126 -154z" />
    <glyph glyph-name="one.osf" horiz-adv-x="370" 
d="M174 0v328l-134 -80v136l205 120h55v-504h-126z" />
    <glyph glyph-name="two.osf" horiz-adv-x="444" 
d="M35 0v50l131 131c96 96 117 114 117 156c0 37 -26 59 -65 59s-72 -21 -80 -74l-108 18c2 100 85 172 187 172c133 0 184 -85 184 -172c0 -76 -47 -116 -102 -171l-53 -53h167v-116h-378z" />
    <glyph glyph-name="three.osf" horiz-adv-x="545" 
d="M271 -204c-130 0 -222 85 -234 202l121 16c15 -62 50 -102 113 -102c65 0 111 45 111 117c0 81 -47 123 -110 123c-22 0 -40 -4 -61 -15l-50 70l132 181h-223v116h401v-44l-165 -223c9 1 16 2 28 2c108 0 174 -85 174 -208c0 -145 -102 -235 -237 -235z" />
    <glyph glyph-name="four.osf" horiz-adv-x="568" 
d="M338 -196v130h-301v64l295 506h132v-454h78v-116h-78v-130h-126zM190 50h148v267z" />
    <glyph glyph-name="five.osf" horiz-adv-x="527" 
d="M265 -204c-119 0 -212 75 -224 191l119 22c15 -77 59 -97 105 -97c68 0 104 45 104 124c0 78 -39 121 -110 121c-47 0 -91 -26 -124 -63l-79 16l39 394h360v-116h-257l-16 -146c27 16 61 26 99 26c146 0 214 -95 214 -232c0 -141 -90 -240 -230 -240z" />
    <glyph glyph-name="six.osf" horiz-adv-x="552" 
d="M276 -8c-132 0 -234 97 -234 228c0 42 14 88 34 123l204 365h140l-152 -260h16c128 0 226 -92 226 -228c0 -130 -100 -228 -234 -228zM276 108c60 0 108 44 108 112c0 72 -48 112 -108 112s-108 -40 -108 -112c0 -68 49 -112 108 -112z" />
    <glyph glyph-name="seven.osf" horiz-adv-x="484" 
d="M67 -196l239 584h-275v116h424v-52l-264 -648h-124z" />
    <glyph glyph-name="eight.osf" horiz-adv-x="544" 
d="M272 -8c-122 0 -228 81 -228 217c0 79 35 136 92 168c-42 33 -65 83 -65 140c0 104 82 191 201 191s201 -87 201 -191c0 -57 -24 -107 -66 -140c57 -32 93 -89 93 -168c0 -136 -106 -217 -228 -217zM272 426c51 0 84 36 84 89c0 52 -33 87 -84 87s-84 -35 -84 -87
c0 -53 33 -89 84 -89zM272 108c57 0 102 36 102 101s-45 101 -102 101s-102 -36 -102 -101s45 -101 102 -101z" />
    <glyph glyph-name="nine.osf" horiz-adv-x="552" 
d="M132 -204l152 260h-16c-128 0 -226 92 -226 228c0 130 100 228 234 228c132 0 234 -97 234 -228c0 -42 -14 -88 -34 -123l-204 -365h-140zM276 172c60 0 108 40 108 112c0 68 -49 112 -108 112c-60 0 -108 -44 -108 -112c0 -72 48 -112 108 -112z" />
    <glyph glyph-name="zero.osf.zero" horiz-adv-x="596" 
d="M298 512c162 0 256 -114 256 -260s-94 -260 -256 -260s-256 114 -256 260s94 260 256 260zM298 406c-80 0 -126 -71 -126 -154c0 -33 7 -64 21 -89l129 241c-7 1 -15 2 -24 2zM298 98c80 0 126 71 126 154c0 33 -7 63 -21 89l-129 -241c8 -1 16 -2 24 -2z" />
    <glyph glyph-name="zero.tf" 
d="M310 -8c-167 0 -258 134 -258 358s91 358 258 358s258 -134 258 -358s-91 -358 -258 -358zM310 108c92 0 134 86 134 242s-42 242 -134 242s-134 -86 -134 -242s42 -242 134 -242z" />
    <glyph glyph-name="one.tf" 
d="M376 120h140v-120h-412v120h146v404l-134 -80v136l205 120h55v-580z" />
    <glyph glyph-name="two.tf" 
d="M87 0v50l250 323c42 53 54 87 54 127c0 57 -29 92 -86 92c-50 0 -83 -33 -91 -92l-116 22c7 106 93 186 210 186c133 0 209 -85 209 -203c0 -56 -18 -111 -60 -166l-171 -223h246v-116h-445z" />
    <glyph glyph-name="three.tf" 
d="M308 -8c-130 0 -222 85 -234 202l121 16c15 -62 50 -102 113 -102c65 0 111 45 111 117c0 81 -47 123 -110 123c-22 0 -40 -4 -61 -15l-50 70l132 181h-223v116h401v-44l-165 -223c9 1 16 2 28 2c108 0 174 -85 174 -208c0 -145 -102 -235 -237 -235z" />
    <glyph glyph-name="four.tf" 
d="M358 0v130h-301v64l295 506h132v-454h78v-116h-78v-130h-126zM210 246h148v267z" />
    <glyph glyph-name="five.tf" 
d="M307 -8c-119 0 -212 75 -224 191l119 22c15 -77 59 -97 105 -97c68 0 104 45 104 124c0 78 -39 121 -110 121c-47 0 -91 -26 -124 -63l-79 16l39 394h360v-116h-257l-16 -146c27 16 61 26 99 26c146 0 214 -95 214 -232c0 -141 -90 -240 -230 -240z" />
    <glyph glyph-name="six.tf" 
d="M310 -8c-132 0 -234 97 -234 228c0 42 14 88 34 123l204 365h140l-152 -260h16c128 0 226 -92 226 -228c0 -130 -100 -228 -234 -228zM310 108c60 0 108 44 108 112c0 72 -48 112 -108 112s-108 -40 -108 -112c0 -68 49 -112 108 -112z" />
    <glyph glyph-name="seven.tf" 
d="M134 0l239 584h-275v116h424v-52l-264 -648h-124z" />
    <glyph glyph-name="eight.tf" 
d="M310 -8c-122 0 -228 81 -228 217c0 79 35 136 92 168c-42 33 -65 83 -65 140c0 104 82 191 201 191s201 -87 201 -191c0 -57 -24 -107 -66 -140c57 -32 93 -89 93 -168c0 -136 -106 -217 -228 -217zM310 426c51 0 84 36 84 89c0 52 -33 87 -84 87s-84 -35 -84 -87
c0 -53 33 -89 84 -89zM310 108c57 0 102 36 102 101s-45 101 -102 101s-102 -36 -102 -101s45 -101 102 -101z" />
    <glyph glyph-name="nine.tf" 
d="M166 -8l152 260h-16c-128 0 -226 92 -226 228c0 130 100 228 234 228c132 0 234 -97 234 -228c0 -42 -14 -88 -34 -123l-204 -365h-140zM310 368c60 0 108 40 108 112c0 68 -49 112 -108 112c-60 0 -108 -44 -108 -112c0 -72 48 -112 108 -112z" />
    <glyph glyph-name="zero.tf.zero" 
d="M310 -8c-167 0 -258 134 -258 358s91 358 258 358s258 -134 258 -358s-91 -358 -258 -358zM186 234l186 341c-17 11 -38 17 -62 17c-92 0 -134 -86 -134 -242c0 -45 3 -83 10 -116zM310 108c92 0 134 86 134 242c0 45 -3 84 -11 117l-186 -341c18 -12 39 -18 63 -18z" />
    <glyph glyph-name="zero.tosf" 
d="M310 -8c-162 0 -256 114 -256 260s94 260 256 260s256 -114 256 -260s-94 -260 -256 -260zM310 98c80 0 126 71 126 154s-46 154 -126 154s-126 -71 -126 -154s46 -154 126 -154z" />
    <glyph glyph-name="one.tosf" 
d="M380 116h129v-116h-398v116h143v212l-134 -80v136l205 120h55v-388z" />
    <glyph glyph-name="two.tosf" 
d="M123 0v50l131 131c96 96 117 114 117 156c0 37 -26 59 -65 59s-72 -21 -80 -74l-108 18c2 100 85 172 187 172c133 0 184 -85 184 -172c0 -76 -47 -116 -102 -171l-53 -53h167v-116h-378z" />
    <glyph glyph-name="three.tosf" 
d="M308 -204c-130 0 -222 85 -234 202l121 16c15 -62 50 -102 113 -102c65 0 111 45 111 117c0 81 -47 123 -110 123c-22 0 -40 -4 -61 -15l-50 70l132 181h-223v116h401v-44l-165 -223c9 1 16 2 28 2c108 0 174 -85 174 -208c0 -145 -102 -235 -237 -235z" />
    <glyph glyph-name="four.tosf" 
d="M358 -196v130h-301v64l295 506h132v-454h78v-116h-78v-130h-126zM210 50h148v267z" />
    <glyph glyph-name="five.tosf" 
d="M307 -204c-119 0 -212 75 -224 191l119 22c15 -77 59 -97 105 -97c68 0 104 45 104 124c0 78 -39 121 -110 121c-47 0 -91 -26 -124 -63l-79 16l39 394h360v-116h-257l-16 -146c27 16 61 26 99 26c146 0 214 -95 214 -232c0 -141 -90 -240 -230 -240z" />
    <glyph glyph-name="six.tosf" 
d="M310 -8c-132 0 -234 97 -234 228c0 42 14 88 34 123l204 365h140l-152 -260h16c128 0 226 -92 226 -228c0 -130 -100 -228 -234 -228zM310 108c60 0 108 44 108 112c0 72 -48 112 -108 112s-108 -40 -108 -112c0 -68 49 -112 108 -112z" />
    <glyph glyph-name="seven.tosf" 
d="M134 -197l239 584h-275v116h424v-52l-264 -648h-124z" />
    <glyph glyph-name="eight.tosf" 
d="M310 -8c-122 0 -228 81 -228 217c0 79 35 136 92 168c-42 33 -65 83 -65 140c0 104 82 191 201 191s201 -87 201 -191c0 -57 -24 -107 -66 -140c57 -32 93 -89 93 -168c0 -136 -106 -217 -228 -217zM310 426c51 0 84 36 84 89c0 52 -33 87 -84 87s-84 -35 -84 -87
c0 -53 33 -89 84 -89zM310 108c57 0 102 36 102 101s-45 101 -102 101s-102 -36 -102 -101s45 -101 102 -101z" />
    <glyph glyph-name="nine.tosf" 
d="M166 -204l152 260h-16c-128 0 -226 92 -226 228c0 130 100 228 234 228c132 0 234 -97 234 -228c0 -42 -14 -88 -34 -123l-204 -365h-140zM310 172c60 0 108 40 108 112c0 68 -49 112 -108 112c-60 0 -108 -44 -108 -112c0 -72 48 -112 108 -112z" />
    <glyph glyph-name="zero.tosf.zero" 
d="M310 512c162 0 256 -114 256 -260s-94 -260 -256 -260s-256 114 -256 260s94 260 256 260zM310 406c-80 0 -126 -71 -126 -154c0 -33 7 -64 21 -89l129 241c-7 1 -15 2 -24 2zM310 98c80 0 126 71 126 154c0 33 -7 63 -21 89l-129 -241c8 -1 16 -2 24 -2z" />
    <glyph glyph-name="zero.zero" horiz-adv-x="616" 
d="M308 -8c-167 0 -258 134 -258 358s91 358 258 358s258 -134 258 -358s-91 -358 -258 -358zM184 234l186 341c-17 11 -38 17 -62 17c-92 0 -134 -86 -134 -242c0 -45 3 -83 10 -116zM308 108c92 0 134 86 134 242c0 45 -3 84 -11 117l-186 -341c18 -12 39 -18 63 -18z" />
    <glyph glyph-name="uni2080" unicode="&#x2080;" horiz-adv-x="414" 
d="M207 -208c-102 0 -166 74 -166 204c0 131 64 204 166 204s166 -73 166 -204c0 -130 -64 -204 -166 -204zM207 -125c38 0 74 33 74 121c0 89 -36 121 -74 121s-74 -32 -74 -121c0 -88 36 -121 74 -121z" />
    <glyph glyph-name="uni2081" unicode="&#x2081;" horiz-adv-x="245" 
d="M110 -204v278l-85 -38v95l137 65h37v-400h-89z" />
    <glyph glyph-name="uni2082" unicode="&#x2082;" horiz-adv-x="333" 
d="M31 -204v35l145 177c21 25 27 47 27 68c0 27 -16 41 -38 41s-43 -11 -51 -53l-80 23c8 67 62 113 131 113c77 0 131 -46 131 -122c0 -41 -18 -72 -40 -99l-82 -100h128v-83h-271z" />
    <glyph glyph-name="uni2083" unicode="&#x2083;" horiz-adv-x="338" 
d="M173 -208c-82 0 -136 55 -140 126l80 10c7 -36 31 -53 58 -53c32 0 49 21 49 59c0 37 -21 53 -48 53c-16 0 -24 -3 -37 -10l-40 50l66 86h-110v83h237v-35l-89 -114c67 0 114 -53 114 -116c0 -82 -45 -139 -140 -139z" />
    <glyph glyph-name="uni2084" unicode="&#x2084;" horiz-adv-x="348" 
d="M195 -204v65h-167v45l161 290h95v-252h43v-83h-43v-65h-89zM132 -56h63v122z" />
    <glyph glyph-name="uni2085" unicode="&#x2085;" horiz-adv-x="349" 
d="M173 -208c-71 0 -131 50 -138 118l87 10c6 -28 26 -45 51 -45c35 0 54 22 54 59c0 36 -18 55 -54 55c-22 0 -40 -7 -58 -23l-71 15l21 215h230v-83h-155l-10 -67c16 9 38 15 63 15c84 0 127 -56 127 -127c0 -89 -58 -142 -147 -142z" />
    <glyph glyph-name="uni2086" unicode="&#x2086;" horiz-adv-x="363" 
d="M181 -208c-83 0 -140 53 -140 132c0 27 6 54 18 75l113 201h100l-89 -148c5 2 11 3 18 3c62 0 121 -39 121 -131c0 -78 -58 -132 -141 -132zM181 -125c27 0 47 20 47 49c0 30 -20 48 -47 48c-26 0 -47 -18 -47 -48c0 -29 21 -49 47 -49z" />
    <glyph glyph-name="uni2087" unicode="&#x2087;" horiz-adv-x="309" 
d="M45 -204l132 317h-148v83h261v-35l-150 -365h-95z" />
    <glyph glyph-name="uni2088" unicode="&#x2088;" horiz-adv-x="358" 
d="M179 -208c-83 0 -138 51 -138 130c0 50 30 77 58 90c-29 16 -45 45 -45 80c0 56 46 108 125 108s125 -52 125 -108c0 -35 -16 -64 -45 -80c28 -13 58 -40 58 -90c0 -79 -55 -130 -138 -130zM179 45c26 0 41 17 41 44s-15 44 -41 44s-41 -17 -41 -44s15 -44 41 -44z
M179 -125c28 0 45 20 45 47s-17 47 -45 47s-45 -20 -45 -47s17 -47 45 -47z" />
    <glyph glyph-name="uni2089" unicode="&#x2089;" horiz-adv-x="363" 
d="M91 -208l89 148c-5 -2 -11 -3 -18 -3c-62 0 -121 39 -121 131c0 78 58 132 141 132s140 -53 140 -132c0 -27 -6 -54 -18 -75l-113 -201h-100zM182 20c26 0 47 18 47 48c0 29 -21 49 -47 49c-27 0 -47 -20 -47 -49c0 -30 20 -48 47 -48z" />
    <glyph glyph-name="uni2070" unicode="&#x2070;" horiz-adv-x="414" 
d="M207 296c-102 0 -166 74 -166 204c0 131 64 204 166 204s166 -73 166 -204c0 -130 -64 -204 -166 -204zM207 379c38 0 74 33 74 121c0 89 -36 121 -74 121s-74 -32 -74 -121c0 -88 36 -121 74 -121z" />
    <glyph glyph-name="uni00B9" unicode="&#xb9;" horiz-adv-x="245" 
d="M110 300v278l-85 -38v95l137 65h37v-400h-89z" />
    <glyph glyph-name="uni00B2" unicode="&#xb2;" horiz-adv-x="333" 
d="M31 300v35l145 177c21 25 27 47 27 68c0 27 -16 41 -38 41s-43 -11 -51 -53l-80 23c8 67 62 113 131 113c77 0 131 -46 131 -122c0 -41 -18 -72 -40 -99l-82 -100h128v-83h-271z" />
    <glyph glyph-name="uni00B3" unicode="&#xb3;" horiz-adv-x="338" 
d="M173 296c-82 0 -136 55 -140 126l80 10c7 -36 31 -53 58 -53c32 0 49 21 49 59c0 37 -21 53 -48 53c-16 0 -24 -3 -37 -10l-40 50l66 86h-110v83h237v-35l-89 -114c67 0 114 -53 114 -116c0 -82 -45 -139 -140 -139z" />
    <glyph glyph-name="uni2074" unicode="&#x2074;" horiz-adv-x="348" 
d="M195 300v65h-167v45l161 290h95v-252h43v-83h-43v-65h-89zM132 448h63v122z" />
    <glyph glyph-name="uni2075" unicode="&#x2075;" horiz-adv-x="349" 
d="M173 296c-71 0 -131 50 -138 118l87 10c6 -28 26 -45 51 -45c35 0 54 22 54 59c0 36 -18 55 -54 55c-22 0 -40 -7 -58 -23l-71 15l21 215h230v-83h-155l-10 -67c16 9 38 15 63 15c84 0 127 -56 127 -127c0 -89 -58 -142 -147 -142z" />
    <glyph glyph-name="uni2076" unicode="&#x2076;" horiz-adv-x="363" 
d="M181 296c-83 0 -140 53 -140 132c0 27 6 54 18 75l113 201h100l-89 -148c5 2 11 3 18 3c62 0 121 -39 121 -131c0 -78 -58 -132 -141 -132zM181 379c27 0 47 20 47 49c0 30 -20 48 -47 48c-26 0 -47 -18 -47 -48c0 -29 21 -49 47 -49z" />
    <glyph glyph-name="uni2077" unicode="&#x2077;" horiz-adv-x="309" 
d="M45 300l132 317h-148v83h261v-35l-150 -365h-95z" />
    <glyph glyph-name="uni2078" unicode="&#x2078;" horiz-adv-x="358" 
d="M179 296c-83 0 -138 51 -138 130c0 50 30 77 58 90c-29 16 -45 45 -45 80c0 56 46 108 125 108s125 -52 125 -108c0 -35 -16 -64 -45 -80c28 -13 58 -40 58 -90c0 -79 -55 -130 -138 -130zM179 549c26 0 41 17 41 44s-15 44 -41 44s-41 -17 -41 -44s15 -44 41 -44z
M179 379c28 0 45 20 45 47s-17 47 -45 47s-45 -20 -45 -47s17 -47 45 -47z" />
    <glyph glyph-name="uni2079" unicode="&#x2079;" horiz-adv-x="363" 
d="M91 296l89 148c-5 -2 -11 -3 -18 -3c-62 0 -121 39 -121 131c0 78 58 132 141 132s140 -53 140 -132c0 -27 -6 -54 -18 -75l-113 -201h-100zM182 524c26 0 47 18 47 48c0 29 -21 49 -47 49c-27 0 -47 -20 -47 -49c0 -30 20 -48 47 -48z" />
    <glyph glyph-name="fraction" unicode="&#x2044;" horiz-adv-x="616" 
d="M75 -38l-72 58l538 718l72 -57z" />
    <glyph glyph-name="onehalf" unicode="&#xbd;" horiz-adv-x="854" 
d="M179 -38l-72 58l538 718l72 -57zM110 300v278l-85 -38v95l137 65h37v-400h-89zM552 0v35l145 177c21 25 27 47 27 68c0 27 -16 41 -38 41s-43 -11 -51 -53l-80 23c8 67 62 113 131 113c77 0 131 -46 131 -122c0 -41 -18 -72 -40 -99l-82 -100h128v-83h-271z" />
    <glyph glyph-name="uni2153" unicode="&#x2153;" horiz-adv-x="867" 
d="M179 -38l-72 58l538 718l72 -57zM110 300v278l-85 -38v95l137 65h37v-400h-89zM702 -8c-82 0 -136 55 -140 126l80 10c7 -36 31 -53 58 -53c32 0 49 21 49 59c0 37 -21 53 -48 53c-16 0 -24 -3 -37 -10l-40 50l66 86h-110v83h237v-35l-89 -114c67 0 114 -53 114 -116
c0 -82 -45 -139 -140 -139z" />
    <glyph glyph-name="uni2154" unicode="&#x2154;" horiz-adv-x="956" 
d="M268 -38l-72 58l538 718l72 -57zM31 300v35l145 177c21 25 27 47 27 68c0 27 -16 41 -38 41s-43 -11 -51 -53l-80 23c8 67 62 113 131 113c77 0 131 -46 131 -122c0 -41 -18 -72 -40 -99l-82 -100h128v-83h-271zM791 -8c-82 0 -136 55 -140 126l80 10
c7 -36 31 -53 58 -53c32 0 49 21 49 59c0 37 -21 53 -48 53c-16 0 -24 -3 -37 -10l-40 50l66 86h-110v83h237v-35l-89 -114c67 0 114 -53 114 -116c0 -82 -45 -139 -140 -139z" />
    <glyph glyph-name="onequarter" unicode="&#xbc;" horiz-adv-x="758" 
d="M179 -38l-72 58l538 718l72 -57zM110 300v278l-85 -38v95l137 65h37v-400h-89zM605 0v65h-167v45l161 290h95v-252h43v-83h-43v-65h-89zM542 148h63v122z" />
    <glyph glyph-name="threequarters" unicode="&#xbe;" horiz-adv-x="802" 
d="M223 -38l-72 58l538 718l72 -57zM173 296c-82 0 -136 55 -140 126l80 10c7 -36 31 -53 58 -53c32 0 49 21 49 59c0 37 -21 53 -48 53c-16 0 -24 -3 -37 -10l-40 50l66 86h-110v83h237v-35l-89 -114c67 0 114 -53 114 -116c0 -82 -45 -139 -140 -139zM649 0v65h-167v45
l161 290h95v-252h43v-83h-43v-65h-89zM586 148h63v122z" />
    <glyph glyph-name="oneeighth" unicode="&#x215b;" horiz-adv-x="851" 
d="M179 -38l-72 58l538 718l72 -57zM110 300v278l-85 -38v95l137 65h37v-400h-89zM672 -8c-83 0 -138 51 -138 130c0 50 30 77 58 90c-29 16 -45 45 -45 80c0 56 46 108 125 108s125 -52 125 -108c0 -35 -16 -64 -45 -80c28 -13 58 -40 58 -90c0 -79 -55 -130 -138 -130z
M672 245c26 0 41 17 41 44s-15 44 -41 44s-41 -17 -41 -44s15 -44 41 -44zM672 75c28 0 45 20 45 47s-17 47 -45 47s-45 -20 -45 -47s17 -47 45 -47z" />
    <glyph glyph-name="threeeighths" unicode="&#x215c;" horiz-adv-x="895" 
d="M223 -38l-72 58l538 718l72 -57zM173 296c-82 0 -136 55 -140 126l80 10c7 -36 31 -53 58 -53c32 0 49 21 49 59c0 37 -21 53 -48 53c-16 0 -24 -3 -37 -10l-40 50l66 86h-110v83h237v-35l-89 -114c67 0 114 -53 114 -116c0 -82 -45 -139 -140 -139zM716 -8
c-83 0 -138 51 -138 130c0 50 30 77 58 90c-29 16 -45 45 -45 80c0 56 46 108 125 108s125 -52 125 -108c0 -35 -16 -64 -45 -80c28 -13 58 -40 58 -90c0 -79 -55 -130 -138 -130zM716 245c26 0 41 17 41 44s-15 44 -41 44s-41 -17 -41 -44s15 -44 41 -44zM716 75
c28 0 45 20 45 47s-17 47 -45 47s-45 -20 -45 -47s17 -47 45 -47z" />
    <glyph glyph-name="fiveeighths" unicode="&#x215d;" horiz-adv-x="895" 
d="M223 -38l-72 58l538 718l72 -57zM173 296c-71 0 -131 50 -138 118l87 10c6 -28 26 -45 51 -45c35 0 54 22 54 59c0 36 -18 55 -54 55c-22 0 -40 -7 -58 -23l-71 15l21 215h230v-83h-155l-10 -67c16 9 38 15 63 15c84 0 127 -56 127 -127c0 -89 -58 -142 -147 -142z
M716 -8c-83 0 -138 51 -138 130c0 50 30 77 58 90c-29 16 -45 45 -45 80c0 56 46 108 125 108s125 -52 125 -108c0 -35 -16 -64 -45 -80c28 -13 58 -40 58 -90c0 -79 -55 -130 -138 -130zM716 245c26 0 41 17 41 44s-15 44 -41 44s-41 -17 -41 -44s15 -44 41 -44zM716 75
c28 0 45 20 45 47s-17 47 -45 47s-45 -20 -45 -47s17 -47 45 -47z" />
    <glyph glyph-name="seveneighths" unicode="&#x215e;" horiz-adv-x="803" 
d="M131 -38l-72 58l538 718l72 -57zM45 300l132 317h-148v83h261v-35l-150 -365h-95zM624 -8c-83 0 -138 51 -138 130c0 50 30 77 58 90c-29 16 -45 45 -45 80c0 56 46 108 125 108s125 -52 125 -108c0 -35 -16 -64 -45 -80c28 -13 58 -40 58 -90c0 -79 -55 -130 -138 -130z
M624 245c26 0 41 17 41 44s-15 44 -41 44s-41 -17 -41 -44s15 -44 41 -44zM624 75c28 0 45 20 45 47s-17 47 -45 47s-45 -20 -45 -47s17 -47 45 -47z" />
    <glyph glyph-name="uni2080.zero" horiz-adv-x="414" 
d="M207 200c102 0 166 -73 166 -204c0 -130 -64 -204 -166 -204s-166 74 -166 204c0 131 64 204 166 204zM207 117c-38 0 -74 -32 -74 -121c0 -27 3 -49 9 -66l76 186c-4 1 -7 1 -11 1zM207 -125c38 0 74 33 74 121c0 26 -3 48 -9 65l-75 -185c3 -1 7 -1 10 -1z" />
    <glyph glyph-name="uni2070.zero" horiz-adv-x="414" 
d="M207 704c102 0 166 -73 166 -204c0 -130 -64 -204 -166 -204s-166 74 -166 204c0 131 64 204 166 204zM207 621c-38 0 -74 -32 -74 -121c0 -27 3 -49 9 -66l76 186c-4 1 -7 1 -11 1zM207 379c38 0 74 33 74 121c0 26 -3 48 -9 65l-75 -185c3 -1 7 -1 10 -1z" />
    <glyph glyph-name="asterisk" unicode="*" horiz-adv-x="486" 
d="M177 341l-85 63l67 91l-109 37l33 99l109 -36v113h102v-113l109 36l33 -99l-109 -37l67 -91l-85 -63l-66 93z" />
    <glyph glyph-name="backslash" unicode="\" horiz-adv-x="558" 
d="M437 -50l-436 800h120l436 -800h-120z" />
    <glyph glyph-name="periodcentered" unicode="&#xb7;" horiz-adv-x="328" 
d="M164 266c-48 0 -84 36 -84 84s36 84 84 84s84 -36 84 -84s-36 -84 -84 -84z" />
    <glyph glyph-name="bullet" unicode="&#x2022;" horiz-adv-x="396" 
d="M198 212c-65 0 -118 53 -118 118s53 118 118 118s118 -53 118 -118s-53 -118 -118 -118z" />
    <glyph glyph-name="colon" unicode=":" horiz-adv-x="276" 
d="M138 344c-48 0 -84 36 -84 84s36 84 84 84s84 -36 84 -84s-36 -84 -84 -84zM138 -6c-48 0 -84 36 -84 84s36 84 84 84s84 -36 84 -84s-36 -84 -84 -84z" />
    <glyph glyph-name="comma" unicode="," horiz-adv-x="276" 
d="M23 -136l67 272h167l-140 -272h-94z" />
    <glyph glyph-name="ellipsis" unicode="&#x2026;" horiz-adv-x="880" 
d="M138 -6c-48 0 -84 36 -84 84s36 84 84 84s84 -36 84 -84s-36 -84 -84 -84zM440 -6c-48 0 -84 36 -84 84s36 84 84 84s84 -36 84 -84s-36 -84 -84 -84zM742 -6c-48 0 -84 36 -84 84s36 84 84 84s84 -36 84 -84s-36 -84 -84 -84z" />
    <glyph glyph-name="exclam" unicode="!" horiz-adv-x="326" 
d="M109 242l-28 458h164l-28 -458h-108zM163 -6c-46 0 -83 36 -83 82s37 84 83 84s83 -38 83 -84s-37 -82 -83 -82z" />
    <glyph glyph-name="uni2049" unicode="&#x2049;" horiz-adv-x="717" 
d="M488 213c-80 0 -138 51 -138 128c0 68 45 106 108 130c78 30 100 50 100 83c0 35 -29 50 -65 50c-42 0 -72 -24 -85 -67l-109 18c15 84 82 153 191 153c112 0 185 -62 185 -158c0 -80 -51 -112 -138 -146c-66 -26 -85 -39 -85 -66c0 -22 16 -35 36 -35c28 0 47 18 57 46
l88 -33c-22 -63 -73 -103 -145 -103zM217 242h-108l-28 458h164zM163 -6c-46 0 -83 36 -83 82s37 84 83 84s83 -38 83 -84s-37 -82 -83 -82zM488 -6c-46 0 -83 36 -83 82s37 84 83 84s83 -38 83 -84s-37 -82 -83 -82z" />
    <glyph glyph-name="exclamdown" unicode="&#xa1;" horiz-adv-x="326" 
d="M163 336c-46 0 -83 38 -83 84s37 82 83 82s83 -36 83 -82s-37 -84 -83 -84zM81 -204l28 458h108l28 -458h-164z" />
    <glyph glyph-name="numbersign" unicode="#" horiz-adv-x="672" 
d="M108 0l39 193h-114v98h134l24 118h-118v98h138l40 193h100l-40 -193h114l39 193h100l-39 -193h114v-98h-134l-24 -118h118v-98h-138l-40 -193h-100l40 193h-114l-39 -193h-100zM267 291h114l24 118h-114z" />
    <glyph glyph-name="period" unicode="." horiz-adv-x="276" 
d="M138 -6c-48 0 -84 36 -84 84s36 84 84 84s84 -36 84 -84s-36 -84 -84 -84z" />
    <glyph glyph-name="question" unicode="?" horiz-adv-x="460" 
d="M231 213c-80 0 -138 51 -138 128c0 68 45 106 108 130c78 30 100 50 100 83c0 35 -29 50 -65 50c-42 0 -72 -24 -85 -67l-109 18c15 84 82 153 191 153c112 0 185 -62 185 -158c0 -80 -51 -112 -138 -146c-66 -26 -85 -39 -85 -66c0 -22 16 -35 36 -35c28 0 47 18 57 46
l88 -33c-22 -63 -73 -103 -145 -103zM231 -6c-46 0 -83 36 -83 82s37 84 83 84s83 -38 83 -84s-37 -82 -83 -82z" />
    <glyph glyph-name="questiondown" unicode="&#xbf;" horiz-adv-x="460" 
d="M229 502c46 0 83 -36 83 -82s-37 -84 -83 -84s-83 38 -83 84s37 82 83 82zM229 283c80 0 138 -51 138 -128c0 -68 -45 -106 -108 -130c-78 -30 -100 -50 -100 -83c0 -35 29 -50 65 -50c42 0 72 24 85 67l109 -18c-15 -84 -82 -153 -191 -153c-112 0 -185 62 -185 158
c0 80 51 112 138 146c66 26 85 39 85 66c0 22 -16 35 -36 35c-28 0 -47 -18 -57 -46l-88 33c22 63 73 103 145 103z" />
    <glyph glyph-name="uni2048" unicode="&#x2048;" horiz-adv-x="726" 
d="M231 213c-80 0 -138 51 -138 128c0 68 45 106 108 130c78 30 100 50 100 83c0 35 -29 50 -65 50c-42 0 -72 -24 -85 -67l-109 18c15 84 82 153 191 153c112 0 185 -62 185 -158c0 -80 -51 -112 -138 -146c-66 -26 -85 -39 -85 -66c0 -22 16 -35 36 -35c28 0 47 18 57 46
l88 -33c-22 -63 -73 -103 -145 -103zM509 242l-28 458h164l-28 -458h-108zM231 -6c-46 0 -83 36 -83 82s37 84 83 84s83 -38 83 -84s-37 -82 -83 -82zM563 -6c-46 0 -83 36 -83 82s37 84 83 84s83 -38 83 -84s-37 -82 -83 -82z" />
    <glyph glyph-name="quotedbl" unicode="&#x22;" horiz-adv-x="419" 
d="M75 459l-31 249h141l-31 -249h-79zM265 459l-31 249h141l-31 -249h-79z" />
    <glyph glyph-name="quotesingle" unicode="'" horiz-adv-x="229" 
d="M75 459l-31 249h141l-31 -249h-79z" />
    <glyph glyph-name="semicolon" unicode=";" horiz-adv-x="276" 
d="M173 344c-48 0 -84 36 -84 84s36 84 84 84s84 -36 84 -84s-36 -84 -84 -84zM23 -136l67 272h167l-140 -272h-94z" />
    <glyph glyph-name="slash" unicode="/" horiz-adv-x="558" 
d="M1 -50l436 800h120l-436 -800h-120z" />
    <glyph glyph-name="underscore" unicode="_" horiz-adv-x="505" 
d="M25 -108v108h455v-108h-455z" />
    <glyph glyph-name="bullet.case" horiz-adv-x="396" 
d="M198 232c-65 0 -118 53 -118 118s53 118 118 118s118 -53 118 -118s-53 -118 -118 -118z" />
    <glyph glyph-name="exclamdown.case" horiz-adv-x="326" 
d="M163 540c-46 0 -83 38 -83 84s37 82 83 82s83 -36 83 -82s-37 -84 -83 -84zM81 0l28 458h108l28 -458h-164z" />
    <glyph glyph-name="questiondown.case" horiz-adv-x="460" 
d="M229 706c46 0 83 -36 83 -82s-37 -84 -83 -84s-83 38 -83 84s37 82 83 82zM229 487c80 0 138 -51 138 -128c0 -68 -45 -106 -108 -130c-78 -30 -100 -50 -100 -83c0 -35 29 -50 65 -50c42 0 72 24 85 67l109 -18c-15 -84 -82 -153 -191 -153c-112 0 -185 62 -185 158
c0 80 51 112 138 146c66 26 85 39 85 66c0 22 -16 35 -36 35c-28 0 -47 -18 -57 -46l-88 33c22 63 73 103 145 103z" />
    <glyph glyph-name="comma.ss02" horiz-adv-x="276" 
d="M65 -136l-21 28c39 28 62 66 71 111c-43 17 -60 49 -60 79c0 42 33 80 83 80s84 -38 84 -87c0 -93 -71 -156 -157 -211z" />
    <glyph glyph-name="semicolon.ss02" horiz-adv-x="276" 
d="M138 344c-48 0 -84 36 -84 84s36 84 84 84s84 -36 84 -84s-36 -84 -84 -84zM65 -136l-21 28c39 28 62 66 71 111c-43 17 -60 49 -60 79c0 42 33 80 83 80s84 -38 84 -87c0 -93 -71 -156 -157 -211z" />
    <glyph glyph-name="comma.tf" 
d="M167 -136l67 272h167l-140 -272h-94z" />
    <glyph glyph-name="period.tf" 
d="M310 -6c-48 0 -84 36 -84 84s36 84 84 84s84 -36 84 -84s-36 -84 -84 -84z" />
    <glyph glyph-name="comma.ss02.tf" 
d="M242 -136l-21 28c39 28 62 66 71 111c-43 17 -60 49 -60 79c0 42 33 80 83 80s84 -38 84 -87c0 -93 -71 -156 -157 -211z" />
    <glyph glyph-name="semicolon.ss02.tf" 
d="M315 344c-48 0 -84 36 -84 84s36 84 84 84s84 -36 84 -84s-36 -84 -84 -84zM242 -136l-21 28c39 28 62 66 71 111c-43 17 -60 49 -60 79c0 42 33 80 83 80s84 -38 84 -87c0 -93 -71 -156 -157 -211z" />
    <glyph glyph-name="braceleft" unicode="{" horiz-adv-x="316" 
d="M209 -50c-60 0 -100 40 -100 100v166c0 62 -20 80 -80 80v108c60 0 80 18 80 80v166c0 60 40 100 100 100h88v-108h-27c-32 0 -41 -11 -41 -45v-149c0 -79 -34 -92 -74 -98c40 -6 74 -19 74 -98v-149c0 -34 9 -45 41 -45h27v-108h-88z" />
    <glyph glyph-name="braceright" unicode="}" horiz-adv-x="316" 
d="M19 -50v108h27c32 0 41 11 41 45v149c0 79 34 92 74 98c-40 6 -74 19 -74 98v149c0 34 -9 45 -41 45h-27v108h88c60 0 100 -40 100 -100v-166c0 -62 20 -80 80 -80v-108c-60 0 -80 -18 -80 -80v-166c0 -60 -40 -100 -100 -100h-88z" />
    <glyph glyph-name="bracketleft" unicode="[" horiz-adv-x="329" 
d="M80 -50v800h230v-108h-110v-584h110v-108h-230z" />
    <glyph glyph-name="bracketright" unicode="]" horiz-adv-x="329" 
d="M19 -50v108h110v584h-110v108h230v-800h-230z" />
    <glyph glyph-name="parenleft" unicode="(" horiz-adv-x="277" 
d="M151 -50c-53 96 -105 200 -105 400s52 304 105 400h107c-59 -108 -92 -223 -92 -400c0 -187 33 -292 92 -400h-107z" />
    <glyph glyph-name="parenright" unicode=")" horiz-adv-x="277" 
d="M19 -50c59 108 92 213 92 400c0 177 -33 292 -92 400h107c53 -96 105 -200 105 -400s-52 -304 -105 -400h-107z" />
    <glyph glyph-name="braceleft.case" horiz-adv-x="316" 
d="M209 0c-60 0 -100 40 -100 100v116c0 62 -20 80 -80 80v108c60 0 80 18 80 80v116c0 60 40 100 100 100h88v-108h-27c-32 0 -41 -11 -41 -45v-99c0 -79 -34 -92 -74 -98c40 -6 74 -19 74 -98v-99c0 -34 9 -45 41 -45h27v-108h-88z" />
    <glyph glyph-name="braceright.case" horiz-adv-x="316" 
d="M107 0h-88v108h27c32 0 41 11 41 45v99c0 79 34 92 74 98c-40 6 -74 19 -74 98v99c0 34 -9 45 -41 45h-27v108h88c60 0 100 -40 100 -100v-116c0 -62 20 -80 80 -80v-108c-60 0 -80 -18 -80 -80v-116c0 -60 -40 -100 -100 -100z" />
    <glyph glyph-name="bracketleft.case" horiz-adv-x="329" 
d="M80 0v700h230v-108h-110v-484h110v-108h-230z" />
    <glyph glyph-name="bracketright.case" horiz-adv-x="329" 
d="M249 0h-230v108h110v484h-110v108h230v-700z" />
    <glyph glyph-name="parenleft.case" horiz-adv-x="272" 
d="M144 0c-42 84 -98 184 -98 350s56 266 98 350h109c-44 -94 -87 -200 -87 -350c0 -158 43 -258 86 -350h-108z" />
    <glyph glyph-name="parenright.case" horiz-adv-x="272" 
d="M128 0h-108c43 92 86 192 86 350c0 150 -43 256 -87 350h109c42 -84 98 -184 98 -350s-56 -266 -98 -350z" />
    <glyph glyph-name="emdash" unicode="&#x2014;" horiz-adv-x="771" 
d="M65 263v108h641v-108h-641z" />
    <glyph glyph-name="endash" unicode="&#x2013;" horiz-adv-x="585" 
d="M65 263v108h455v-108h-455z" />
    <glyph glyph-name="hyphen" unicode="-" horiz-adv-x="503" 
d="M65 263v108h373v-108h-373z" />
    <glyph glyph-name="uni00AD" unicode="&#xad;" horiz-adv-x="503" 
d="M65 263v108h373v-108h-373z" />
    <glyph glyph-name="emdash.case" horiz-adv-x="771" 
d="M65 296v108h641v-108h-641z" />
    <glyph glyph-name="endash.case" horiz-adv-x="585" 
d="M65 296v108h455v-108h-455z" />
    <glyph glyph-name="hyphen.case" horiz-adv-x="503" 
d="M65 296v108h373v-108h-373z" />
    <glyph glyph-name="uni00AD.case" horiz-adv-x="503" 
d="M65 296v108h373v-108h-373z" />
    <glyph glyph-name="guillemotleft" unicode="&#xab;" horiz-adv-x="703" 
d="M353 51l-309 218v82l309 218v-128l-185 -131l185 -131v-128zM653 51l-309 218v82l309 218v-128l-185 -131l185 -131v-128z" />
    <glyph glyph-name="guillemotright" unicode="&#xbb;" horiz-adv-x="703" 
d="M50 51v128l185 131l-185 131v128l309 -218v-82zM350 51v128l185 131l-185 131v128l309 -218v-82z" />
    <glyph glyph-name="guilsinglleft" unicode="&#x2039;" horiz-adv-x="403" 
d="M353 51l-309 218v82l309 218v-128l-185 -131l185 -131v-128z" />
    <glyph glyph-name="guilsinglright" unicode="&#x203a;" horiz-adv-x="403" 
d="M50 51v128l185 131l-185 131v128l309 -218v-82z" />
    <glyph glyph-name="quotedblbase" unicode="&#x201e;" horiz-adv-x="503" 
d="M23 -108l78 244h163l-149 -244h-92zM243 -108l78 244h163l-149 -244h-92z" />
    <glyph glyph-name="quotedblleft" unicode="&#x201c;" horiz-adv-x="536" 
d="M285 708l-78 -244h-163l149 244h92zM505 708l-78 -244h-163l149 244h92z" />
    <glyph glyph-name="quotedblright" unicode="&#x201d;" horiz-adv-x="536" 
d="M31 464l78 244h163l-149 -244h-92zM251 464l78 244h163l-149 -244h-92z" />
    <glyph glyph-name="quoteleft" unicode="&#x2018;" horiz-adv-x="316" 
d="M44 464l149 244h92l-78 -244h-163z" />
    <glyph glyph-name="quoteright" unicode="&#x2019;" horiz-adv-x="316" 
d="M31 464l78 244h163l-149 -244h-92z" />
    <glyph glyph-name="quotesinglbase" unicode="&#x201a;" horiz-adv-x="316" 
d="M31 -108l78 244h163l-149 -244h-92z" />
    <glyph glyph-name="guillemotleft.case" horiz-adv-x="703" 
d="M353 91l-309 218v82l309 218v-128l-185 -131l185 -131v-128zM653 91l-309 218v82l309 218v-128l-185 -131l185 -131v-128z" />
    <glyph glyph-name="guillemotright.case" horiz-adv-x="703" 
d="M50 91v128l185 131l-185 131v128l309 -218v-82zM350 91v128l185 131l-185 131v128l309 -218v-82z" />
    <glyph glyph-name="guilsinglleft.case" horiz-adv-x="403" 
d="M353 91l-309 218v82l309 218v-128l-185 -131l185 -131v-128z" />
    <glyph glyph-name="guilsinglright.case" horiz-adv-x="403" 
d="M50 91v128l185 131l-185 131v128l309 -218v-82z" />
    <glyph glyph-name="quotedblbase.ss02" horiz-adv-x="482" 
d="M65 -134l-21 28c39 28 62 66 71 111c-43 17 -60 49 -60 79c0 42 33 80 83 80s84 -38 84 -87c0 -93 -71 -156 -157 -211zM271 -134l-21 28c39 28 62 66 71 111c-43 17 -60 49 -60 79c0 42 33 80 83 80s84 -38 84 -87c0 -93 -71 -156 -157 -211z" />
    <glyph glyph-name="quotedblleft.ss02" horiz-adv-x="482" 
d="M211 695l21 -28c-39 -28 -62 -66 -71 -111c43 -17 60 -49 60 -79c0 -42 -33 -80 -83 -80s-84 38 -84 87c0 93 71 156 157 211zM417 695l21 -28c-39 -28 -62 -66 -71 -111c43 -17 60 -49 60 -79c0 -42 -33 -80 -83 -80s-84 38 -84 87c0 93 71 156 157 211z" />
    <glyph glyph-name="quotedblright.ss02" horiz-adv-x="482" 
d="M65 423l-21 28c39 28 62 66 71 111c-43 17 -60 49 -60 79c0 42 33 80 83 80s84 -38 84 -87c0 -93 -71 -156 -157 -211zM271 423l-21 28c39 28 62 66 71 111c-43 17 -60 49 -60 79c0 42 33 80 83 80s84 -38 84 -87c0 -93 -71 -156 -157 -211z" />
    <glyph glyph-name="quoteleft.ss02" horiz-adv-x="276" 
d="M211 695l21 -28c-39 -28 -62 -66 -71 -111c43 -17 60 -49 60 -79c0 -42 -33 -80 -83 -80s-84 38 -84 87c0 93 71 156 157 211z" />
    <glyph glyph-name="quoteright.ss02" horiz-adv-x="276" 
d="M65 423l-21 28c39 28 62 66 71 111c-43 17 -60 49 -60 79c0 42 33 80 83 80s84 -38 84 -87c0 -93 -71 -156 -157 -211z" />
    <glyph glyph-name="quotesinglbase.ss02" horiz-adv-x="276" 
d="M65 -134l-21 28c39 28 62 66 71 111c-43 17 -60 49 -60 79c0 42 33 80 83 80s84 -38 84 -87c0 -93 -71 -156 -157 -211z" />
    <glyph glyph-name="anoteleia" unicode="&#x387;" horiz-adv-x="276" 
d="M138 266c-48 0 -84 36 -84 84s36 84 84 84s84 -36 84 -84s-36 -84 -84 -84z" />
    <glyph glyph-name="uni037E" unicode="&#x37e;" horiz-adv-x="276" 
d="M173 344c-48 0 -84 36 -84 84s36 84 84 84s84 -36 84 -84s-36 -84 -84 -84zM23 -136l67 272h167l-140 -272h-94z" />
    <glyph glyph-name="uni037E.ss02" horiz-adv-x="220" 
d="M117 344c-48 0 -84 36 -84 84s36 84 84 84s84 -36 84 -84s-36 -84 -84 -84zM44 -136l-21 28c39 28 62 66 71 111c-43 17 -60 49 -60 79c0 42 33 80 83 80s84 -38 84 -87c0 -93 -71 -156 -157 -211z" />
    <glyph glyph-name="space" unicode=" " horiz-adv-x="248" 
 />
    <glyph glyph-name="uni00A0" unicode="&#xa0;" horiz-adv-x="248" 
 />
    <glyph glyph-name="space.tf" 
 />
    <glyph glyph-name="CR" unicode="&#xd;" horiz-adv-x="248" 
 />
    <glyph glyph-name="cent" unicode="&#xa2;" horiz-adv-x="553" 
d="M227 -50v146c-124 26 -185 131 -185 254s61 228 185 254v146h122v-146c80 -15 137 -62 168 -138l-111 -45c-26 53 -62 83 -118 83c-78 0 -116 -65 -116 -154s38 -154 116 -154c56 0 92 30 118 83l111 -45c-31 -76 -88 -123 -168 -138v-146h-122z" />
    <glyph glyph-name="currency" unicode="&#xa4;" horiz-adv-x="574" 
d="M119 42l-97 97l89 69c-16 29 -25 63 -25 99s9 70 25 99l-89 69l97 97l69 -89c29 17 63 26 99 26s70 -9 99 -26l69 89l97 -97l-89 -69c16 -29 25 -63 25 -99s-9 -70 -25 -99l89 -69l-97 -97l-69 89c-29 -17 -63 -26 -99 -26s-70 9 -99 26zM287 218c51 0 81 36 81 89
s-30 89 -81 89s-81 -36 -81 -89s30 -89 81 -89z" />
    <glyph glyph-name="dollar" unicode="$" horiz-adv-x="531" 
d="M497 201c0 -105 -62 -178 -157 -201v-90h-122v88c-98 21 -167 99 -186 190l105 66c20 -78 62 -142 139 -142c52 0 91 24 91 83c0 62 -79 92 -161 133c-68 34 -132 88 -132 192c0 90 56 162 144 182v88h122v-91c60 -18 102 -58 127 -118l-105 -67c-19 55 -52 74 -93 74
c-38 0 -71 -27 -71 -64c0 -58 68 -87 140 -120c82 -38 159 -85 159 -203z" />
    <glyph glyph-name="dong" unicode="&#x20ab;" horiz-adv-x="484" 
d="M453 665v-77h-35v-407h-120v32c-19 -25 -49 -39 -86 -39c-102 0 -166 74 -166 193s64 192 164 192c41 0 70 -15 88 -36v65h-86v77h86v35h120v-35h35zM234 277c40 0 70 28 70 90c0 61 -30 90 -70 90s-71 -29 -71 -90c0 -62 31 -90 71 -90zM453 135v-77h-411v77h411z" />
    <glyph glyph-name="Euro" unicode="&#x20ac;" horiz-adv-x="647" 
d="M395 -8c-130 0 -233 75 -267 224h-100l50 108h39v52h-89l50 108h50c34 148 137 224 267 224c104 0 176 -43 216 -117l-108 -64c-22 42 -62 65 -108 65c-66 0 -117 -31 -140 -108h210l-50 -108h-174v-52h224l-50 -108h-160c23 -78 74 -108 140 -108c46 0 86 23 108 65
l108 -64c-40 -74 -112 -117 -216 -117z" />
    <glyph glyph-name="florin" unicode="&#x192;" horiz-adv-x="487" 
d="M8 -212c-39 0 -71 8 -90 20l46 100c19 -9 36 -14 57 -14c35 0 61 18 70 63l85 441h-79l21 106h80l5 26c24 123 104 178 208 178c39 0 71 -8 90 -20l-46 -100c-19 9 -36 14 -57 14c-35 0 -61 -18 -70 -63l-6 -35h108l-21 -106h-108l-85 -432c-24 -123 -104 -178 -208 -178
z" />
    <glyph glyph-name="franc" unicode="&#x20a3;" horiz-adv-x="553" 
d="M523 580h-313v-160h252v-120h-252v-90h133v-120h-133v-90h-130v90h-48v120h48v490h443v-120z" />
    <glyph glyph-name="uni20B4" unicode="&#x20b4;" horiz-adv-x="521" 
d="M434 475h53v-108h-455v108h279c13 14 20 30 20 49c0 37 -33 64 -71 64c-41 0 -74 -19 -93 -74l-105 67c34 81 99 127 198 127c116 0 195 -66 195 -159c0 -28 -8 -53 -21 -74zM32 225v108h455v-108h-279c-13 -14 -20 -30 -20 -49c0 -37 33 -64 71 -64c41 0 74 19 93 74
l105 -67c-34 -81 -99 -127 -198 -127c-116 0 -195 66 -195 159c0 28 8 53 21 74h-53z" />
    <glyph glyph-name="uni20AD" unicode="&#x20ad;" horiz-adv-x="646" 
d="M374 334l262 -334h-165l-254 334v-334h-130v334h-71v106h71v260h130v-260l239 260h160l-236 -260h223v-106h-229z" />
    <glyph glyph-name="uni20BA" unicode="&#x20ba;" horiz-adv-x="673" 
d="M522 262h132v-49c0 -122 -71 -213 -219 -213h-264v224l-155 -41v108l155 41v62l-155 -41v108l155 41v198h130v-164l170 45v-108l-170 -45v-62l170 45v-108l-170 -45v-138h129c57 0 92 29 92 93v49z" />
    <glyph glyph-name="uni20B1" unicode="&#x20b1;" horiz-adv-x="679" 
d="M649 554v-48h-69c1 -6 1 -13 1 -19s0 -13 -1 -19h69v-48h-76c-22 -87 -92 -146 -211 -146h-134v-274h-130v420h-68v48h68v38h-68v48h68v146h264c119 0 189 -59 211 -146h76zM228 580v-26h200c-16 18 -40 26 -71 26h-129zM449 487c0 7 0 13 -1 19h-220v-38h220
c1 6 1 12 1 19zM357 394c31 0 55 8 71 26h-200v-26h129z" />
    <glyph glyph-name="uni20BD" unicode="&#x20bd;" horiz-adv-x="635" 
d="M382 274h-134v-57h156v-120h-156v-97h-130v97h-88v120h88v57h-88v120h88v306h264c148 0 219 -91 219 -213s-71 -213 -219 -213zM248 580v-186h129c57 0 92 29 92 93s-35 93 -92 93h-129z" />
    <glyph glyph-name="uni20A8" unicode="&#x20a8;" horiz-adv-x="1047" 
d="M555 458c-12 -71 -56 -123 -127 -145l194 -313h-145l-188 302h-68v-302h-130v458h-61v86h61v156h255c122 0 193 -63 209 -156h61v-86h-61zM221 580v-36h199c-14 25 -40 36 -73 36h-126zM884 297c72 -26 121 -67 121 -142c0 -99 -70 -163 -170 -163
c-112 0 -180 69 -200 136l99 53c18 -49 51 -83 100 -83c31 0 63 12 63 49c0 40 -56 55 -109 76c-70 28 -122 70 -122 148s68 141 161 141c68 0 127 -30 158 -82l-74 -68c-22 32 -50 44 -81 44c-25 0 -49 -14 -49 -38c0 -22 18 -40 103 -71zM347 422c33 0 59 11 73 36h-199
v-36h126z" />
    <glyph glyph-name="sterling" unicode="&#xa3;" horiz-adv-x="556" 
d="M105 -8l-69 76c55 51 108 102 108 177c0 25 -5 45 -11 66h-81v106h50c-9 24 -18 52 -18 83c0 118 83 208 213 208c106 0 177 -54 207 -138l-103 -49c-22 48 -56 71 -104 71c-45 0 -89 -28 -89 -99c0 -32 3 -56 9 -76h172v-106h-139c3 -14 4 -27 4 -43
c0 -83 -38 -126 -81 -163c28 17 63 32 99 32c49 0 61 -30 108 -30c25 0 45 10 72 56l86 -54c-45 -79 -95 -117 -165 -117c-72 0 -91 37 -152 37c-44 0 -76 -14 -116 -37z" />
    <glyph glyph-name="uni20B8" unicode="&#x20b8;" horiz-adv-x="526" 
d="M24 560v120h478v-120h-478zM198 0v384h-174v120h478v-120h-174v-384h-130z" />
    <glyph glyph-name="yen" unicode="&#xa5;" horiz-adv-x="540" 
d="M205 0v118h-143v108h143v72h-143v108h91l-144 294h140l121 -272l121 272h140l-144 -294h91v-108h-143v-72h143v-108h-143v-118h-130z" />
    <glyph glyph-name="cent.tf" 
d="M257 -50v146c-124 26 -185 131 -185 254s61 228 185 254v146h122v-146c80 -15 137 -62 168 -138l-111 -45c-26 53 -62 83 -118 83c-78 0 -116 -65 -116 -154s38 -154 116 -154c56 0 92 30 118 83l111 -45c-31 -76 -88 -123 -168 -138v-146h-122z" />
    <glyph glyph-name="currency.tf" 
d="M142 42l-97 97l89 69c-16 29 -25 63 -25 99s9 70 25 99l-89 69l97 97l69 -89c29 17 63 26 99 26s70 -9 99 -26l69 89l97 -97l-89 -69c16 -29 25 -63 25 -99s-9 -70 -25 -99l89 -69l-97 -97l-69 89c-29 -17 -63 -26 -99 -26s-70 9 -99 26zM310 218c51 0 81 36 81 89
s-30 89 -81 89s-81 -36 -81 -89s30 -89 81 -89z" />
    <glyph glyph-name="dollar.tf" 
d="M542 201c0 -105 -62 -178 -157 -201v-90h-122v88c-98 21 -167 99 -186 190l105 66c20 -78 62 -142 139 -142c52 0 91 24 91 83c0 62 -79 92 -161 133c-68 34 -132 88 -132 192c0 90 56 162 144 182v88h122v-91c60 -18 102 -58 127 -118l-105 -67c-19 55 -52 74 -93 74
c-38 0 -71 -27 -71 -64c0 -58 68 -87 140 -120c82 -38 159 -85 159 -203z" />
    <glyph glyph-name="dong.tf" 
d="M515 665v-77h-35v-407h-120v32c-19 -25 -49 -39 -86 -39c-102 0 -166 74 -166 193s64 192 164 192c41 0 70 -15 88 -36v65h-86v77h86v35h120v-35h35zM296 277c40 0 70 28 70 90c0 61 -30 90 -70 90s-71 -29 -71 -90c0 -62 31 -90 71 -90zM515 135v-77h-411v77h411z" />
    <glyph glyph-name="Euro.tf" 
d="M385 -8c-130 0 -233 75 -267 224h-100l50 108h39v52h-89l50 108h50c34 148 137 224 267 224c104 0 176 -43 216 -117l-108 -64c-22 42 -62 65 -108 65c-66 0 -117 -31 -140 -108h210l-50 -108h-174v-52h224l-50 -108h-160c23 -78 74 -108 140 -108c46 0 86 23 108 65
l108 -64c-40 -74 -112 -117 -216 -117z" />
    <glyph glyph-name="florin.tf" 
d="M108 -212c-39 0 -71 8 -90 20l46 100c19 -9 36 -14 57 -14c35 0 61 18 70 63l85 441h-79l21 106h80l5 26c24 123 104 178 208 178c39 0 71 -8 90 -20l-46 -100c-19 9 -36 14 -57 14c-35 0 -62 -18 -70 -63l-6 -35h108l-21 -106h-108l-85 -432
c-24 -123 -104 -178 -208 -178z" />
    <glyph glyph-name="franc.tf" 
d="M556 580h-313v-160h252v-120h-252v-90h133v-120h-133v-90h-130v90h-48v120h48v490h443v-120z" />
    <glyph glyph-name="uni20B4.tf" 
d="M484 475h53v-108h-455v108h279c13 14 20 30 20 49c0 37 -33 64 -71 64c-41 0 -74 -19 -93 -74l-105 67c34 81 99 127 198 127c116 0 195 -66 195 -159c0 -28 -8 -53 -21 -74zM82 225v108h455v-108h-279c-13 -14 -20 -30 -20 -49c0 -37 33 -64 71 -64c41 0 74 19 93 74
l105 -67c-34 -81 -99 -127 -198 -127c-116 0 -195 66 -195 159c0 28 8 53 21 74h-53z" />
    <glyph glyph-name="uni20AD.tf" 
d="M360 334l262 -334h-165l-254 334v-334h-130v334h-71v106h71v260h130v-260l239 260h160l-236 -260h223v-106h-229z" />
    <glyph glyph-name="uni20BA.tf" 
d="M440 242h132v-29c0 -122 -71 -213 -219 -213h-224v219l-88 -23v108l88 23v62l-88 -23v108l88 23v203h130v-168l157 41v-108l-157 -41v-62l157 41v-108l-157 -41v-134h89c57 0 92 29 92 93v29z" />
    <glyph glyph-name="uni20B1.tf" 
d="M582 554v-48h-75c1 -6 1 -13 1 -19s0 -13 -1 -19h75v-48h-82c-22 -87 -92 -146 -211 -146h-84v-274h-130v420h-52v48h52v38h-52v48h52v146h214c119 0 189 -59 211 -146h82zM205 580v-26h150c-16 18 -40 26 -71 26h-79zM376 487c0 7 0 13 -1 19h-170v-38h170
c1 6 1 12 1 19zM284 394c31 0 55 8 71 26h-150v-26h79z" />
    <glyph glyph-name="uni20BD.tf" 
d="M374 274h-134v-57h156v-120h-156v-97h-130v97h-88v120h88v57h-88v120h88v306h264c148 0 219 -91 219 -213s-71 -213 -219 -213zM240 580v-186h129c57 0 92 29 92 93s-35 93 -92 93h-129z" />
    <glyph glyph-name="uni20A8.tf" 
d="M377 468c-9 -75 -47 -125 -101 -156l94 -312h-107l-89 300v-300h-110v468h-30v76h30v156h148c85 0 149 -63 164 -156h80v-76h-79zM174 580v-36h89c-9 25 -27 36 -50 36h-39zM213 422c26 0 45 13 53 46h-92v-46h39zM510 233c50 -24 94 -54 94 -117
c0 -73 -50 -124 -120 -124c-56 0 -106 33 -117 108l72 33c5 -36 20 -57 46 -57c18 0 33 11 33 36c0 23 -20 41 -58 59c-44 21 -83 55 -83 110c0 71 50 109 110 109c50 0 87 -27 104 -70l-62 -47c-8 25 -25 37 -42 37s-30 -10 -30 -25c0 -24 19 -36 53 -52z" />
    <glyph glyph-name="sterling.tf" 
d="M127 -8l-69 76c55 51 108 102 108 177c0 25 -5 45 -11 66h-81v106h50c-9 24 -18 52 -18 83c0 118 83 208 213 208c106 0 177 -54 207 -138l-103 -49c-22 48 -56 71 -104 71c-45 0 -89 -28 -89 -99c0 -32 3 -56 9 -76h172v-106h-139c3 -14 4 -27 4 -43
c0 -83 -38 -126 -81 -163c28 17 63 32 99 32c49 0 61 -30 108 -30c25 0 45 10 72 56l86 -54c-45 -79 -95 -117 -165 -117c-72 0 -91 37 -152 37c-44 0 -76 -14 -116 -37z" />
    <glyph glyph-name="uni20B8.tf" 
d="M71 560v120h478v-120h-478zM245 0v384h-174v120h478v-120h-174v-384h-130z" />
    <glyph glyph-name="yen.tf" 
d="M245 0v118h-143v108h143v72h-143v108h91l-144 294h140l121 -272l121 272h140l-144 -294h91v-108h-143v-72h143v-108h-143v-118h-130z" />
    <glyph glyph-name="uni2219" unicode="&#x2219;" horiz-adv-x="361" 
d="M181 202c-56 0 -101 45 -101 101s45 101 101 101c55 0 100 -45 100 -101s-45 -101 -100 -101z" />
    <glyph glyph-name="uni2215" unicode="&#x2215;" horiz-adv-x="558" 
d="M1 -50l436 800h120l-436 -800h-120z" />
    <glyph glyph-name="plus" unicode="+" horiz-adv-x="606" 
d="M249 79v184h-184v108h184v184h108v-184h184v-108h-184v-184h-108z" />
    <glyph glyph-name="minus" unicode="&#x2212;" horiz-adv-x="606" 
d="M65 263v108h476v-108h-476z" />
    <glyph glyph-name="multiply" unicode="&#xd7;" horiz-adv-x="594" 
d="M139 82l-77 77l159 158l-159 158l77 77l158 -159l158 159l77 -77l-159 -158l159 -158l-77 -77l-158 159z" />
    <glyph glyph-name="divide" unicode="&#xf7;" horiz-adv-x="606" 
d="M303 422c-48 0 -84 36 -84 84s36 84 84 84s84 -36 84 -84s-36 -84 -84 -84zM65 261v108h476v-108h-476zM303 40c-48 0 -84 36 -84 84s36 84 84 84s84 -36 84 -84s-36 -84 -84 -84z" />
    <glyph glyph-name="equal" unicode="=" horiz-adv-x="567" 
d="M65 346v108h437v-108h-437zM65 166v108h437v-108h-437z" />
    <glyph glyph-name="notequal" unicode="&#x2260;" horiz-adv-x="567" 
d="M205 63l-94 52l29 51h-75v108h136l41 72h-177v108h238l59 103l94 -52l-29 -51h75v-108h-136l-41 -72h177v-108h-238z" />
    <glyph glyph-name="greater" unicode="&#x3e;" horiz-adv-x="494" 
d="M55 48v131l252 131l-252 131v131l391 -204v-116z" />
    <glyph glyph-name="less" unicode="&#x3c;" horiz-adv-x="494" 
d="M439 48l-391 204v116l391 204v-131l-252 -131l252 -131v-131z" />
    <glyph glyph-name="greaterequal" unicode="&#x2265;" horiz-adv-x="606" 
d="M108 140v131l252 131l-252 131v131l391 -204v-116zM65 0v108h476v-108h-476z" />
    <glyph glyph-name="lessequal" unicode="&#x2264;" horiz-adv-x="606" 
d="M498 140l-391 204v116l391 204v-131l-252 -131l252 -131v-131zM65 0v108h476v-108h-476z" />
    <glyph glyph-name="plusminus" unicode="&#xb1;" horiz-adv-x="606" 
d="M249 161v184h-184v108h184v184h108v-184h184v-108h-184v-184h-108zM65 0v108h476v-108h-476z" />
    <glyph glyph-name="approxequal" unicode="&#x2248;" horiz-adv-x="592" 
d="M398 343c-85 0 -131 59 -200 59c-38 0 -69 -23 -91 -51l-64 69c24 57 83 111 151 111c85 0 131 -59 200 -59c38 0 69 23 91 51l64 -69c-24 -57 -83 -111 -151 -111zM398 136c-85 0 -131 59 -200 59c-38 0 -69 -23 -91 -51l-64 69c24 57 83 111 151 111
c85 0 131 -59 200 -59c38 0 69 23 91 51l64 -69c-24 -57 -83 -111 -151 -111z" />
    <glyph glyph-name="asciitilde" unicode="~" horiz-adv-x="592" 
d="M398 241c-85 0 -131 59 -200 59c-38 0 -69 -23 -91 -51l-64 69c24 57 83 111 151 111c85 0 131 -59 200 -59c38 0 69 23 91 51l64 -69c-24 -57 -83 -111 -151 -111z" />
    <glyph glyph-name="logicalnot" unicode="&#xac;" horiz-adv-x="596" 
d="M407 142v153h-342v112h466v-265h-124z" />
    <glyph glyph-name="infinity" unicode="&#x221e;" horiz-adv-x="882" 
d="M243 168c-125 0 -193 78 -193 191s68 191 193 191c67 0 150 -25 198 -95c48 70 131 95 198 95c125 0 193 -78 193 -191s-68 -191 -193 -191c-67 0 -150 25 -198 95c-48 -70 -131 -95 -198 -95zM260 272c35 0 82 22 116 87c-34 65 -81 87 -116 87c-52 0 -90 -28 -90 -87
s38 -87 90 -87zM622 272c52 0 90 28 90 87s-38 87 -90 87c-35 0 -82 -22 -116 -87c34 -65 81 -87 116 -87z" />
    <glyph glyph-name="integral" unicode="&#x222b;" horiz-adv-x="487" 
d="M15 -212c-39 0 -78 8 -97 20l46 100c19 -9 36 -14 57 -14c35 0 61 18 70 63l112 573c25 127 100 178 204 178c39 0 75 -8 94 -20l-46 -100c-19 9 -36 14 -57 14c-35 0 -61 -18 -70 -63l-112 -573c-25 -128 -97 -178 -201 -178z" />
    <glyph glyph-name="uni2126" unicode="&#x2126;" horiz-adv-x="696" 
d="M28 0v110h143c-64 61 -143 148 -143 293c0 175 122 305 320 305s320 -130 320 -305c0 -145 -79 -232 -143 -293h143v-110h-277v110c87 66 145 168 145 281c0 126 -80 197 -188 197s-188 -71 -188 -197c0 -113 58 -215 145 -281v-110h-277z" />
    <glyph glyph-name="uni2206" unicode="&#x2206;" horiz-adv-x="618" 
d="M10 0v32l248 668h102l248 -668v-32h-598zM156 108h306l-153 440z" />
    <glyph glyph-name="product" unicode="&#x220f;" horiz-adv-x="569" 
d="M80 0v700h409v-700h-124v592h-161v-592h-124z" />
    <glyph glyph-name="summation" unicode="&#x2211;" horiz-adv-x="543" 
d="M52 0v55l186 295l-186 295v55h441v-108h-272l141 -228v-28l-141 -228h272v-108h-441z" />
    <glyph glyph-name="radical" unicode="&#x221a;" horiz-adv-x="566" 
d="M243 0l-92 277h-116v112h184l71 -226l155 545h120l-220 -708h-102z" />
    <glyph glyph-name="uni00B5" unicode="&#xb5;" horiz-adv-x="575" 
d="M70 -204v708h124v-323c0 -60 30 -83 72 -83c60 0 115 72 115 205v201h124v-504h-124v81c-37 -53 -91 -89 -156 -89c-11 0 -21 1 -31 3v-199h-124z" />
    <glyph glyph-name="partialdiff" unicode="&#x2202;" horiz-adv-x="613" 
d="M260 -8c-126 0 -218 86 -218 217c0 175 131 303 311 303c29 0 62 -8 87 -22c-12 75 -46 112 -112 112c-45 0 -89 -20 -115 -74l-113 35c25 82 118 145 216 145c182 0 255 -118 255 -340c0 -201 -79 -376 -311 -376zM280 98c98 0 151 91 151 189c0 77 -24 119 -89 119
c-97 0 -163 -97 -163 -189c0 -61 28 -119 101 -119z" />
    <glyph glyph-name="percent" unicode="%" horiz-adv-x="844" 
d="M189 -38l-72 58l538 718l72 -57zM219 388c-95 0 -164 70 -164 160s69 160 164 160s164 -70 164 -160s-69 -160 -164 -160zM219 483c39 0 62 28 62 65s-23 65 -62 65s-62 -28 -62 -65s23 -65 62 -65zM625 -8c-95 0 -164 70 -164 160s69 160 164 160s164 -70 164 -160
s-69 -160 -164 -160zM625 87c39 0 62 28 62 65s-23 65 -62 65s-62 -28 -62 -65s23 -65 62 -65z" />
    <glyph glyph-name="perthousand" unicode="&#x2030;" horiz-adv-x="1223" 
d="M189 -38l-72 58l538 718l72 -57zM219 388c-95 0 -164 70 -164 160s69 160 164 160s164 -70 164 -160s-69 -160 -164 -160zM219 483c39 0 62 28 62 65s-23 65 -62 65s-62 -28 -62 -65s23 -65 62 -65zM625 -8c-95 0 -164 70 -164 160s69 160 164 160s164 -70 164 -160
s-69 -160 -164 -160zM1004 -8c-95 0 -164 70 -164 160s69 160 164 160s164 -70 164 -160s-69 -160 -164 -160zM625 87c39 0 62 28 62 65s-23 65 -62 65s-62 -28 -62 -65s23 -65 62 -65zM1004 87c39 0 62 28 62 65s-23 65 -62 65s-62 -28 -62 -65s23 -65 62 -65z" />
    <glyph glyph-name="uni2215.tf" 
d="M32 -50l436 800h120l-436 -800h-120z" />
    <glyph glyph-name="plus.tf" 
d="M256 79v184h-184v108h184v184h108v-184h184v-108h-184v-184h-108z" />
    <glyph glyph-name="minus.tf" 
d="M72 263v108h476v-108h-476z" />
    <glyph glyph-name="multiply.tf" 
d="M152 82l-77 77l159 158l-159 158l77 77l158 -159l158 159l77 -77l-159 -158l159 -158l-77 -77l-158 159z" />
    <glyph glyph-name="divide.tf" 
d="M310 422c-48 0 -84 36 -84 84s36 84 84 84s84 -36 84 -84s-36 -84 -84 -84zM72 261v108h476v-108h-476zM310 40c-48 0 -84 36 -84 84s36 84 84 84s84 -36 84 -84s-36 -84 -84 -84z" />
    <glyph glyph-name="equal.tf" 
d="M91 346v108h437v-108h-437zM91 166v108h437v-108h-437z" />
    <glyph glyph-name="notequal.tf" 
d="M231 63l-94 52l29 51h-75v108h136l41 72h-177v108h238l59 103l94 -52l-29 -51h75v-108h-136l-41 -72h177v-108h-238z" />
    <glyph glyph-name="greater.tf" 
d="M114 48v131l252 131l-252 131v131l391 -204v-116z" />
    <glyph glyph-name="less.tf" 
d="M505 48l-391 204v116l391 204v-131l-252 -131l252 -131v-131z" />
    <glyph glyph-name="greaterequal.tf" 
d="M115 140v131l252 131l-252 131v131l391 -204v-116zM72 0v108h476v-108h-476z" />
    <glyph glyph-name="lessequal.tf" 
d="M505 140l-391 204v116l391 204v-131l-252 -131l252 -131v-131zM72 0v108h476v-108h-476z" />
    <glyph glyph-name="plusminus.tf" 
d="M256 161v184h-184v108h184v184h108v-184h184v-108h-184v-184h-108zM72 0v108h476v-108h-476z" />
    <glyph glyph-name="approxequal.tf" 
d="M412 343c-85 0 -131 59 -200 59c-38 0 -69 -23 -91 -51l-64 69c24 57 83 111 151 111c85 0 131 -59 200 -59c38 0 69 23 91 51l64 -69c-24 -57 -83 -111 -151 -111zM412 136c-85 0 -131 59 -200 59c-38 0 -69 -23 -91 -51l-64 69c24 57 83 111 151 111
c85 0 131 -59 200 -59c38 0 69 23 91 51l64 -69c-24 -57 -83 -111 -151 -111z" />
    <glyph glyph-name="asciitilde.tf" 
d="M412 241c-85 0 -131 59 -200 59c-38 0 -69 -23 -91 -51l-64 69c24 57 83 111 151 111c85 0 131 -59 200 -59c38 0 69 23 91 51l64 -69c-24 -57 -83 -111 -151 -111z" />
    <glyph glyph-name="logicalnot.tf" 
d="M419 142v153h-342v112h466v-265h-124z" />
    <glyph glyph-name="percent.tf" 
d="M177 388c-95 0 -164 70 -164 160s69 160 164 160s164 -70 164 -160s-69 -160 -164 -160zM177 472c45 0 72 33 72 76s-27 76 -72 76s-72 -33 -72 -76s27 -76 72 -76zM83 126l-52 67l496 369l52 -66zM443 -8c-95 0 -164 70 -164 160s69 160 164 160s164 -70 164 -160
s-69 -160 -164 -160zM443 76c45 0 72 33 72 76s-27 76 -72 76s-72 -33 -72 -76s27 -76 72 -76z" />
    <glyph glyph-name="perthousand.tf" 
d="M169 442c-75 0 -133 59 -133 133s58 133 133 133c76 0 133 -59 133 -133s-57 -133 -133 -133zM169 517c35 0 56 25 56 58s-21 58 -56 58c-36 0 -57 -25 -57 -58s21 -58 57 -58zM72 197l-51 67l498 365l51 -67zM261 -8c-75 0 -133 59 -133 133s58 133 133 133
c42 0 79 -18 103 -47c24 29 60 47 102 47c76 0 133 -59 133 -133s-57 -133 -133 -133c-42 0 -78 18 -102 47c-24 -29 -61 -47 -103 -47zM261 67c35 0 56 25 56 58s-21 58 -56 58c-36 0 -57 -25 -57 -58s21 -58 57 -58zM466 67c35 0 56 25 56 58s-21 58 -56 58
c-36 0 -57 -25 -57 -58s21 -58 57 -58z" />
    <glyph glyph-name="arrowup" unicode="&#x2191;" horiz-adv-x="650" 
d="M272 60v381l-129 -127l-73 71l255 255l255 -255l-73 -71l-129 127v-381h-106z" />
    <glyph glyph-name="uni2197" unicode="&#x2197;" horiz-adv-x="649" 
d="M178 126l-75 75l268 267h-181v106h361v-361h-106v181z" />
    <glyph glyph-name="arrowright" unicode="&#x2192;" horiz-adv-x="661" 
d="M360 95l-71 73l127 129h-380v106h380l-127 129l71 73l255 -255z" />
    <glyph glyph-name="uni2198" unicode="&#x2198;" horiz-adv-x="649" 
d="M190 126v106h181l-268 267l75 75l267 -268v181h106v-361h-361z" />
    <glyph glyph-name="arrowdown" unicode="&#x2193;" horiz-adv-x="650" 
d="M325 60l-255 255l73 71l129 -127v381h106v-381l129 127l73 -71z" />
    <glyph glyph-name="uni2199" unicode="&#x2199;" horiz-adv-x="649" 
d="M98 126v361h106v-181l267 268l75 -75l-268 -267h181v-106h-361z" />
    <glyph glyph-name="arrowleft" unicode="&#x2190;" horiz-adv-x="661" 
d="M291 95l-255 255l255 255l71 -73l-127 -129h380v-106h-380l127 -129z" />
    <glyph glyph-name="uni2196" unicode="&#x2196;" horiz-adv-x="649" 
d="M471 126l-267 268v-181h-106v361h361v-106h-181l268 -267z" />
    <glyph glyph-name="arrowboth" unicode="&#x2194;" horiz-adv-x="861" 
d="M560 605l255 -255l-255 -255l-71 73l127 129h-381l127 -129l-71 -73l-255 255l255 255l71 -73l-127 -129h381l-127 129z" />
    <glyph glyph-name="arrowupdn" unicode="&#x2195;" horiz-adv-x="650" 
d="M378 161l129 127l73 -71l-255 -255l-255 255l73 71l129 -127v381l-129 -127l-73 71l255 255l255 -255l-73 -71l-129 127v-381z" />
    <glyph glyph-name="arrowup.ss03" horiz-adv-x="650" 
d="M272 0v501l-129 -127l-73 71l255 255l255 -255l-73 -71l-129 127v-501h-106z" />
    <glyph glyph-name="uni2197.ss03" horiz-adv-x="733" 
d="M178 84l-75 75l352 351h-181v106h361v-361h-106v181z" />
    <glyph glyph-name="arrowright.ss03" horiz-adv-x="782" 
d="M491 95l-71 73l127 129h-501v106h501l-127 129l71 73l255 -255z" />
    <glyph glyph-name="uni2198.ss03" horiz-adv-x="733" 
d="M272 84v106h181l-352 351l75 75l351 -352v181h106v-361h-361z" />
    <glyph glyph-name="arrowdown.ss03" horiz-adv-x="650" 
d="M325 0l-255 255l73 71l129 -127v501h106v-501l129 127l73 -71z" />
    <glyph glyph-name="uni2199.ss03" horiz-adv-x="733" 
d="M100 84v361h106v-181l351 352l75 -75l-352 -351h181v-106h-361z" />
    <glyph glyph-name="arrowleft.ss03" horiz-adv-x="782" 
d="M296 95l-255 255l255 255l71 -73l-127 -129h501v-106h-501l127 -129z" />
    <glyph glyph-name="uni2196.ss03" horiz-adv-x="733" 
d="M555 84l-351 352v-181h-106v361h361v-106h-181l352 -351z" />
    <glyph glyph-name="lozenge" unicode="&#x25ca;" horiz-adv-x="606" 
d="M243 0l-182 350l182 350h120l182 -350l-182 -350h-120zM303 106l118 244l-118 244l-118 -244z" />
    <glyph glyph-name="uniF8FF" unicode="&#xf8ff;" horiz-adv-x="792" 
d="M122 0c-13 0 -22 11 -22 22v595c0 10 7 19 16 22l270 78c3 1 8 2 10 2s7 -1 10 -2l270 -78c9 -3 16 -12 16 -22v-595c0 -11 -9 -22 -22 -22c-2 0 -3 0 -7 1l-267 77l-267 -77c-4 -1 -5 -1 -7 -1zM374 366v303l-230 -67c8 -125 106 -225 230 -236zM418 366
c124 11 222 111 230 236l-230 67v-303zM143 51l231 67v204c-98 8 -183 62 -231 141v-412zM649 51v412c-49 -79 -133 -133 -231 -141v-204z" />
    <glyph glyph-name="at" unicode="@" horiz-adv-x="918" 
d="M470 -94c-244 0 -410 168 -410 395c0 254 173 417 416 417c250 0 382 -153 382 -366c0 -148 -77 -244 -190 -244c-52 0 -94 32 -109 69c-33 -41 -79 -69 -134 -69c-113 0 -178 79 -178 188c0 118 80 220 216 220c43 0 76 -13 104 -38l11 31h83l-20 -219
c-1 -14 -2 -23 -2 -29c0 -36 13 -51 39 -51c45 0 60 62 60 147c0 177 -113 259 -267 259c-144 0 -291 -102 -291 -315c0 -199 155 -293 290 -293c61 0 130 3 238 55l39 -97c-95 -45 -170 -60 -277 -60zM434 210c60 0 105 52 105 120c0 53 -29 84 -81 84
c-50 0 -96 -45 -96 -123c0 -53 24 -81 72 -81z" />
    <glyph glyph-name="ampersand" unicode="&#x26;" horiz-adv-x="636" 
d="M258 -8c-125 0 -222 79 -222 214c0 105 64 177 133 216c-28 39 -48 88 -48 137c0 82 63 149 163 149c104 0 162 -69 162 -140c0 -84 -54 -146 -114 -178l115 -151c19 36 34 72 51 126l72 -84c-11 -47 -28 -94 -52 -135l112 -146h-147l-41 54c-48 -38 -109 -62 -184 -62z
M263 474c31 14 71 39 71 81c0 28 -20 47 -50 47c-31 0 -53 -20 -53 -51c0 -30 13 -53 32 -77zM259 107c50 0 82 13 114 39l-141 188c-48 -29 -76 -75 -76 -126c0 -56 40 -101 103 -101z" />
    <glyph glyph-name="paragraph" unicode="&#xb6;" horiz-adv-x="744" 
d="M281 -204v450c-125 0 -227 102 -227 227s102 227 227 227h403v-108h-62v-796h-120v796h-101v-796h-120z" />
    <glyph glyph-name="section" unicode="&#xa7;" horiz-adv-x="496" 
d="M247 -212c-103 0 -173 49 -200 151l110 36c19 -53 50 -71 90 -71c36 0 61 24 61 72c0 68 -69 91 -171 143c-59 30 -105 77 -105 155c0 64 22 107 59 139c-20 34 -25 70 -25 100c0 120 84 195 181 195c103 0 173 -49 200 -151l-110 -36c-19 53 -50 71 -90 71
c-36 0 -61 -24 -61 -72c0 -68 69 -91 171 -143c59 -30 105 -77 105 -155c0 -64 -22 -107 -59 -139c20 -34 25 -70 25 -100c0 -120 -84 -195 -181 -195zM324 152c19 15 30 34 30 61c0 60 -99 87 -184 131c-18 -14 -30 -34 -30 -61c0 -60 99 -87 184 -131z" />
    <glyph glyph-name="copyright" unicode="&#xa9;" horiz-adv-x="890" 
d="M445 -40c-218 0 -385 168 -385 390s167 390 385 390s385 -168 385 -390s-167 -390 -385 -390zM445 66c161 0 275 119 275 284s-114 284 -275 284s-275 -119 -275 -284s114 -284 275 -284zM445 134c-105 0 -201 73 -201 216s96 216 201 216c91 0 171 -48 185 -141l-97 -19
c-17 52 -52 65 -88 65c-54 0 -91 -50 -91 -121s37 -121 91 -121c36 0 71 13 88 65l97 -19c-14 -93 -94 -141 -185 -141z" />
    <glyph glyph-name="registered" unicode="&#xae;" horiz-adv-x="890" 
d="M445 -40c-218 0 -385 168 -385 390s167 390 385 390s385 -168 385 -390s-167 -390 -385 -390zM445 66c161 0 275 119 275 284s-114 284 -275 284s-275 -119 -275 -284s114 -284 275 -284zM289 147v416h169c95 0 140 -45 140 -122c0 -68 -35 -107 -87 -117l111 -177h-113
l-103 172h-12v-172h-105zM394 402h54c37 0 48 16 48 39c0 24 -11 39 -48 39h-54v-78z" />
    <glyph glyph-name="uni2117" unicode="&#x2117;" horiz-adv-x="890" 
d="M445 -40c-218 0 -385 168 -385 390s167 390 385 390s385 -168 385 -390s-167 -390 -385 -390zM445 66c161 0 275 119 275 284s-114 284 -275 284s-275 -119 -275 -284s114 -284 275 -284zM299 137v426h169c95 0 140 -45 140 -122c0 -88 -41 -122 -140 -122h-64v-182h-105
zM404 402h54c37 0 48 16 48 39c0 24 -11 39 -48 39h-54v-78z" />
    <glyph glyph-name="trademark" unicode="&#x2122;" horiz-adv-x="852" 
d="M127 300v310h-104v90h305v-90h-104v-310h-97zM388 300v400h97l97 -233l97 233h97v-400h-97v193l-65 -156h-64l-65 156v-193h-97z" />
    <glyph glyph-name="degree" unicode="&#xb0;" horiz-adv-x="364" 
d="M182 472c-70 0 -122 52 -122 121s52 121 122 121s122 -52 122 -121s-52 -121 -122 -121zM182 553c24 0 39 16 39 40s-15 40 -39 40s-39 -16 -39 -40s15 -40 39 -40z" />
    <glyph glyph-name="bar" unicode="|" horiz-adv-x="282" 
d="M80 -50v800h122v-800h-122z" />
    <glyph glyph-name="brokenbar" unicode="&#xa6;" horiz-adv-x="282" 
d="M80 401v349h122v-349h-122zM80 -50v349h122v-349h-122z" />
    <glyph glyph-name="dagger" unicode="&#x2020;" horiz-adv-x="484" 
d="M181 -50v446h-149v108h149v246h122v-246h149v-108h-149v-446h-122z" />
    <glyph glyph-name="uni2113" unicode="&#x2113;" horiz-adv-x="513" 
d="M386 182l105 -38c-25 -99 -77 -152 -186 -152c-134 0 -187 71 -187 193v55l-55 -32l-57 100c49 28 82 48 112 67v157c0 104 54 176 167 176c112 0 150 -72 150 -136c0 -93 -81 -175 -171 -240c-5 -4 -11 -8 -16 -11v-154c0 -47 25 -69 64 -69c37 0 60 26 74 84zM278 602
c-20 0 -30 -15 -30 -40v-93c36 33 57 66 57 100c0 19 -7 33 -27 33z" />
    <glyph glyph-name="daggerdbl" unicode="&#x2021;" horiz-adv-x="484" 
d="M181 -50v246h-149v108h149v92h-149v108h149v246h122v-246h149v-108h-149v-92h149v-108h-149v-246h-122z" />
    <glyph glyph-name="estimated" unicode="&#x212e;" horiz-adv-x="762" 
d="M157 350v-197c44 -67 131 -113 224 -113c112 0 215 54 259 149h56c-56 -115 -178 -196 -315 -196c-213 0 -351 161 -351 357c0 198 138 358 351 358c205 0 351 -148 351 -358h-575zM381 663c-92 0 -176 -43 -224 -107v-159h453v156c-39 56 -124 110 -229 110z" />
    <glyph glyph-name="uni2116" unicode="&#x2116;" horiz-adv-x="1268" 
d="M970 188c-162 0 -256 114 -256 260s94 260 256 260s256 -114 256 -260s-94 -260 -256 -260zM80 0v700h137l257 -462v462h130v-700h-137l-257 462v-462h-130zM970 294c80 0 126 71 126 154s-46 154 -126 154s-126 -71 -126 -154s46 -154 126 -154zM743 0v108h455v-108
h-455z" />
    <glyph glyph-name="asciicircum" unicode="^" horiz-adv-x="555" 
d="M29 403l195 297h107l195 -297h-120l-128 189l-129 -189h-120z" />
    <glyph glyph-name="uni2120" unicode="&#x2120;" horiz-adv-x="826" 
d="M164 292c-72 0 -126 49 -139 112l72 40c10 -42 38 -67 71 -67c26 0 43 15 43 42c0 31 -21 43 -75 65c-44 18 -86 49 -86 113c0 63 47 111 120 111c65 0 96 -25 118 -75l-70 -42c-10 26 -23 36 -45 36c-19 0 -33 -12 -33 -28c0 -24 17 -35 82 -63c56 -24 86 -61 86 -113
c0 -84 -64 -131 -144 -131zM362 300v400h97l97 -233l97 233h97v-400h-97v193l-65 -156h-64l-65 156v-193h-97z" />
    <glyph glyph-name="section.tf" 
d="M310 -212c-103 0 -173 49 -200 151l110 36c19 -53 50 -71 90 -71c36 0 61 24 61 72c0 68 -69 91 -171 143c-59 30 -105 77 -105 155c0 64 22 107 59 139c-20 34 -25 70 -25 100c0 120 84 195 181 195c103 0 173 -49 200 -151l-110 -36c-19 53 -50 71 -90 71
c-36 0 -61 -24 -61 -72c0 -68 69 -91 171 -143c59 -30 105 -77 105 -155c0 -64 -22 -107 -59 -139c20 -34 25 -70 25 -100c0 -120 -84 -195 -181 -195zM387 152c19 15 30 34 30 61c0 60 -99 87 -184 131c-18 -14 -30 -34 -30 -61c0 -60 99 -87 184 -131z" />
    <glyph glyph-name="uni0308" unicode="&#x308;" horiz-adv-x="0" 
d="M-278 576c-42 0 -71 30 -71 71s29 71 71 71s71 -30 71 -71s-29 -71 -71 -71zM-71 576c-42 0 -71 30 -71 71s29 71 71 71s71 -30 71 -71s-29 -71 -71 -71z" />
    <glyph glyph-name="uni0307" unicode="&#x307;" horiz-adv-x="0" 
d="M-80 569c-46 0 -80 35 -80 80s34 80 80 80s80 -35 80 -80s-34 -80 -80 -80z" />
    <glyph glyph-name="gravecomb" unicode="&#x300;" horiz-adv-x="0" 
d="M-90 552l-145 156h168l67 -156h-90z" />
    <glyph glyph-name="acutecomb" unicode="&#x301;" horiz-adv-x="0" 
d="M-235 552l67 156h168l-145 -156h-90z" />
    <glyph glyph-name="uni030B" unicode="&#x30b;" horiz-adv-x="0" 
d="M-435 560l64 148h168l-138 -148h-94zM-232 560l64 148h168l-138 -148h-94z" />
    <glyph glyph-name="caroncomb.alt" horiz-adv-x="0" 
d="M-161 542l25 184h136l-82 -184h-79z" />
    <glyph glyph-name="uni0302" unicode="&#x302;" horiz-adv-x="0" 
d="M-356 560l161 174h34l161 -174h-114l-64 69l-64 -69h-114z" />
    <glyph glyph-name="uni030C" unicode="&#x30c;" horiz-adv-x="0" 
d="M-195 560l-161 174h114l64 -69l64 69h114l-161 -174h-34z" />
    <glyph glyph-name="uni0306" unicode="&#x306;" horiz-adv-x="0" 
d="M-118 591c-73 0 -118 51 -118 109h91c0 -16 11 -28 27 -28s27 12 27 28h91c0 -58 -45 -109 -118 -109z" />
    <glyph glyph-name="uni030A" unicode="&#x30a;" horiz-adv-x="0" 
d="M-106 553c-60 0 -106 43 -106 102s46 102 106 102s106 -43 106 -102s-46 -102 -106 -102zM-106 623c18 0 32 13 32 32s-14 32 -32 32s-32 -13 -32 -32s14 -32 32 -32z" />
    <glyph glyph-name="tildecomb" unicode="&#x303;" horiz-adv-x="0" 
d="M-320 569l-65 55c23 51 72 87 123 87c66 0 85 -41 133 -41c22 0 45 17 64 43l65 -55c-23 -51 -72 -87 -123 -87c-66 0 -85 41 -133 41c-22 0 -45 -17 -64 -43z" />
    <glyph glyph-name="uni0304" unicode="&#x304;" horiz-adv-x="0" 
d="M-269 594v98h269v-98h-269z" />
    <glyph glyph-name="uni0312" unicode="&#x312;" horiz-adv-x="0" 
d="M-179 586l99 168h80l-43 -168h-136z" />
    <glyph glyph-name="uni0326" unicode="&#x326;" horiz-adv-x="0" 
d="M-196 -236l44 184h152l-130 -184h-66z" />
    <glyph glyph-name="uni0327" unicode="&#x327;" horiz-adv-x="0" 
d="M-83 -266l-148 66l141 140h90z" />
    <glyph glyph-name="uni0328" unicode="&#x328;" horiz-adv-x="0" 
d="M-65 -185c-57 0 -97 33 -97 90c0 39 25 75 57 95h86c-36 -29 -58 -57 -58 -78c0 -16 9 -26 26 -26c12 0 21 4 31 10l20 -76c-19 -10 -37 -15 -65 -15z" />
    <glyph glyph-name="uni0335" unicode="&#x335;" horiz-adv-x="0" 
d="M-307 304v92h307v-92h-307z" />
    <glyph glyph-name="uni0336" unicode="&#x336;" horiz-adv-x="0" 
d="M-669 296v108h669v-108h-669z" />
    <glyph glyph-name="uni0337" unicode="&#x337;" horiz-adv-x="0" 
d="M-275 241l-53 95l275 150l53 -95z" />
    <glyph glyph-name="uni0338" unicode="&#x338;" horiz-adv-x="0" 
d="M-440 -60l-86 63l440 561l86 -63z" />
    <glyph glyph-name="uni0308.cap" horiz-adv-x="0" 
d="M-278 772c-42 0 -71 30 -71 71s29 71 71 71s71 -30 71 -71s-29 -71 -71 -71zM-71 772c-42 0 -71 30 -71 71s29 71 71 71s71 -30 71 -71s-29 -71 -71 -71z" />
    <glyph glyph-name="uni0307.cap" horiz-adv-x="0" 
d="M-80 765c-46 0 -80 35 -80 80s34 80 80 80s80 -35 80 -80s-34 -80 -80 -80z" />
    <glyph glyph-name="gravecomb.cap" horiz-adv-x="0" 
d="M-90 748l-145 156h168l67 -156h-90z" />
    <glyph glyph-name="acutecomb.cap" horiz-adv-x="0" 
d="M-235 748l67 156h168l-145 -156h-90z" />
    <glyph glyph-name="uni030B.cap" horiz-adv-x="0" 
d="M-435 756l64 148h168l-138 -148h-94zM-232 756l64 148h168l-138 -148h-94z" />
    <glyph glyph-name="uni0302.cap" horiz-adv-x="0" 
d="M-356 756l161 174h34l161 -174h-114l-64 69l-64 -69h-114z" />
    <glyph glyph-name="uni030C.cap" horiz-adv-x="0" 
d="M-195 756l-161 174h114l64 -69l64 69h114l-161 -174h-34z" />
    <glyph glyph-name="uni0306.cap" horiz-adv-x="0" 
d="M-118 787c-73 0 -118 51 -118 109h91c0 -16 11 -28 27 -28s27 12 27 28h91c0 -58 -45 -109 -118 -109z" />
    <glyph glyph-name="uni030A.cap" horiz-adv-x="0" 
d="M-106 749c-60 0 -106 43 -106 102s46 102 106 102s106 -43 106 -102s-46 -102 -106 -102zM-106 819c18 0 32 13 32 32s-14 32 -32 32s-32 -13 -32 -32s14 -32 32 -32z" />
    <glyph glyph-name="tildecomb.cap" horiz-adv-x="0" 
d="M-320 765l-65 55c23 51 72 87 123 87c66 0 85 -41 133 -41c22 0 45 17 64 43l65 -55c-23 -51 -72 -87 -123 -87c-66 0 -85 41 -133 41c-22 0 -45 -17 -64 -43z" />
    <glyph glyph-name="uni0304.cap" horiz-adv-x="0" 
d="M-269 790v98h269v-98h-269z" />
    <glyph glyph-name="uni0327.cap" horiz-adv-x="0" 
d="M-83 -266l-148 66l141 140h90z" />
    <glyph glyph-name="uni0328.cap" horiz-adv-x="0" 
d="M-65 -185c-57 0 -97 33 -97 90c0 39 25 75 57 95h86c-36 -29 -58 -57 -58 -78c0 -16 9 -26 26 -26c12 0 21 4 31 10l20 -76c-19 -10 -37 -15 -65 -15z" />
    <glyph glyph-name="uni0335.cap" horiz-adv-x="0" 
d="M-316 296v108h316v-108h-316z" />
    <glyph glyph-name="uni0337.cap" horiz-adv-x="0" 
d="M-338 206l-53 95l338 187l53 -95z" />
    <glyph glyph-name="uni0338.cap" horiz-adv-x="0" 
d="M-558 -41l-86 63l558 719l86 -63z" />
    <glyph glyph-name="caroncomb.alt.ss02" horiz-adv-x="0" 
d="M-131 534l-18 24c33 23 52 55 60 93c-36 14 -51 41 -51 66c0 35 28 67 70 67s70 -32 70 -73c0 -78 -59 -131 -131 -177z" />
    <glyph glyph-name="uni0312.ss02" horiz-adv-x="0" 
d="M-79 562c-42 0 -70 32 -70 73c0 78 59 131 131 177l18 -24c-33 -23 -52 -55 -60 -93c36 -14 51 -41 51 -66c0 -35 -28 -67 -70 -67z" />
    <glyph glyph-name="uni0326.ss02" horiz-adv-x="0" 
d="M-131 -296l-18 24c33 23 52 55 60 93c-36 14 -51 41 -51 66c0 35 28 67 70 67s70 -32 70 -73c0 -78 -59 -131 -131 -177z" />
    <glyph glyph-name="uni02C9" unicode="&#x2c9;" horiz-adv-x="269" 
d="M0 594v98h269v-98h-269z" />
    <glyph glyph-name="acute" unicode="&#xb4;" horiz-adv-x="260" 
d="M12 552l67 156h168l-145 -156h-90z" />
    <glyph glyph-name="breve" unicode="&#x2d8;" horiz-adv-x="268" 
d="M134 591c-73 0 -118 51 -118 109h91c0 -16 11 -28 27 -28s27 12 27 28h91c0 -58 -45 -109 -118 -109z" />
    <glyph glyph-name="caron" unicode="&#x2c7;" horiz-adv-x="428" 
d="M197 560l-161 174h114l64 -69l64 69h114l-161 -174h-34z" />
    <glyph glyph-name="cedilla" unicode="&#xb8;" horiz-adv-x="241" 
d="M153 -266l-148 66l141 140h90z" />
    <glyph glyph-name="circumflex" unicode="&#x2c6;" horiz-adv-x="428" 
d="M36 560l161 174h34l161 -174h-114l-64 69l-64 -69h-114z" />
    <glyph glyph-name="dieresis" unicode="&#xa8;" horiz-adv-x="381" 
d="M87 576c-42 0 -71 30 -71 71s29 71 71 71s71 -30 71 -71s-29 -71 -71 -71zM294 576c-42 0 -71 30 -71 71s29 71 71 71s71 -30 71 -71s-29 -71 -71 -71z" />
    <glyph glyph-name="dotaccent" unicode="&#x2d9;" horiz-adv-x="288" 
d="M144 569c-46 0 -80 35 -80 80s34 80 80 80s80 -35 80 -80s-34 -80 -80 -80z" />
    <glyph glyph-name="grave" unicode="`" horiz-adv-x="260" 
d="M158 552l-145 156h168l67 -156h-90z" />
    <glyph glyph-name="hungarumlaut" unicode="&#x2dd;" horiz-adv-x="460" 
d="M12 560l64 148h168l-138 -148h-94zM215 560l64 148h168l-138 -148h-94z" />
    <glyph glyph-name="macron" unicode="&#xaf;" horiz-adv-x="287" 
d="M9 594v98h269v-98h-269z" />
    <glyph glyph-name="ogonek" unicode="&#x2db;" horiz-adv-x="229" 
d="M125 -185c-57 0 -97 33 -97 90c0 39 25 75 57 95h86c-36 -29 -58 -57 -58 -78c0 -16 9 -26 26 -26c12 0 21 4 31 10l20 -76c-19 -10 -37 -15 -65 -15z" />
    <glyph glyph-name="ring" unicode="&#x2da;" horiz-adv-x="232" 
d="M116 553c-60 0 -106 43 -106 102s46 102 106 102s106 -43 106 -102s-46 -102 -106 -102zM116 623c18 0 32 13 32 32s-14 32 -32 32s-32 -13 -32 -32s14 -32 32 -32z" />
    <glyph glyph-name="tilde" unicode="&#x2dc;" horiz-adv-x="415" 
d="M80 569l-65 55c23 51 72 87 123 87c66 0 85 -41 133 -41c22 0 45 17 64 43l65 -55c-23 -51 -72 -87 -123 -87c-66 0 -85 41 -133 41c-22 0 -45 -17 -64 -43z" />
    <glyph glyph-name="tonos" unicode="&#x384;" horiz-adv-x="326" 
d="M60 560l42 148h164l-112 -148h-94z" />
    <glyph glyph-name="dieresistonos" unicode="&#x385;" horiz-adv-x="439" 
d="M141 560l42 148h134l-102 -148h-74zM70 576c-31 0 -54 24 -54 54c0 31 23 56 54 56c33 0 56 -25 56 -56c0 -30 -23 -54 -56 -54zM367 576c-30 0 -54 24 -54 54c0 31 24 56 54 56c32 0 56 -25 56 -56c0 -30 -24 -54 -56 -54z" />
    <glyph glyph-name="brevecombcy" horiz-adv-x="0" 
d="M-126 591c-73 0 -118 51 -118 109h91c0 -16 11 -28 27 -28s27 12 27 28h91c0 -58 -45 -109 -118 -109z" />
    <glyph glyph-name="tonoscomb" horiz-adv-x="206" 
d="M0 560l42 148h164l-112 -148h-94z" />
    <glyph glyph-name="dieresistonoscomb" horiz-adv-x="407" 
d="M125 560l42 148h134l-102 -148h-74zM54 576c-31 0 -54 24 -54 54c0 31 23 56 54 56c33 0 56 -25 56 -56c0 -30 -23 -54 -56 -54zM351 576c-30 0 -54 24 -54 54c0 31 24 56 54 56c32 0 56 -25 56 -56c0 -30 -24 -54 -56 -54z" />
    <glyph glyph-name="NULL" horiz-adv-x="248" 
 />
    <glyph glyph-name="uni20BF" unicode="&#x20bf;" horiz-adv-x="618" 
d="M572 211c0 -123 -72 -196 -192 -209v-72h-86v70h-49v-70h-86v70h-79v700h79v70h86v-70h49v70h86v-73c95 -14 156 -75 156 -186c0 -57 -25 -106 -69 -129c66 -27 105 -82 105 -171zM411 504c0 57 -30 76 -85 76h-116v-152h119c52 0 82 19 82 76zM329 120
c81 0 113 34 113 94s-32 94 -113 94h-119v-188h119z" />
    <glyph glyph-name="uni20BF.tf" 
d="M556 211c0 -123 -72 -196 -192 -209v-72h-86v70h-49v-70h-86v70h-79v700h79v70h86v-70h49v70h86v-73c95 -14 156 -75 156 -186c0 -57 -25 -106 -69 -129c66 -27 105 -82 105 -171zM395 504c0 57 -30 76 -85 76h-116v-152h119c52 0 82 19 82 76zM313 120
c81 0 113 34 113 94s-32 94 -113 94h-119v-188h119z" />
    </font>
</defs>
</svg>
