<?xml version="1.0" encoding="utf-8"?>
<!-- Generator: Adobe Illustrator 22.1.0, SVG Export Plug-In . SVG Version: 6.00 Build 0)  -->
<svg version="1.1" id="Layer_1" xmlns="http://www.w3.org/2000/svg" xmlns:xlink="http://www.w3.org/1999/xlink" x="0px" y="0px"
	 width="512px" height="512px" viewBox="0 0 512 512" enable-background="new 0 0 512 512" xml:space="preserve">
<g>
	<path fill="#0063A4" d="M362.3,0H149.7c-34.9,0-63.3,28.4-63.3,63.3v385.4c0,34.9,28.4,63.3,63.3,63.3h212.6
		c34.9,0,63.3-28.4,63.3-63.3V63.3C425.6,28.4,397.2,0,362.3,0z M402.1,448.7c0,22-17.9,39.8-39.8,39.8H149.7
		c-22,0-39.8-17.9-39.8-39.8V63.3c0-22,17.9-39.8,39.8-39.8h212.6c22,0,39.8,17.9,39.8,39.8V448.7z"/>
	<path fill="#0063A4" d="M366.3,62.6H145.7c-8.9,0-16.1,7.2-16.1,16.1v51.2c0,8.9,7.2,16.1,16.1,16.1h220.6
		c8.9,0,16.1-7.2,16.1-16.1V78.7C382.4,69.8,375.2,62.6,366.3,62.6z"/>
	<path fill="#0063A4" d="M344.8,180.8c-18.3,0-33.1,14.9-33.1,33.1s14.9,33.1,33.1,33.1c18.3,0,33.1-14.9,33.1-33.1
		S363.1,180.8,344.8,180.8z M344.8,223.5c-5.3,0-9.6-4.3-9.6-9.6c0-5.3,4.3-9.6,9.6-9.6c5.3,0,9.6,4.3,9.6,9.6
		C354.4,219.2,350.1,223.5,344.8,223.5z"/>
	<path fill="#0063A4" d="M344.8,251c-18.3,0-33.1,14.9-33.1,33.1s14.9,33.1,33.1,33.1c18.3,0,33.1-14.8,33.1-33.1
		S363.1,251,344.8,251z M344.8,293.7c-5.3,0-9.6-4.3-9.6-9.6c0-5.3,4.3-9.6,9.6-9.6c5.3,0,9.6,4.3,9.6,9.6
		C354.4,289.4,350.1,293.7,344.8,293.7z"/>
	<path fill="#0063A4" d="M344.8,321.3c-18.3,0-33.1,14.8-33.1,33.1s14.9,33.1,33.1,33.1c18.3,0,33.1-14.9,33.1-33.1
		S363.1,321.3,344.8,321.3z M344.8,364c-5.3,0-9.6-4.3-9.6-9.6c0-5.3,4.3-9.6,9.6-9.6c5.3,0,9.6,4.3,9.6,9.6
		C354.4,359.7,350.1,364,344.8,364z"/>
	<path fill="#0063A4" d="M344.8,391.6c-18.3,0-33.1,14.9-33.1,33.1s14.9,33.1,33.1,33.1c18.3,0,33.1-14.9,33.1-33.1
		S363.1,391.6,344.8,391.6z M344.8,434.3c-5.3,0-9.6-4.3-9.6-9.6s4.3-9.6,9.6-9.6c5.3,0,9.6,4.3,9.6,9.6S350.1,434.3,344.8,434.3z"
		/>
	<path fill="#0063A4" d="M256,180.8c-18.3,0-33.1,14.9-33.1,33.1S237.7,247,256,247c18.3,0,33.1-14.9,33.1-33.1
		S274.3,180.8,256,180.8z M256,223.5c-5.3,0-9.6-4.3-9.6-9.6c0-5.3,4.3-9.6,9.6-9.6s9.6,4.3,9.6,9.6
		C265.6,219.2,261.3,223.5,256,223.5z"/>
	<path fill="#0063A4" d="M256,251c-18.3,0-33.1,14.9-33.1,33.1s14.9,33.1,33.1,33.1c18.3,0,33.1-14.8,33.1-33.1S274.3,251,256,251z
		 M256,293.7c-5.3,0-9.6-4.3-9.6-9.6c0-5.3,4.3-9.6,9.6-9.6s9.6,4.3,9.6,9.6C265.6,289.4,261.3,293.7,256,293.7z"/>
	<path fill="#0063A4" d="M256,321.3c-18.3,0-33.1,14.8-33.1,33.1s14.9,33.1,33.1,33.1c18.3,0,33.1-14.9,33.1-33.1
		S274.3,321.3,256,321.3z M256,364c-5.3,0-9.6-4.3-9.6-9.6c0-5.3,4.3-9.6,9.6-9.6s9.6,4.3,9.6,9.6C265.6,359.7,261.3,364,256,364z"
		/>
	<path fill="#0063A4" d="M256,391.6c-18.3,0-33.1,14.9-33.1,33.1s14.9,33.1,33.1,33.1c18.3,0,33.1-14.9,33.1-33.1
		S274.3,391.6,256,391.6z M256,434.3c-5.3,0-9.6-4.3-9.6-9.6s4.3-9.6,9.6-9.6s9.6,4.3,9.6,9.6S261.3,434.3,256,434.3z"/>
	<path fill="#0063A4" d="M167.2,180.8c-18.3,0-33.1,14.9-33.1,33.1S149,247,167.2,247s33.1-14.9,33.1-33.1S185.5,180.8,167.2,180.8z
		 M167.2,223.5c-5.3,0-9.6-4.3-9.6-9.6c0-5.3,4.3-9.6,9.6-9.6c5.3,0,9.6,4.3,9.6,9.6C176.8,219.2,172.5,223.5,167.2,223.5z"/>
	<path fill="#0063A4" d="M167.2,251c-18.3,0-33.1,14.9-33.1,33.1s14.9,33.1,33.1,33.1s33.1-14.8,33.1-33.1S185.5,251,167.2,251z
		 M167.2,293.7c-5.3,0-9.6-4.3-9.6-9.6c0-5.3,4.3-9.6,9.6-9.6c5.3,0,9.6,4.3,9.6,9.6C176.8,289.4,172.5,293.7,167.2,293.7z"/>
	<path fill="#0063A4" d="M167.2,321.3c-18.3,0-33.1,14.8-33.1,33.1s14.9,33.1,33.1,33.1s33.1-14.9,33.1-33.1
		S185.5,321.3,167.2,321.3z M167.2,364c-5.3,0-9.6-4.3-9.6-9.6c0-5.3,4.3-9.6,9.6-9.6c5.3,0,9.6,4.3,9.6,9.6
		C176.8,359.7,172.5,364,167.2,364z"/>
	<path fill="#0063A4" d="M167.2,391.6c-18.3,0-33.1,14.9-33.1,33.1s14.9,33.1,33.1,33.1s33.1-14.9,33.1-33.1
		S185.5,391.6,167.2,391.6z M167.2,434.3c-5.3,0-9.6-4.3-9.6-9.6s4.3-9.6,9.6-9.6c5.3,0,9.6,4.3,9.6,9.6S172.5,434.3,167.2,434.3z"
		/>
</g>
</svg>
