<?xml version="1.0" encoding="UTF-8"?>
<svg width="65px" height="63px" viewBox="0 0 65 63" version="1.1" xmlns="http://www.w3.org/2000/svg" xmlns:xlink="http://www.w3.org/1999/xlink">
    <!-- Generator: Sketch 52.4 (67378) - http://www.bohemiancoding.com/sketch -->
    <title>id-card</title>
    <desc>Created with Sketch.</desc>
    <g id="Symbols" stroke="none" stroke-width="1" fill="none" fill-rule="evenodd">
        <g id="BUTTONS/select/idcard-active" transform="translate(-53.000000, -30.000000)">
            <g id="id-card" transform="translate(53.000000, 30.000000)">
                <g id="mobiil-id" stroke-width="1" fill-rule="evenodd" transform="translate(13.000000, 18.000000)">
                    <path d="M22.4967915,13.8706925 C22.4967915,15.5753675 22.5067877,17.280305 22.4897146,18.9848925 C22.4855569,19.40708 22.6410723,19.5566175 23.0585223,19.54148 C23.7941685,19.5146175 24.5376877,19.580155 25.26608,19.5009675 C27.1803877,19.29298 28.69538,18.43758 29.4579185,16.6104925 C30.2135569,14.7997675 30.2024992,12.9391675 29.5304569,11.1069175 C28.9142338,9.42718 27.5789069,8.6236675 25.8577108,8.3564425 C24.9349685,8.213205 24.0052377,8.290555 23.0786031,8.27848 C22.5249223,8.271305 22.4982069,8.3037675 22.4974108,8.8438175 C22.4951108,10.5194425 22.4966146,12.1950675 22.4967915,13.8706925 Z M13.2706954,13.6974425 C13.2706954,10.999905 13.2676877,8.302455 13.2734377,5.6049175 C13.2744992,5.1392425 13.3089108,4.67348 13.3337685,4.20798 C13.4104646,2.7734175 14.5739108,1.63058 15.9396685,1.410255 C16.34668,1.3445425 16.7553723,1.3074425 17.1705223,1.30823 C20.6494492,1.3140925 24.12873,1.283555 27.6073031,1.31978 C30.3711954,1.3485675 32.9433915,2.0954675 35.1880146,3.7152675 C37.3835415,5.2997175 38.66703,7.5010425 39.1426877,10.12648 C39.72158,13.32198 39.7421915,16.5100425 38.5929877,19.61078 C37.5019915,22.5543675 35.4160685,24.50973 32.4561454,25.6158175 C30.5584685,26.325005 28.5915262,26.5088425 26.5990185,26.5272175 C23.5772608,26.5550425 20.5550608,26.5431425 17.5331262,26.532205 C16.3518992,26.5279175 15.2762069,26.24853 14.3914146,25.3811425 C13.5516492,24.5579425 13.2630877,23.5508175 13.2555685,22.44613 C13.2358415,19.5300175 13.2488454,16.6136425 13.2488454,13.6974425 L13.2706954,13.6974425 Z" id="Fill-4" fill="#205EA0"></path>
                    <path d="M10.4648104,16.7202525 C10.3583027,18.8274275 10.4376527,20.8700275 10.3601604,22.9073775 C10.2772719,25.0882275 8.83667577,26.74329 6.43273346,26.9103275 C5.24159885,26.9931025 4.07523346,26.9553025 2.99379115,26.37509 C1.75285269,25.709215 1.12734115,24.63454 0.957052692,23.28529 C0.839929615,22.3577025 0.909637308,21.42154 0.904948846,20.489315 C0.894333462,18.405065 0.903533462,16.320815 0.888318077,14.236565 C0.885398846,13.83459 1.00942192,13.60709 1.41448731,13.4551025 C3.43822192,12.6957775 5.45125269,11.9082775 7.46552192,11.1242775 C8.25981808,10.81514 9.04588731,10.4855275 9.83859115,10.172365 C10.4256219,9.940315 10.4636604,9.966565 10.4641912,10.579065 C10.4657835,12.64879 10.4648104,14.7184275 10.4648104,16.7202525" id="Fill-6" fill="#205EA0"></path>
                    <path d="M0.953593846,7.4202625 C1.00375154,6.459075 0.835409231,5.260325 1.12211308,4.08065 C1.59759385,2.1245875 3.17044,0.8892625 5.20240154,0.867125 C6.13319385,0.856975 7.05054,0.8799875 7.93789769,1.2214125 C9.37221308,1.7731 10.4502938,3.27355 10.4721438,4.8026125 C10.4792208,5.29795 10.4427746,5.7959125 10.4826708,6.2881875 C10.5204438,6.75465 10.3437862,6.9818875 9.90183231,7.1507625 C7.33627077,8.13085 4.78229769,9.1406875 2.22416692,10.13985 C1.92313231,10.25745 1.61652462,10.3618375 1.31991308,10.4892375 C1.03135154,10.613225 0.950409231,10.4986 0.951913077,10.2274375 C0.956513077,9.36775 0.953593846,8.5080625 0.953593846,7.4202625" id="Fill-8" fill="#FC5A00"></path>
                </g>
                <path d="M63.5,14.3883724 L50.3957474,1.5 L8,1.5 C4.41014913,1.5 1.5,4.41014913 1.5,8 L1.5,55 C1.5,58.5898509 4.41014913,61.5 8,61.5 L57,61.5 C60.5898509,61.5 63.5,58.5898509 63.5,55 L63.5,14.3883724 Z" id="Rectangle" stroke="#205EA0" stroke-width="3" fill-rule="nonzero"></path>
            </g>
        </g>
    </g>
</svg>