<?xml version="1.0" encoding="utf-8"?>
<!-- Generator: Adobe Illustrator 22.0.1, SVG Export Plug-In . SVG Version: 6.00 Build 0)  -->
<svg version="1.1" id="Layer_1" xmlns="http://www.w3.org/2000/svg" xmlns:xlink="http://www.w3.org/1999/xlink" x="0px" y="0px"
	 width="512px" height="512px" viewBox="0 0 512 512" enable-background="new 0 0 512 512" xml:space="preserve">
<path fill="#225FA1" d="M209.1,257.5c0-20.3,0-40.6,0-60.9c0-3.5,0.3-7,0.5-10.5c0.6-10.8,9.3-19.4,19.6-21.1
	c3.1-0.5,6.1-0.8,9.3-0.8c26.2,0,52.4-0.2,78.6,0.1c20.8,0.2,40.2,5.8,57.1,18c16.5,11.9,26.2,28.5,29.8,48.3
	c4.4,24.1,4.5,48.1-4.1,71.4c-8.2,22.2-23.9,36.9-46.2,45.2c-14.3,5.3-29.1,6.7-44.1,6.9c-22.8,0.2-45.5,0.1-68.3,0
	c-8.9,0-17-2.1-23.7-8.7c-6.3-6.2-8.5-13.8-8.6-22.1c-0.1-22-0.1-43.9-0.1-65.9h0.2V257.5z M278.6,258.8c0,12.8,0.1,25.7-0.1,38.5
	c0,3.2,1.1,4.3,4.3,4.2c5.5-0.2,11.1,0.3,16.6-0.3c14.4-1.6,25.8-8,31.6-21.8c5.7-13.6,5.6-27.6,0.5-41.4
	c-4.6-12.6-14.7-18.7-27.7-20.7c-6.9-1.1-13.9-0.5-20.9-0.6c-4.2-0.1-4.4,0.2-4.4,4.3C278.6,233.6,278.6,246.2,278.6,258.8z"/>
<path fill="#225FA1" d="M188,280.2c-0.8,15.9-0.2,31.2-0.8,46.6c-0.6,16.4-11.5,28.9-29.6,30.1c-9,0.6-17.8,0.3-25.9-4
	c-9.3-5-14.1-13.1-15.3-23.3c-0.9-7-0.4-14-0.4-21.1c-0.1-15.7,0-31.4-0.1-47.1c0-3,0.9-4.7,4-5.9c15.2-5.7,30.4-11.6,45.6-17.5
	c6-2.3,11.9-4.8,17.9-7.2c4.4-1.7,4.7-1.5,4.7,3.1C188,249.6,188,265.2,188,280.2"/>
<path fill="#F15D22" d="M116.4,210.2c0.4-7.2-0.9-16.3,1.3-25.1c3.6-14.7,15.4-24,30.7-24.2c7-0.1,13.9,0.1,20.6,2.7
	c10.8,4.2,18.9,15.5,19.1,27c0.1,3.7-0.2,7.5,0.1,11.2c0.3,3.5-1,5.2-4.4,6.5c-19.3,7.4-38.5,15-57.8,22.5c-2.3,0.9-4.6,1.7-6.8,2.6
	c-2.2,0.9-2.8,0.1-2.8-2C116.4,224.9,116.4,218.4,116.4,210.2"/>
<path fill="#225FA1" d="M256,512C114.8,512,0,397.2,0,256S114.8,0,256,0s256,114.8,256,256S397.2,512,256,512z M256,22.6
	C127.3,22.6,22.6,127.3,22.6,256S127.3,489.4,256,489.4S489.4,384.7,489.4,256S384.7,22.6,256,22.6z"/>
</svg>
