<?xml version="1.0" encoding="utf-8"?>
<!-- Generator: Adobe Illustrator 22.0.1, SVG Export Plug-In . SVG Version: 6.00 Build 0)  -->
<svg version="1.1" id="Layer_1" xmlns="http://www.w3.org/2000/svg" xmlns:xlink="http://www.w3.org/1999/xlink" x="0px" y="0px"
	 width="512px" height="512px" viewBox="0 0 512 512" enable-background="new 0 0 512 512" xml:space="preserve">
<path fill="#00B2AB" d="M198,182.2c0-52.7,0-105.3,0-158c0-14.8,3.4-18.7,18.2-21c128.6-19.9,245,51.8,284.7,175.4
	c31.3,97.5-5.8,212.1-88.4,273.3c-9.8,7.3-18.2,7.1-23.8-0.4c-5.5-7.4-3.2-15.3,6.4-23c61.4-49.3,90.9-113.5,87.2-191.9
	c-4.6-98.6-83.9-187-181.4-204c-20-3.5-40.1-3.4-60.3-3.1c-10.7,0.2-13.8,3.4-13.7,14.3c0.5,97.5,0.3,195,0.3,292.5
	c0,4.9-0.1,10-1.3,14.6c-1.8,6.7-7.2,10.2-14,9.9c-7.4-0.4-12.3-4.7-13.5-12.1c-0.6-3.6-0.3-7.4-0.3-11.1
	C198,285.9,198,234,198,182.2"/>
<path fill="#00B2AB" d="M314,382.2c0,34.6,0.1,69.1,0,103.7c0,15.1-3.1,18.6-18,21.6c-129.1,26-262.1-62.6-289.6-195.6
	c-20.9-100.7,10-185.3,86.4-253c2.8-2.5,5.8-4.6,8.8-6.9c7.8-5.9,15.7-6,21.6,2.1c6.1,8.3,3.1,15.8-4.4,21.6
	c-26.4,20.2-47.6,44.8-63,74.3c-73.3,140.8,12.4,308.6,168.3,330c16.9,2.3,33.6,2.3,50.4,1c8-0.6,10.7-3.8,10.6-12.4
	c-0.4-62.9-0.2-125.7-0.3-188.6c0-3.7-0.1-7.5,0.2-11.2c0.6-7.9,5.6-12.2,12.7-12.9c7.2-0.7,12.9,2.9,14.9,10.3
	c1,3.9,1.3,8.2,1.3,12.3C314.1,313.1,314,347.6,314,382.2"/>
<path fill="#00B2AB" d="M320.8,160.1c0.2,9.8-7.2,17.4-17,17.4c-9,0-16.8-7.6-17.1-16.5c-0.3-9.1,8.2-17.7,17.3-17.7
	C312.9,143.4,320.6,151.1,320.8,160.1"/>
</svg>
