<svg width="1263px" height="382px" viewBox="0 0 1263 382" version="1.1" xmlns="http://www.w3.org/2000/svg">
    <g id="Luminor-Desktop-MVP" stroke="none" stroke-width="1" fill="none" fill-rule="evenodd" opacity="0.397205171">
        <g id="banklink_card_data_mvp" transform="translate(-89.000000, -21.000000)" fill="#CBCBCB">
            <g id="Group-3-Copy-10" transform="translate(89.000000, 20.000000)">
                <polygon id="star-4" opacity="0.551595052" points="1025 239 1041 223 1057 239 1041 255"/>
                <polygon id="star-4-copy" opacity="0.370884487" points="1024 70 1057 38 1090 70 1057 102"/>
                <polygon id="star-5" transform="translate(1170.398712, 267.900043) rotate(-45.000000) translate(-1170.398712, -267.900043) " points="1165.85713 263.358465 1174.93905 263.359708 1174.94029 272.441621 1165.85838 272.440378"/>
                <polygon id="star-6" transform="translate(1188.007919, 12.007919) rotate(-45.000000) translate(-1188.007919, -12.007919) " points="1180.22414 4.22414483 1195.78956 4.22627514 1195.79169 19.7916932 1180.22628 19.7895629"/>
                <polygon id="star-8" opacity="0.104399182" transform="translate(968.510108, 366.510108) rotate(-45.000000) translate(-968.510108, -366.510108) " points="956.835699 354.835699 980.181322 354.838894 980.184518 378.184518 956.838894 378.181322"/>
                <polygon id="star-11" transform="translate(1255.336252, 199.336252) rotate(-45.000000) translate(-1255.336252, -199.336252) " points="1250.14874 194.148739 1260.52235 194.150158 1260.52377 204.523766 1250.15016 204.522346"/>
                <polygon id="star-4" opacity="0.551595052" points="0 118 16 102 32 118 16 134"/>
                <polygon id="star-4-copy" opacity="0.381510417" points="248 123 281 91 314 123 281 155"/>
                <polygon id="star-5" transform="translate(192.398712, 222.900043) rotate(-45.000000) translate(-192.398712, -222.900043) " points="187.857134 218.358465 196.939047 218.359708 196.94029 227.441621 187.858377 227.440378"/>
                <polygon id="star-6" transform="translate(357.249970, 11.966425) rotate(-45.000000) translate(-357.249970, -11.966425) " points="349.466196 4.18265102 365.031614 4.18478133 365.033745 19.7501994 349.468327 19.7480691"/>
                <polygon id="star-8" opacity="0.104399182" transform="translate(330.330199, 317.390635) rotate(-45.000000) translate(-330.330199, -317.390635) " points="318.65579 305.716226 342.001413 305.719421 342.004608 329.065045 318.658985 329.06185"/>
                <polygon id="star-11" transform="translate(431.336252, 225.336252) rotate(-45.000000) translate(-431.336252, -225.336252) " points="426.148739 220.148739 436.522346 220.150158 436.523766 230.523766 426.150158 230.522346"/>
            </g>
        </g>
    </g>
</svg>