<?xml version="1.0" encoding="utf-8"?>
<!-- Generator: Adobe Illustrator 22.1.0, SVG Export Plug-In . SVG Version: 6.00 Build 0)  -->
<svg version="1.1" id="Layer_1" xmlns="http://www.w3.org/2000/svg" xmlns:xlink="http://www.w3.org/1999/xlink" x="0px" y="0px"
	 width="512px" height="512px" viewBox="0 0 512 512" enable-background="new 0 0 512 512" xml:space="preserve">
<path fill="#633754" d="M295.1,342.5C295.1,342.5,295,342.5,295.1,342.5l-70.1-0.1c-43.2,0-78.3-35.5-78.3-78.9l-0.2-184.8
	c0-21.2,8.2-41.1,23.1-56C184.3,8.1,203.9,0,224.6,0c0,0,0,0,0.1,0l70,0.1C337.9,0,373,35.5,373.1,79l0.2,184.8
	c0,21.2-8.2,41.1-23.1,56C335.4,334.4,315.9,342.5,295.1,342.5z M224.6,35.4c-11.3,0-22,4.4-30,12.5c-8.2,8.2-12.7,19.2-12.7,30.9
	l0.2,184.8c0,24,19.3,43.5,42.9,43.5l70,0.1c0,0,0,0,0,0c11.3,0,22-4.4,30-12.5c8.2-8.2,12.7-19.2,12.7-30.9L337.6,79
	c0-24-19.3-43.5-42.9-43.5L224.6,35.4C224.7,35.4,224.6,35.4,224.6,35.4z"/>
<path fill="#EBEBE8" d="M153.4,177.3h205.5c35.5,0,64.3,28.8,64.3,64.3v205.5c0,35.5-28.8,64.3-64.3,64.3H153.4
	c-35.5,0-64.3-28.8-64.3-64.3l0-205.5C89.1,206.1,117.9,177.3,153.4,177.3z"/>
<path fill="#3A0E2E" d="M233.2,337.4c-7.5-5.9-12.8-14.7-14.1-24.9c-2.5-20.5,12-39.1,32.4-41.6c20.4-2.5,39,12.1,41.5,32.6
	c1.7,14.2-4.7,27.5-15.6,35.2l11.2,57.6c0.1,0.4,0.1,0.8,0.1,1.2c0.1,3.9-3,7.2-6.9,7.3l-53.6,1.3c-0.5,0-1.1,0-1.6-0.1
	c-3.9-0.8-6.3-4.6-5.5-8.5L233.2,337.4z"/>
</svg>
