<?xml version="1.0" encoding="UTF-8"?>
<svg width="52px" height="26px" viewBox="0 0 52 26" version="1.1" xmlns="http://www.w3.org/2000/svg" xmlns:xlink="http://www.w3.org/1999/xlink">
    <!-- Generator: Sketch 52.6 (67491) - http://www.bohemiancoding.com/sketch -->
    <title>Group 19 Copy 3</title>
    <desc>Created with Sketch.</desc>
    <g id="Luminor-Desktop-MVP" stroke="none" stroke-width="1" fill="none" fill-rule="evenodd">
        <g id="3d_1_mvp" transform="translate(-256.000000, -148.000000)" fill="#1A1F71">
            <g id="Group" transform="translate(216.000000, 108.000000)">
                <g id="Group-19-Copy-3" transform="translate(40.000000, 40.000000)">
                    <path d="M2.76959348,9.10005652 L2.82608696e-05,0.593534783 L1.18698478,0.593534783 L2.51524565,4.77614348 C2.88263696,5.93483913 3.19350652,6.95223043 3.41959348,7.96962174 L3.44785435,7.96962174 C3.6739413,6.9804913 4.04133261,5.90657826 4.40872391,4.80440435 L5.85002826,0.593534783 L7.03698478,0.593534783 L3.98481087,9.10005652 L2.76959348,9.10005652 Z" id="Fill-1"></path>
                    <path d="M10.8803783,5.4542913 C10.9086391,4.74776957 10.5977696,3.64559565 9.32603043,3.64559565 C8.19559565,3.64559565 7.71516087,4.69124783 7.63037826,5.4542913 L10.8803783,5.4542913 Z M7.63037826,6.24559565 C7.65863913,7.74342174 8.6195087,8.36516087 9.72168261,8.36516087 C10.512987,8.36516087 10.9934217,8.22385652 11.4173348,8.0542913 L11.6151609,8.84559565 C11.2195087,9.01516087 10.5412478,9.21298696 9.58037826,9.21298696 C7.6869,9.21298696 6.58472609,7.9695087 6.58472609,6.13255217 C6.58472609,4.29559565 7.65863913,2.82603043 9.43907391,2.82603043 C11.4455957,2.82603043 11.9542913,4.57820435 11.9542913,5.70863913 C11.9542913,5.93472609 11.9260304,6.1042913 11.9260304,6.21733478 L7.63037826,6.24559565 Z" id="Fill-3"></path>
                    <path d="M12.8304913,4.88907391 C12.8304913,4.18255217 12.8304913,3.56081304 12.7739696,2.99559565 L13.7348391,2.99559565 L13.7631,4.18255217 L13.8196217,4.18255217 C14.1022304,3.36298696 14.7804913,2.8542913 15.5152739,2.8542913 C15.6283174,2.8542913 15.7413609,2.8542913 15.8261435,2.88255217 L15.8261435,3.92820435 C15.7131,3.89994348 15.6000565,3.89994348 15.4587522,3.89994348 C14.6674478,3.89994348 14.1304913,4.49342174 13.9609261,5.31298696 C13.9326652,5.4542913 13.9044043,5.65211739 13.9044043,5.82168261 L13.9044043,9.07168261 L12.8022304,9.07168261 L12.8022304,4.88907391 L12.8304913,4.88907391 Z" id="Fill-5"></path>
                    <path d="M16.5043478,9.1 L17.6065217,9.1 L17.6065217,2.99565217 L16.5043478,2.99565217 L16.5043478,9.1 Z M17.7478261,1.27173913 C17.7478261,1.63913043 17.4934783,1.95 17.0413043,1.95 C16.6456522,1.95 16.3630435,1.63913043 16.3630435,1.27173913 C16.3630435,0.876086957 16.6456522,0.565217391 17.0695652,0.565217391 C17.4652174,0.565217391 17.7478261,0.876086957 17.7478261,1.27173913 Z" id="Fill-7"></path>
                    <path d="M19.0760304,9.10005652 L19.0760304,3.84353478 L18.2282043,3.84353478 L18.2282043,2.9957087 L19.0760304,2.9957087 L19.0760304,2.7131 C19.0760304,1.86527391 19.2738565,1.07396957 19.7825522,0.565273913 C20.2064652,0.169621739 20.7434217,5.65217391e-05 21.2803783,5.65217391e-05 C21.6760304,5.65217391e-05 22.0151609,0.0848391304 22.2412478,0.169621739 L22.0999435,1.01744783 C21.9303783,0.932665217 21.7042913,0.876143478 21.3934217,0.876143478 C20.460813,0.876143478 20.2064652,1.6957087 20.2064652,2.65657826 L20.2064652,2.9957087 L21.6760304,2.9957087 L21.6760304,3.84353478 L20.2064652,3.84353478 L20.2064652,9.10005652 L19.0760304,9.10005652 Z" id="Fill-9"></path>
                    <path d="M22.7217391,9.1 L23.823913,9.1 L23.823913,2.99565217 L22.7217391,2.99565217 L22.7217391,9.1 Z M23.9652174,1.27173913 C23.9934783,1.63913043 23.7108696,1.95 23.2586957,1.95 C22.8630435,1.95 22.5804348,1.63913043 22.5804348,1.27173913 C22.5804348,0.876086957 22.8630435,0.565217391 23.2869565,0.565217391 C23.7108696,0.565217391 23.9652174,0.876086957 23.9652174,1.27173913 Z" id="Fill-10"></path>
                    <path d="M29.0520609,5.4542913 C29.0520609,4.74776957 28.7694522,3.64559565 27.497713,3.64559565 C26.3672783,3.64559565 25.8868435,4.69124783 25.8020609,5.4542913 L29.0520609,5.4542913 Z M25.8020609,6.24559565 C25.8306043,7.74342174 26.7911913,8.36516087 27.8933652,8.36516087 C28.6846696,8.36516087 29.1651043,8.22385652 29.5890174,8.0542913 L29.7871261,8.84559565 C29.3911913,9.01516087 28.713213,9.21298696 27.7520609,9.21298696 C25.8585826,9.21298696 24.7564087,7.9695087 24.7564087,6.13255217 C24.7564087,4.29559565 25.8306043,2.82603043 27.6107565,2.82603043 C29.6172783,2.82603043 30.1262565,4.57820435 30.1262565,5.70863913 C30.1262565,5.93472609 30.097713,6.1042913 30.097713,6.21733478 L25.8020609,6.24559565 Z" id="Fill-11"></path>
                    <path d="M35.1847261,5.48258043 C35.1847261,5.34127609 35.1847261,5.14345 35.1282043,5.00214565 C34.9586391,4.29562391 34.3654435,3.70214565 33.5176174,3.70214565 C32.3586391,3.70214565 31.6806609,4.71953696 31.6806609,6.0760587 C31.6806609,7.31953696 32.2738565,8.33692826 33.4890739,8.33692826 C34.2241391,8.33692826 34.9021174,7.85649348 35.1282043,7.00866739 C35.1564652,6.86736304 35.1847261,6.69779783 35.1847261,6.52823261 L35.1847261,5.48258043 Z M36.2869,0.141276087 L36.2869,7.51736304 C36.2869,8.05431957 36.2869,8.6760587 36.3437043,9.09997174 L35.3545739,9.09997174 L35.2977696,8.0260587 L35.2695087,8.0260587 C34.9306609,8.70431957 34.1955957,9.21301522 33.1782043,9.21301522 C31.7086391,9.21301522 30.5782043,7.96953696 30.5782043,6.10431957 C30.5782043,4.06953696 31.8219652,2.8260587 33.3195087,2.8260587 C34.2521174,2.8260587 34.8738565,3.27823261 35.1564652,3.75866739 L35.1847261,3.75866739 L35.1847261,0.141276087 L36.2869,0.141276087 Z" id="Fill-12"></path>
                    <path d="M41.5434217,6.64130435 C41.5434217,6.7826087 41.5719652,6.92391304 41.5999435,7.03695652 C41.8260304,7.8 42.4477696,8.33695652 43.2676174,8.33695652 C44.4260304,8.33695652 45.1325522,7.37608696 45.1325522,5.99130435 C45.1325522,4.77608696 44.510813,3.73043478 43.3238565,3.73043478 C42.5610957,3.73043478 41.8545739,4.23913043 41.6282043,5.08695652 C41.5999435,5.2 41.5719652,5.36956522 41.5719652,5.53913043 L41.5719652,6.64130435 L41.5434217,6.64130435 Z M40.3847261,9.1 C40.412987,8.67608696 40.4415304,8.05434783 40.4415304,7.5173913 L40.4415304,0.141304348 L41.5434217,0.141304348 L41.5434217,3.98478261 L41.5719652,3.98478261 C41.9673348,3.30652174 42.6738565,2.85434783 43.662987,2.85434783 C45.1890739,2.85434783 46.262987,4.12608696 46.2350087,5.96304348 C46.2350087,8.13913043 44.8499435,9.24130435 43.4934217,9.24130435 C42.6173348,9.24130435 41.910813,8.90217391 41.4586391,8.0826087 L41.4306609,8.0826087 L41.3738565,9.1 L40.3847261,9.1 Z" id="Fill-13"></path>
                    <path d="M47.4500565,2.99568043 L48.7783174,6.61307174 C48.9196217,7.00872391 49.0609261,7.4891587 49.1739696,7.85655 L49.2022304,7.85655 C49.3152739,7.4891587 49.4283174,7.00872391 49.5978826,6.58481087 L50.8128174,2.99568043 L52.0000565,2.99568043 L50.3326652,7.34785435 C49.5410783,9.4391587 49.0044043,10.5130717 48.2413609,11.1630717 C47.7041217,11.6435065 47.1674478,11.8413326 46.8848391,11.8695935 L46.6022304,10.9369848 C46.8848391,10.8522022 47.2522304,10.682637 47.5628174,10.4000283 C47.8739696,10.1739413 48.2413609,9.72176739 48.4957087,9.15655 C48.5519478,9.04350652 48.5804913,8.95872391 48.5804913,8.90220217 C48.5804913,8.84568043 48.5519478,8.76089783 48.4957087,8.61959348 L46.2348391,2.99568043 L47.4500565,2.99568043 Z" id="Fill-14"></path>
                    <path d="M18.426087,13.2543196 L15.0630435,21.7608413 L13.7065217,14.5260587 C13.5369565,13.7064935 12.9152174,13.2543196 12.2086957,13.2543196 L6.69782609,13.2543196 L6.61304348,13.6217109 C7.74347826,13.8760587 9.01521739,14.2717109 9.80652174,14.6956239 C10.2869565,14.9499717 10.4282609,15.1760587 10.5695652,15.7977978 L13.1413043,25.7738848 L16.5891304,25.7738848 L21.8456522,13.2543196 L18.426087,13.2543196 Z" id="Fill-15"></path>
                    <polygon id="Fill-16" points="23.2304348 13.2543196 20.5456522 25.7738848 23.7956522 25.7738848 26.4521739 13.2543196"></polygon>
                    <path d="M30.7195652,16.7304913 C30.7195652,16.2783174 31.1717391,15.7978826 32.1043478,15.6848391 C32.5565217,15.6283174 33.8565217,15.5717957 35.2978261,16.2500565 L35.8630435,13.5935348 C35.0717391,13.3109261 34.0826087,13.0283174 32.8391304,13.0283174 C29.6456522,13.0283174 27.3847826,14.7239696 27.3565217,17.1826652 C27.3282609,18.9913609 28.9673913,19.9804913 30.1826087,20.5739696 C31.4543478,21.1957087 31.8782609,21.5631 31.85,22.1283174 C31.85,22.9761435 30.8326087,23.3435348 29.9282609,23.3435348 C28.2891304,23.3717957 27.3565217,22.8913609 26.5934783,22.5522304 L26,25.2935348 C26.7630435,25.6326652 28.1478261,25.9435348 29.5891304,25.9435348 C32.9804348,25.9435348 35.2130435,24.2761435 35.2130435,21.6478826 C35.2695652,18.3978826 30.6913043,18.2000565 30.7195652,16.7304913" id="Fill-17"></path>
                    <path d="M41.3173913,13.2543196 C40.6956522,13.2543196 40.1586957,13.6217109 39.9326087,14.1586674 L35.0717391,25.7456239 L38.4630435,25.7456239 L39.1413043,23.8804065 L43.2956522,23.8804065 L43.6913043,25.7456239 L46.6869565,25.7456239 L44.0869565,13.2260587 L41.3173913,13.2260587 L41.3173913,13.2543196 Z M40.073913,21.3369283 L41.7978261,16.6456239 L42.7586957,21.3369283 L40.073913,21.3369283 Z" id="Fill-18"></path>
                </g>
            </g>
        </g>
    </g>
</svg>